<?xml version="1.0" encoding="UTF-8"?>
<svg version="1.1" xmlns="http://www.w3.org/2000/svg" width="680" height="340">
<path d="M0 0 C224.4 0 448.8 0 680 0 C680 112.2 680 224.4 680 340 C455.6 340 231.2 340 0 340 C0 227.8 0 115.6 0 0 Z " fill="#FEFEFE" transform="translate(0,0)"/>
<path d="M0 0 C35.31 0 70.62 0 107 0 C106.91086931 27.09127244 106.91086931 27.09127244 106.83984375 38.66210938 C106.79153955 46.54939993 106.74748308 54.43655044 106.72900391 62.32397461 C106.71383135 68.6848546 106.67937408 75.04536761 106.63169098 81.40608406 C106.61688356 83.82964954 106.60895936 86.25326741 106.60811615 88.67687798 C106.60574295 92.07851914 106.57863259 95.47914904 106.54589844 98.88061523 C106.55344398 100.37495087 106.55344398 100.37495087 106.56114197 101.8994751 C106.40041739 112.73468466 101.8215106 120.93533048 94.41015625 128.65625 C82.17302012 139.94320851 64.86463549 142.98362925 48.75390625 142.3828125 C33.95684638 141.42153261 20.34425801 137.11191558 9.75100708 126.36138916 C6.7190976 122.27258891 6.94281357 118.38984026 7.09179688 113.453125 C7.09062866 112.42783188 7.08946045 111.40253876 7.08825684 110.34617615 C7.09380141 106.97937425 7.15588534 103.61617778 7.21875 100.25 C7.23368134 97.90732762 7.24506413 95.56463017 7.25305176 93.22192383 C7.28351466 87.07279811 7.3620303 80.92519774 7.45068359 74.77667236 C7.53269952 68.49585604 7.56909705 62.21479186 7.609375 55.93359375 C7.69502773 43.62172772 7.83146623 31.31099098 8 19 C5.36 19 2.72 19 0 19 C0 12.73 0 6.46 0 0 Z " fill="#DAB22F" transform="translate(52,96)"/>
<path d="M0 0 C17.49 0 34.98 0 53 0 C53 6.93 53 13.86 53 21 C56.96 21 60.92 21 65 21 C65.0452417 28.3455124 65.08191086 35.69094825 65.10362434 43.03657055 C65.11404739 46.44769162 65.12817938 49.85871217 65.15087891 53.26977539 C65.17683004 57.19416081 65.18648505 61.11850596 65.1953125 65.04296875 C65.20563507 66.26396774 65.21595764 67.48496674 65.22659302 68.7429657 C65.22674408 69.8837709 65.22689514 71.02457611 65.22705078 72.19995117 C65.231492 73.20144699 65.23593323 74.20294281 65.24050903 75.23478699 C64.98550248 78.16668291 64.22694662 80.33965323 63 83 C62.34 83 61.68 83 61 83 C60.79375 83.556875 60.5875 84.11375 60.375 84.6875 C56.70418213 90.86114823 50.18570428 94.02199598 43.5390625 96.0625 C38.14181663 97.36768809 32.77768388 97.34276499 27.25 97.3125 C26.18322021 97.30686035 25.11644043 97.3012207 24.01733398 97.29541016 C10.62774349 97.08861321 0.66108769 94.66108769 -9 85 C-9.33 89.95 -9.66 94.9 -10 100 C-10.33 100 -10.66 100 -11 100 C-11.02505615 99.40461426 -11.0501123 98.80922852 -11.07592773 98.19580078 C-11.19177494 95.50530864 -11.31455196 92.8151766 -11.4375 90.125 C-11.47681641 89.18785156 -11.51613281 88.25070313 -11.55664062 87.28515625 C-11.59853516 86.38925781 -11.64042969 85.49335938 -11.68359375 84.5703125 C-11.72025146 83.74289551 -11.75690918 82.91547852 -11.79467773 82.06298828 C-11.88238327 79.93820571 -11.88238327 79.93820571 -13 78 C-13.0909215 76.1820546 -13.11753467 74.36074055 -13.11352539 72.54052734 C-13.11344986 71.39949554 -13.11337433 70.25846375 -13.11329651 69.08285522 C-13.10813522 67.84637238 -13.10297394 66.60988953 -13.09765625 65.3359375 C-13.0962413 64.07359283 -13.09482635 62.81124817 -13.09336853 61.51065063 C-13.08871078 58.15361701 -13.07972408 54.796651 -13.06866455 51.43963623 C-13.0584377 48.01445094 -13.05386818 44.58925866 -13.04882812 41.1640625 C-13.03778238 34.44268716 -13.02050924 27.72135286 -13 21 C-8.71 21 -4.42 21 0 21 C0 14.07 0 7.14 0 0 Z " fill="#12497F" transform="translate(79,128)"/>
<path d="M0 0 C35.31 0 70.62 0 107 0 C106.91086931 27.09127244 106.91086931 27.09127244 106.83984375 38.66210938 C106.79153955 46.54939993 106.74748308 54.43655044 106.72900391 62.32397461 C106.71383135 68.6848546 106.67937408 75.04536761 106.63169098 81.40608406 C106.61688356 83.82964954 106.60895936 86.25326741 106.60811615 88.67687798 C106.60574295 92.07851914 106.57863259 95.47914904 106.54589844 98.88061523 C106.55344398 100.37495087 106.55344398 100.37495087 106.56114197 101.8994751 C106.41760556 111.57594869 102.9114834 118.49081839 97 126 C96.67 126 96.34 126 96 126 C96 90.69 96 55.38 96 19 C67.62 19 39.24 19 10 19 C10 53.98 10 88.96 10 125 C9.34 124.67 8.68 124.34 8 124 C8 89.35 8 54.7 8 19 C5.36 19 2.72 19 0 19 C0 12.73 0 6.46 0 0 Z " fill="#144A7E" transform="translate(52,96)"/>
<path d="M0 0 C5.55007795 -0.09938156 11.09963018 -0.1717096 16.65039062 -0.21972656 C18.53589916 -0.23975767 20.42134623 -0.26699073 22.30664062 -0.30175781 C25.02749862 -0.35065272 27.74753056 -0.37305382 30.46875 -0.390625 C31.30241089 -0.41127014 32.13607178 -0.43191528 32.99499512 -0.45318604 C38.7916325 -0.45537455 43.16306534 0.72959491 48 4 C53.12278817 9.5168488 53.3590842 13.35065623 53.26953125 20.7265625 C52.88100716 25.44515939 52.08045517 27.38046518 49 31 C46.43485044 32.63503808 43.83052249 33.89389776 41 35 C41.67546875 35.30292969 42.3509375 35.60585937 43.046875 35.91796875 C48.95942317 38.69481579 52.98907646 40.97815292 56 47 C56.98319328 60.68907563 56.98319328 60.68907563 53 66 C47.62127972 71.50678505 41.20733496 74.06040923 33.48999023 74.34057617 C31.92944412 74.34011096 30.36883626 74.32375372 28.80859375 74.29296875 C27.97787857 74.28872391 27.14716339 74.28447906 26.29127502 74.28010559 C23.67300118 74.26349314 21.05553585 74.2258763 18.4375 74.1875 C16.64779768 74.17243053 14.85808313 74.15874612 13.06835938 74.14648438 C8.71193446 74.1136472 4.35610365 74.06198936 0 74 C0 72.35 0 70.7 0 69 C3.96 68.01 3.96 68.01 8 67 C8.33 46.87 8.66 26.74 9 6 C6.03 5.67 3.06 5.34 0 5 C0 3.35 0 1.7 0 0 Z " fill="#145184" transform="translate(317,161)"/>
<path d="M0 0 C5.51342732 -0.12452146 11.02601847 -0.21476997 16.54052734 -0.2746582 C18.41241737 -0.29964898 20.28421135 -0.33365373 22.15576172 -0.37719727 C42.78774636 -0.84485558 42.78774636 -0.84485558 50 5 C54.22435645 9.56829144 55.3660842 14.46936685 55.27734375 20.5234375 C54.65335056 26.09543301 52.39068279 31.11129209 48.1875 34.875 C44.82922892 37.11384739 41.76015246 38.57114207 38 40 C38.76441406 40.40476563 39.52882813 40.80953125 40.31640625 41.2265625 C47.88426068 46.22773559 51.67814953 57.89562723 55 66 C55 66.66 55 67.32 55 68 C57.31 68.33 59.62 68.66 62 69 C62 70.65 62 72.3 62 74 C57.71 74 53.42 74 49 74 C48.11957031 72.09734375 47.23914063 70.1946875 46.33203125 68.234375 C45.46455974 66.38282067 44.59272913 64.53337967 43.72045898 62.68408203 C43.11952056 61.40399756 42.52309153 60.12178555 41.93139648 58.83740234 C41.07690616 56.9846891 40.20614477 55.1403962 39.33203125 53.296875 C38.81358643 52.18666992 38.2951416 51.07646484 37.76098633 49.93261719 C35.25655812 45.76192654 32.60695689 43.5356523 28 42 C24.37 41.67 20.74 41.34 17 41 C17.33 49.58 17.66 58.16 18 67 C21.3 67.66 24.6 68.32 28 69 C28 70.65 28 72.3 28 74 C18.76 74 9.52 74 0 74 C0 72.35 0 70.7 0 69 C4.455 68.505 4.455 68.505 9 68 C9 47.54 9 27.08 9 6 C6.03 5.67 3.06 5.34 0 5 C0 3.35 0 1.7 0 0 Z " fill="#114F82" transform="translate(524,161)"/>
<path d="M0 0 C5.69249459 -0.09935879 11.38447718 -0.17169923 17.07763672 -0.21972656 C19.01164552 -0.23976141 20.94559435 -0.26699729 22.87939453 -0.30175781 C25.66974743 -0.35063571 28.45929501 -0.37305019 31.25 -0.390625 C32.10553467 -0.41127014 32.96106934 -0.43191528 33.8425293 -0.45318604 C40.30896332 -0.45556784 45.63259901 0.96527649 50.52783203 5.37689209 C54.35829974 9.63653462 55.74173495 13.71865874 56.375 19.3125 C55.7650334 25.3105049 53.78117239 30.78626211 49.1875 34.875 C45.82922892 37.11384739 42.76015246 38.57114207 39 40 C40.04285156 40.77859375 41.08570313 41.5571875 42.16015625 42.359375 C46.70990586 46.26145302 48.93135762 50.89017624 51.4375 56.25 C51.88287109 57.16007812 52.32824219 58.07015625 52.78710938 59.0078125 C56 65.66061828 56 65.66061828 56 68 C58.31 68.33 60.62 68.66 63 69 C63 70.65 63 72.3 63 74 C58.71 74 54.42 74 50 74 C49.15322265 72.30644529 48.3065658 70.61283024 47.46044922 68.91894531 C46.73238502 67.46412696 46.00221516 66.01036062 45.27001953 64.55761719 C43.57736986 61.19309566 41.92045403 57.82740024 40.34375 54.40625 C36.88088675 46.59063432 36.88088675 46.59063432 30 42 C26.04 41.67 22.08 41.34 18 41 C18.33 49.58 18.66 58.16 19 67 C22.3 67.66 25.6 68.32 29 69 C29 70.65 29 72.3 29 74 C19.43 74 9.86 74 0 74 C0 72.35 0 70.7 0 69 C4.95 68.505 4.95 68.505 10 68 C10 47.54 10 27.08 10 6 C6.7 5.67 3.4 5.34 0 5 C0 3.35 0 1.7 0 0 Z " fill="#114F82" transform="translate(382,161)"/>
<path d="M0 0 C2.97 0 5.94 0 9 0 C14.88752603 15.87717822 20.67854037 31.78651018 26.3085022 47.75698853 C26.89483247 49.41993703 27.48221589 51.08251459 28.07064819 52.74472046 C28.89809683 55.08386141 29.72123251 57.42447212 30.54296875 59.765625 C30.79244263 60.46949844 31.0419165 61.17337189 31.2989502 61.89857483 C33 66.77037508 33 66.77037508 33 69 C35.64 69.33 38.28 69.66 41 70 C41 71.65 41 73.3 41 75 C31.76 75 22.52 75 13 75 C13 73.35 13 71.7 13 70 C17.95 69.505 17.95 69.505 23 69 C22.71125 68.16855469 22.4225 67.33710938 22.125 66.48046875 C21.75375 65.39378906 21.3825 64.30710937 21 63.1875 C20.62875 62.10855469 20.2575 61.02960938 19.875 59.91796875 C19 57 19 57 19 54 C3.655 54.495 3.655 54.495 -12 55 C-13.65 59.62 -15.3 64.24 -17 69 C-13.7 69.33 -10.4 69.66 -7 70 C-7 71.65 -7 73.3 -7 75 C-15.58 75 -24.16 75 -33 75 C-33 73.35 -33 71.7 -33 70 C-31.94941406 69.92394531 -30.89882813 69.84789062 -29.81640625 69.76953125 C-26.99064537 68.93875897 -26.16111677 68.26644266 -24.61669922 65.71240234 C-23.25630015 62.40685688 -22.07790181 59.07540088 -20.9375 55.6875 C-20.48624303 54.41453863 -20.03190597 53.14266551 -19.57470703 51.87182617 C-18.58100797 49.10405579 -17.60017328 46.33213602 -16.62548828 43.55761719 C-13.98513841 36.09587397 -11.14123833 28.70916091 -8.32522583 21.31240845 C-7.38206312 18.83108207 -6.4439753 16.34789663 -5.50756836 13.86401367 C-5.21487564 13.08855194 -4.92218292 12.31309021 -4.62062073 11.51412964 C-4.06875956 10.05198231 -3.51749059 8.58961129 -2.96690369 7.12698364 C-1.11312392 2.22624784 -1.11312392 2.22624784 0 0 Z " fill="#145184" transform="translate(480,160)"/>
<path d="M0 0 C0.33 2.64 0.66 5.28 1 8 C2.65 6.68 4.3 5.36 6 4 C7.0415625 4.53109375 8.083125 5.0621875 9.15625 5.609375 C32.53414274 17.23785656 59.16305657 21.26547404 84.45410156 13.21923828 C91.94906417 10.69213057 99.2511061 8.16880829 106 4 C108 4 108 4 110.625 6.5 C111.800625 7.7375 111.800625 7.7375 113 9 C113 6.03 113 3.06 113 0 C118.82884609 0.42270258 122.21507071 1.99109397 126.875 5.4375 C127.45507812 5.84548828 128.03515625 6.25347656 128.6328125 6.67382812 C132.84520729 9.69041458 132.84520729 9.69041458 134 12 C131.36 12 128.72 12 126 12 C126 15.3 126 18.6 126 22 C122.66666667 20.66666667 119.33333333 19.33333333 116 18 C115.34 19.32 114.68 20.64 114 22 C110.28400809 22.20086443 109.22791555 22.1519437 106 20 C104.05966909 20.32058863 104.05966909 20.32058863 102.04296875 21.23046875 C101.26655029 21.53774902 100.49013184 21.8450293 99.69018555 22.16162109 C98.86429932 22.50016113 98.03841309 22.83870117 97.1875 23.1875 C89.17528975 26.31618619 81.49836172 28.55204846 73 30 C72.09636719 30.18304688 71.19273438 30.36609375 70.26171875 30.5546875 C48.25614553 33.55904121 24.63704712 29.40701551 5 19 C5 19.66 5 20.32 5 21 C3.02 21.33 1.04 21.66 -1 22 C-1.66 20.68 -2.32 19.36 -3 18 C-4.093125 18.474375 -5.18625 18.94875 -6.3125 19.4375 C-8.53476255 20.40187809 -10.69500485 21.23166828 -13 22 C-13 18.7 -13 15.4 -13 12 C-15.64 12 -18.28 12 -21 12 C-15.47484737 5.94015518 -8.46353445 -0.22272459 0 0 Z " fill="#184A7B" transform="translate(49,226)"/>
<path d="M0 0 C3.96 0 7.92 0 12 0 C12.0452417 7.3455124 12.08191086 14.69094825 12.10362434 22.03657055 C12.11404739 25.44769162 12.12817938 28.85871217 12.15087891 32.26977539 C12.17683004 36.19416081 12.18648505 40.11850596 12.1953125 44.04296875 C12.20563507 45.26396774 12.21595764 46.48496674 12.22659302 47.7429657 C12.22674408 48.8837709 12.22689514 50.02457611 12.22705078 51.19995117 C12.231492 52.20144699 12.23593323 53.20294281 12.24050903 54.23478699 C11.98550248 57.16668291 11.22694662 59.33965323 10 62 C9.34 62 8.68 62 8 62 C7.690625 62.8353125 7.690625 62.8353125 7.375 63.6875 C3.70418213 69.86114823 -2.81429572 73.02199598 -9.4609375 75.0625 C-14.85818337 76.36768809 -20.22231612 76.34276499 -25.75 76.3125 C-26.81677979 76.30686035 -27.88355957 76.3012207 -28.98266602 76.29541016 C-42.37225651 76.08861321 -52.33891231 73.66108769 -62 64 C-62.33 68.95 -62.66 73.9 -63 79 C-63.33 79 -63.66 79 -64 79 C-64.1958691 75.18788097 -64.38029565 71.37529466 -64.5625 67.5625 C-64.64661133 65.92958008 -64.64661133 65.92958008 -64.73242188 64.26367188 C-64.78076172 63.22919922 -64.82910156 62.19472656 -64.87890625 61.12890625 C-64.9260376 60.17056885 -64.97316895 59.21223145 -65.02172852 58.22485352 C-65 56 -65 56 -64 55 C-63.93665465 52.81600361 -63.94080998 50.62999524 -63.97265625 48.4453125 C-63.98530593 47.09505468 -63.99766664 45.74479412 -64.00976562 44.39453125 C-64.03457231 42.25919156 -64.06251578 40.12399227 -64.09594727 37.98876953 C-64.12616394 35.93260807 -64.14393204 33.87662531 -64.16015625 31.8203125 C-64.18541382 29.96817139 -64.18541382 29.96817139 -64.21118164 28.07861328 C-64 25 -64 25 -62 22 C-62 32.89 -62 43.78 -62 55 C-57.71 55 -53.42 55 -49 55 C-49 53.35 -49 51.7 -49 50 C-49.61875 49.731875 -50.2375 49.46375 -50.875 49.1875 C-53 48 -53 48 -55 45 C-55.69265757 39.79701407 -55.81577957 35.38682527 -53.125 30.8125 C-51 29 -51 29 -49 29 C-48.67 27.68 -48.34 26.36 -48 25 C-46.1875 25.1875 -46.1875 25.1875 -44 26 C-42.375 28.375 -42.375 28.375 -41 31 C-40.34 31.99 -39.68 32.98 -39 34 C-39 34.99 -39 35.98 -39 37 C-36.69 37 -34.38 37 -32 37 C-31.67 37.66 -31.34 38.32 -31 39 C-33.64 39 -36.28 39 -39 39 C-38.67 39.99 -38.34 40.98 -38 42 C-39.36182297 45.17758693 -40.54859213 47.54859213 -43 50 C-43.33 51.98 -43.66 53.96 -44 56 C-39.71 56 -35.42 56 -31 56 C-31 51.38 -31 46.76 -31 42 C-25.06 42.33 -19.12 42.66 -13 43 C-12.6875 50.3125 -12.6875 50.3125 -12.61206055 52.6027832 C-12.45676271 55.42421626 -12.28595894 57.55782275 -10.734375 59.95703125 C-8.54388116 61.27428768 -7.11128665 61.40078874 -4.5625 61.375 C-3.80066406 61.38273437 -3.03882813 61.39046875 -2.25390625 61.3984375 C0.74671865 60.86799774 1.96097642 60.30124834 4 58 C4.45718128 55.15433959 4.69521446 52.66383827 4.75 49.8125 C4.77964844 49.06291016 4.80929688 48.31332031 4.83984375 47.54101562 C4.9104079 45.69458693 4.95748476 43.84728739 5 42 C5.639375 41.855625 6.27875 41.71125 6.9375 41.5625 C8.97545146 41.18992819 8.97545146 41.18992819 10 40 C10.16023562 37.11747355 10.25954029 34.25621473 10.31640625 31.37109375 C10.3475779 30.07474754 10.3475779 30.07474754 10.37937927 28.75221252 C10.44497114 25.98072555 10.50380418 23.20914079 10.5625 20.4375 C10.60567608 18.56314077 10.64929006 16.68879157 10.69335938 14.81445312 C10.80066227 10.20973664 10.90190215 5.60492142 11 1 C7.37 1 3.74 1 0 1 C0 0.67 0 0.34 0 0 Z " fill="#12497F" transform="translate(132,149)"/>
<path d="M0 0 C4.75852474 1.643854 7.19569483 3.84547383 10 8 C11.14077657 11.42232972 11.09815117 14.08673217 11.0625 17.6875 C11.05347656 18.86699219 11.04445313 20.04648438 11.03515625 21.26171875 C11.02355469 22.16535156 11.01195313 23.06898438 11 24 C12.22396484 23.87431641 12.22396484 23.87431641 13.47265625 23.74609375 C21.79120065 23.03100669 29.9679041 22.98501839 38.3125 23.3125 C39.33287354 23.34722412 40.35324707 23.38194824 41.40454102 23.41772461 C42.36030029 23.4616333 43.31605957 23.50554199 44.30078125 23.55078125 C45.15841064 23.58856689 46.01604004 23.62635254 46.8996582 23.6652832 C49 24 49 24 51 26 C50.625 28.125 50.625 28.125 50 30 C49.01 30 48.02 30 47 30 C47.05800781 31.10859375 47.11601562 32.2171875 47.17578125 33.359375 C47.22268829 34.82287452 47.26818745 36.28641963 47.3125 37.75 C47.35439453 38.47960937 47.39628906 39.20921875 47.43945312 39.9609375 C47.52676526 43.80267159 47.37420475 45.58392619 44.765625 48.484375 C42.01447318 49.99206837 40.53310917 50.54306934 37.4375 50.5 C36.69371094 50.5103125 35.94992188 50.520625 35.18359375 50.53125 C32.00849157 49.75877434 30.88759849 48.66384686 29 46 C28.7088479 43.26317029 28.61677582 40.96059961 28.75 38.25 C28.76804688 37.55261719 28.78609375 36.85523438 28.8046875 36.13671875 C28.85161446 34.42388461 28.92335395 32.71176176 29 31 C28.47921875 31.17402344 27.9584375 31.34804687 27.421875 31.52734375 C24.25920669 32.14457418 21.45492536 31.85094328 18.25 31.5625 C15.15625 31.2840625 15.15625 31.2840625 12 31 C11.67 35.29 11.34 39.58 11 44 C6.71 44 2.42 44 -2 44 C-2 38 -2 38 -0.625 36.5 C-0.08875 36.005 0.4475 35.51 1 35 C2.53048507 31.10618237 2.53048507 31.10618237 3 27 C6.465 26.505 6.465 26.505 10 26 C8.906875 25.95875 7.81375 25.9175 6.6875 25.875 C3 25 3 25 1.25 22.25 C0.8375 21.1775 0.425 20.105 0 19 C-1.38885248 16.18219466 -1.38885248 16.18219466 -3 14 C-3.99 14 -4.98 14 -6 14 C-6.33 14.99 -6.66 15.98 -7 17 C-7.845625 17.66 -8.69125 18.32 -9.5625 19 C-12.73902757 22.90957239 -12.70567745 25.49382086 -12.5078125 30.4140625 C-11.78623124 34.08857629 -9.7899235 35.62856502 -7 38 C-7 39.65 -7 41.3 -7 43 C-11.29 43 -15.58 43 -20 43 C-20.0992963 38.41021962 -20.17166748 33.82107212 -20.21972656 29.23046875 C-20.23977222 27.67078756 -20.26701657 26.11118087 -20.30175781 24.55175781 C-20.35059126 22.30254686 -20.37303815 20.0543341 -20.390625 17.8046875 C-20.41127014 17.1138205 -20.43191528 16.42295349 -20.45318604 15.71115112 C-20.45603557 9.48406911 -17.88130246 6.16634828 -13.9375 1.625 C-9.39497708 -0.88788502 -5.07418842 -0.61188743 0 0 Z " fill="#42616D" transform="translate(90,161)"/>
<path d="M0 0 C1.65 0 3.3 0 5 0 C5.16366512 13.97762269 5.28656466 27.95509639 5.3626852 41.93348122 C5.39921931 48.42425387 5.44877557 54.91438293 5.52807617 61.40478516 C5.60412562 67.66828105 5.64598894 73.93115786 5.6641407 80.1950798 C5.67707641 82.58497236 5.7023373 84.97483095 5.7401104 87.36445999 C5.79092122 90.71198011 5.79792372 94.05694156 5.79467773 97.40478516 C5.83242813 98.88724731 5.83242813 98.88724731 5.87094116 100.3996582 C5.80180569 106.98782417 5.80180569 106.98782417 3.46936226 109.9322319 C1.71350147 111.46240793 -0.03205973 112.75884094 -2 114 C-2.76183594 114.50789063 -3.52367187 115.01578125 -4.30859375 115.5390625 C-21.87301956 124.49853108 -41.45441401 125.43064086 -60.2890625 120.21875 C-65.15253084 118.62148461 -70.30255224 116.69744776 -74 113 C-74.07319621 110.30345146 -74.09242537 107.63308542 -74.0625 104.9375 C-74.05798828 104.17888672 -74.05347656 103.42027344 -74.04882812 102.63867188 C-74.0370068 100.75908129 -74.01907078 98.87953101 -74 97 C-73.50371094 97.38671875 -73.00742188 97.7734375 -72.49609375 98.171875 C-60.91049304 107.05343608 -51.62013054 109.35887597 -36.9375 109.3125 C-35.91333984 109.32861328 -34.88917969 109.34472656 -33.83398438 109.36132812 C-27.32996408 109.36548405 -22.0006936 108.5121611 -16 106 C-15.2562915 105.68877197 -14.51258301 105.37754395 -13.74633789 105.05688477 C-8.79092285 102.89885212 -6.27742603 100.24137486 -3 96 C-2.34 96 -1.68 96 -1 96 C-0.855625 95.21625 -0.71125 94.4325 -0.5625 93.625 C0 91 0 91 1 89 C1.11944476 87.2134547 1.17722318 85.42263749 1.20532227 83.63232422 C1.22526749 82.51131317 1.24521271 81.39030212 1.26576233 80.23532104 C1.28247482 79.02071198 1.29918732 77.80610291 1.31640625 76.5546875 C1.3475779 74.69446457 1.3475779 74.69446457 1.37937927 72.79666138 C1.43377705 69.49888177 1.48400095 66.2010728 1.53222656 62.90319824 C1.58245234 59.53827347 1.63813277 56.1734395 1.69335938 52.80859375 C1.80061557 46.20580146 1.90237189 39.60294128 2 33 C1.34 33 0.68 33 0 33 C0 22.11 0 11.22 0 0 Z " fill="#CEAB34" transform="translate(143,115)"/>
<path d="M0 0 C9.24 0 18.48 0 28 0 C28 1.32 28 2.64 28 4 C25.03 4.99 22.06 5.98 19 7 C19.62829712 8.24873901 19.62829712 8.24873901 20.26928711 9.52270508 C21.82330767 12.61369751 23.37551904 15.70558454 24.92651367 18.7980957 C25.59799116 20.13602393 26.27018645 21.47359215 26.94311523 22.81079102 C27.91058547 24.73359348 28.87546169 26.65767844 29.83984375 28.58203125 C30.71177368 30.31803589 30.71177368 30.31803589 31.60131836 32.08911133 C33 35 33 35 34 38 C34.99 38.495 34.99 38.495 36 39 C36.27255615 38.12819092 36.5451123 37.25638184 36.82592773 36.3581543 C37.94228945 33.16506731 39.25269349 30.28135037 40.78515625 27.26953125 C41.31560547 26.21958984 41.84605469 25.16964844 42.39257812 24.08789062 C42.94365234 23.00701172 43.49472656 21.92613281 44.0625 20.8125 C45.15932573 18.65324378 46.25445886 16.4931267 47.34765625 14.33203125 C47.83242432 13.38046143 48.31719238 12.4288916 48.81665039 11.44848633 C50.08601306 8.95545055 50.08601306 8.95545055 51 6 C48.03 5.67 45.06 5.34 42 5 C42 3.35 42 1.7 42 0 C50.58 0 59.16 0 68 0 C67.67 1.65 67.34 3.3 67 5 C64.36 5.33 61.72 5.66 59 6 C58.75523926 6.83450684 58.51047852 7.66901367 58.25830078 8.52880859 C56.82705996 12.47707828 54.94425101 15.90351956 52.8671875 19.5390625 C39.80242588 41.83976599 39.80242588 41.83976599 39 67 C41.97 67.66 44.94 68.32 48 69 C48 70.65 48 72.3 48 74 C38.76 74 29.52 74 20 74 C20 72.35 20 70.7 20 69 C24.95 68.505 24.95 68.505 30 68 C31.53573996 49.12400626 24.9576981 36.00437226 15.78393555 20.18310547 C13.72174011 16.50349631 11.95959542 12.73504811 10.29125977 8.86279297 C8.57523383 6.3872252 7.07039614 6.05106191 4.1875 5.375 C2.79618185 5.20704316 1.39981219 5.06709339 0 5 C0 3.35 0 1.7 0 0 Z " fill="#125083" transform="translate(582,161)"/>
<path d="M0 0 C9.24 0 18.48 0 28 0 C28 1.32 28 2.64 28 4 C24.7 4.66 21.4 5.32 18 6 C18 26.13 18 46.26 18 67 C26.58 67 35.16 67 44 67 C44.495 62.05 44.495 62.05 45 57 C45.495 56.01 45.495 56.01 46 55 C47.65 55 49.3 55 51 55 C51 61.27 51 67.54 51 74 C34.17 74 17.34 74 0 74 C0 72.35 0 70.7 0 69 C4.455 68.505 4.455 68.505 9 68 C9 47.54 9 27.08 9 6 C6.03 5.67 3.06 5.34 0 5 C0 3.35 0 1.7 0 0 Z " fill="#185486" transform="translate(220,161)"/>
<path d="M0 0 C12.54 0 25.08 0 38 0 C40 4 40 4 40 7 C43.04913228 8.01111093 43.04913228 8.01111093 46 7 C48.3329866 6.95977609 50.66706666 6.95679753 53 7 C52.505 5.02 52.505 5.02 52 3 C53.32 3 54.64 3 56 3 C56 2.34 56 1.68 56 1 C53.11424181 1.39803561 52.17810487 1.79009069 50.25 4.0625 C49.63125 5.0215625 49.63125 5.0215625 49 6 C49 5.34 49 4.68 49 4 C48.34 3.67 47.68 3.34 47 3 C47.99 3 48.98 3 50 3 C50 2.34 50 1.68 50 1 C48.68 0.67 47.36 0.34 46 0 C50.62 0 55.24 0 60 0 C59.01 0.33 58.02 0.66 57 1 C57.57452746 4.93075644 57.57452746 4.93075644 60 8 C59.67 8.99 59.34 9.98 59 11 C58.01 11 57.02 11 56 11 C55.67 12.32 55.34 13.64 55 15 C57.475 15.495 57.475 15.495 60 16 C60.33 15.34 60.66 14.68 61 14 C63.31 14.33 65.62 14.66 68 15 C68.33 14.34 68.66 13.68 69 13 C69.495 13.99 69.495 13.99 70 15 C71.62418745 15.08090971 73.24951745 15.13914995 74.875 15.1875 C75.77992187 15.22230469 76.68484375 15.25710937 77.6171875 15.29296875 C78.40351563 15.19628906 79.18984375 15.09960938 80 15 C80.66 14.01 81.32 13.02 82 12 C82 13.32 82 14.64 82 16 C82.66 16 83.32 16 84 16 C84.33 14.68 84.66 13.36 85 12 C85 13.32 85 14.64 85 16 C85.66 16 86.32 16 87 16 C87.33 15.01 87.66 14.02 88 13 C88.495 14.98 88.495 14.98 89 17 C72.83 17 56.66 17 40 17 C40 16.67 40 16.34 40 16 C47.625 14.875 47.625 14.875 51 16 C51 14.35 51 12.7 51 11 C50.34 11 49.68 11 49 11 C48.67 11.99 48.34 12.98 48 14 C46 14 44 14 42 14 C42 13.34 42 12.68 42 12 C42.66 12 43.32 12 44 12 C44 11.34 44 10.68 44 10 C43.401875 10.350625 42.80375 10.70125 42.1875 11.0625 C40 12 40 12 37 11 C36.67 11.66 36.34 12.32 36 13 C35.38125 12.835 34.7625 12.67 34.125 12.5 C32.03936614 11.92365356 32.03936614 11.92365356 30 12 C30 12.66 30 13.32 30 14 C30.928125 13.938125 31.85625 13.87625 32.8125 13.8125 C36 14 36 14 39 17 C29.43 17.33 19.86 17.66 10 18 C10 52.98 10 87.96 10 124 C9.34 123.67 8.68 123.34 8 123 C8 88.35 8 53.7 8 18 C5.36 18 2.72 18 0 18 C0 12.06 0 6.12 0 0 Z " fill="#235279" transform="translate(52,97)"/>
<path d="M0 0 C21.12 0 42.24 0 64 0 C64 10.89 64 21.78 64 33 C62.68 33 61.36 33 60 33 C60 26.07 60 19.14 60 12 C41.85 12 23.7 12 5 12 C5 18.93 5 25.86 5 33 C3.35 33 1.7 33 0 33 C0 22.11 0 11.22 0 0 Z " fill="#D9B22F" transform="translate(73,115)"/>
<path d="M0 0 C5.82884609 0.42270258 9.21507071 1.99109397 13.875 5.4375 C14.45507812 5.84548828 15.03515625 6.25347656 15.6328125 6.67382812 C19.84520729 9.69041458 19.84520729 9.69041458 21 12 C18.36 12 15.72 12 13 12 C13 15.3 13 18.6 13 22 C8 20 8 20 3 18 C2.34 19.32 1.68 20.64 1 22 C-2.71599191 22.20086443 -3.77208445 22.1519437 -7 20 C-9.25805594 20.45178664 -9.25805594 20.45178664 -11.5625 21.4375 C-13.94140625 22.37109375 -13.94140625 22.37109375 -16 23 C-16.66 22.67 -17.32 22.34 -18 22 C-18 21.34 -18 20.68 -18 20 C-19.24136719 20.37253906 -20.48273438 20.74507812 -21.76171875 21.12890625 C-23.40347406 21.60736065 -25.04541084 22.08519266 -26.6875 22.5625 C-27.50412109 22.80935547 -28.32074219 23.05621094 -29.16210938 23.31054688 C-36.81530304 25.51045275 -36.81530304 25.51045275 -41 24 C-41.33 23.67 -41.66 23.34 -42 23 C-42 23.99 -42 24.98 -42 26 C-43.175625 25.7525 -43.175625 25.7525 -44.375 25.5 C-46.88208039 24.9376293 -46.88208039 24.9376293 -49 25 C-50.62514468 26.45833358 -50.62514468 26.45833358 -52 28 C-52.33 27.34 -52.66 26.68 -53 26 C-56.96 26.33 -60.92 26.66 -65 27 C-65 26.34 -65 25.68 -65 25 C-65.721875 25.185625 -66.44375 25.37125 -67.1875 25.5625 C-70.12826973 26.01995307 -72.14103058 25.73516357 -75 25 C-75 23.68 -75 22.36 -75 21 C-73.68 20.67 -72.36 20.34 -71 20 C-71 20.66 -71 21.32 -71 22 C-66.31034294 23.11658501 -63.46236469 22.80619523 -59 21 C-58.34 21.66 -57.68 22.32 -57 23 C-56.01 22.01 -55.02 21.02 -54 20 C-56.64 19.67 -59.28 19.34 -62 19 C-62 18.67 -62 18.34 -62 18 C-61.1181604 17.94054199 -61.1181604 17.94054199 -60.21850586 17.87988281 C-42.11918635 16.60207615 -26.72248083 13.05164854 -10 6 C-8.33486888 5.3295072 -6.66882937 4.66123428 -5 4 C-3.35 5.65 -1.7 7.3 0 9 C0 6.03 0 3.06 0 0 Z " fill="#15497D" transform="translate(162,226)"/>
<path d="M0 0 C8.91 0 17.82 0 27 0 C26.67 1.65 26.34 3.3 26 5 C23.36 5.33 20.72 5.66 18 6 C18 26.46 18 46.92 18 68 C20.97 68.33 23.94 68.66 27 69 C27 70.65 27 72.3 27 74 C18.09 74 9.18 74 0 74 C0 72.35 0 70.7 0 69 C4.455 68.505 4.455 68.505 9 68 C9 47.54 9 27.08 9 6 C6.03 5.67 3.06 5.34 0 5 C0 3.35 0 1.7 0 0 Z " fill="#165284" transform="translate(279,161)"/>
<path d="M0 0 C1.65 0 3.3 0 5 0 C5 53.13 5 106.26 5 161 C3.35 161 1.7 161 0 161 C0 107.87 0 54.74 0 0 Z " fill="#245D8C" transform="translate(196,96)"/>
<path d="M0 0 C2.64 0 5.28 0 8 0 C8.0928588 11.70942161 8.16384566 23.41875498 8.20724869 35.12847042 C8.22808459 40.5663298 8.25632928 46.00393644 8.30175781 51.44165039 C8.34535798 56.69363945 8.36916715 61.94538606 8.37950897 67.19754219 C8.38687492 69.19693376 8.4012588 71.19631271 8.42292023 73.19560051 C8.4521426 76.00560607 8.45594816 78.81462175 8.45410156 81.62475586 C8.47567322 82.85259544 8.47567322 82.85259544 8.49768066 84.10523987 C8.43684044 92.71413097 5.32683739 98.34145326 0 105 C0 70.35 0 35.7 0 0 Z " fill="#D8B02D" transform="translate(150,115)"/>
<path d="M0 0 C2.64 0 5.28 0 8 0 C8 34.32 8 68.64 8 104 C2.11776061 98.11776061 -0.43880992 92.43544992 -0.49768066 84.10523987 C-0.48329956 83.28668015 -0.46891846 82.46812042 -0.45410156 81.62475586 C-0.45468567 80.7358667 -0.45526978 79.84697754 -0.45587158 78.93115234 C-0.45310938 76.02530342 -0.42210666 73.120511 -0.390625 70.21484375 C-0.38315596 68.18747009 -0.37746616 66.16008917 -0.37347412 64.13270569 C-0.35827003 58.82088969 -0.31903349 53.50951769 -0.2746582 48.19787598 C-0.23359243 42.76804611 -0.21543903 37.33814384 -0.1953125 31.90820312 C-0.15253398 21.27194135 -0.08434635 10.63600773 0 0 Z " fill="#D8B02D" transform="translate(52,115)"/>
<path d="M0 0 C2.805 -0.0825 5.61 -0.165 8.5 -0.25 C9.8003418 -0.30462402 9.8003418 -0.30462402 11.12695312 -0.36035156 C16.84141254 -0.44065448 21.28645338 0.66266616 26 4 C29.05056084 8.28985119 29.55666413 11.80446811 29 17 C27.25615027 21.68085979 25.18025185 24.27797554 21 27 C16.32303358 28.92540807 12.11402038 29.24969792 7.125 29.125 C4.77375 29.08375 2.4225 29.0425 0 29 C0 19.43 0 9.86 0 0 Z " fill="#F7F9FA" transform="translate(541,167)"/>
<path d="M0 0 C2.805 -0.0825 5.61 -0.165 8.5 -0.25 C9.8003418 -0.30462402 9.8003418 -0.30462402 11.12695312 -0.36035156 C16.84141254 -0.44065448 21.28645338 0.66266616 26 4 C29.05056084 8.28985119 29.55666413 11.80446811 29 17 C26.95528722 22.48843957 24.03532167 25.44087302 18.85546875 28.1015625 C15.11147008 29.27956482 11.56386137 29.21436628 7.6875 29.125 C3.8821875 29.063125 3.8821875 29.063125 0 29 C0 19.43 0 9.86 0 0 Z " fill="#F7F9FB" transform="translate(400,167)"/>
<path d="M0 0 C2.805 -0.0825 5.61 -0.165 8.5 -0.25 C9.8003418 -0.30462402 9.8003418 -0.30462402 11.12695312 -0.36035156 C17.8507901 -0.45483885 23.05054702 1.17929298 27.96875 5.8828125 C30.13059291 10.32114151 29.68433139 15.21607587 29 20 C27.43202939 23.38113828 25.21893171 25.32589383 21.9375 27.140625 C17.67589068 28.38737241 13.59919785 28.20987645 9.1875 28.125 C6.155625 28.08375 3.12375 28.0425 0 28 C0 18.76 0 9.52 0 0 Z " fill="#FCFDFD" transform="translate(335,200)"/>
<path d="M0 0 C4.77398412 1.64919451 7.3110294 3.74293497 10 8 C10.47347708 10.95751624 10.38012133 13.82721644 10.25 16.8125 C10.23195313 17.60076172 10.21390625 18.38902344 10.1953125 19.20117188 C10.14844048 21.13464261 10.0767041 23.06748285 10 25 C7.69 25 5.38 25 3 25 C2.566875 24.113125 2.13375 23.22625 1.6875 22.3125 C-0.45787515 18.03655375 -0.45787515 18.03655375 -3 14 C-3.99 14 -4.98 14 -6 14 C-6.33 14.99 -6.66 15.98 -7 17 C-7.845625 17.66 -8.69125 18.32 -9.5625 19 C-12.73902757 22.90957239 -12.70567745 25.49382086 -12.5078125 30.4140625 C-11.78623124 34.08857629 -9.7899235 35.62856502 -7 38 C-7 39.65 -7 41.3 -7 43 C-11.29 43 -15.58 43 -20 43 C-20.0992963 38.41021962 -20.17166748 33.82107212 -20.21972656 29.23046875 C-20.23977222 27.67078756 -20.26701657 26.11118087 -20.30175781 24.55175781 C-20.35059126 22.30254686 -20.37303815 20.0543341 -20.390625 17.8046875 C-20.41127014 17.1138205 -20.43191528 16.42295349 -20.45318604 15.71115112 C-20.45603557 9.48406911 -17.88130246 6.16634828 -13.9375 1.625 C-9.39497708 -0.88788502 -5.07418842 -0.61188743 0 0 Z " fill="#D5AF31" transform="translate(90,161)"/>
<path d="M0 0 C2.495625 -0.061875 4.99125 -0.12375 7.5625 -0.1875 C8.33408447 -0.21481201 9.10566895 -0.24212402 9.90063477 -0.27026367 C15.00832175 -0.33079826 18.47509177 0.5961425 23 3 C25.8694861 6.23736893 26.9003512 8.20280958 27.4375 12.5 C26.85456365 17.16349077 25.60031568 20.45486762 22.1875 23.75 C15.00924067 27.85186247 8.04632875 27.15181752 0 27 C0 18.09 0 9.18 0 0 Z " fill="#FBFCFC" transform="translate(335,167)"/>
<path d="M0 0 C1.65 0 3.3 0 5 0 C5 10.89 5 21.78 5 33 C6.65 33 8.3 33 10 33 C10 26.07 10 19.14 10 12 C28.15 12 46.3 12 65 12 C65 18.93 65 25.86 65 33 C66.32 33 67.64 33 69 33 C69 22.11 69 11.22 69 0 C70.98 0 72.96 0 75 0 C75 10.89 75 21.78 75 33 C75.66 33 76.32 33 77 33 C77 51.48 77 69.96 77 89 C76.67 89 76.34 89 76 89 C76 70.85 76 52.7 76 34 C72.04 34 68.08 34 64 34 C64 27.07 64 20.14 64 13 C46.51 13 29.02 13 11 13 C11 19.93 11 26.86 11 34 C6.71 34 2.42 34 -2 34 C-1.01 33.505 -1.01 33.505 0 33 C0 22.11 0 11.22 0 0 Z " fill="#988E4B" transform="translate(68,115)"/>
<path d="M0 0 C0.66 0 1.32 0 2 0 C3.57409702 4.76643886 5.14044795 9.53532713 6.69970703 14.30664062 C7.23111774 15.92908065 7.76463036 17.5508338 8.30029297 19.171875 C9.07033412 21.50342818 9.83275698 23.83735533 10.59375 26.171875 C10.83436157 26.89493835 11.07497314 27.61800171 11.32287598 28.36297607 C12.43064345 31.78546492 13 34.3607079 13 38 C4.42 38 -4.16 38 -13 38 C-11.26055588 32.20185294 -9.55955504 26.56811402 -7.51953125 20.8984375 C-7.07802734 19.66738281 -6.63652344 18.43632812 -6.18164062 17.16796875 C-5.7253177 15.90362516 -5.26893682 14.63930248 -4.8125 13.375 C-4.34416219 12.07170039 -3.87606163 10.7683155 -3.40820312 9.46484375 C-2.27445598 6.30905273 -1.1383377 3.1541374 0 0 Z " fill="#F2F5F8" transform="translate(483,170)"/>
<path d="M0 0 C7.6080486 0.95780869 15.07526536 2.61248826 22.57617188 4.18359375 C29.04214833 5.50733696 35.41669348 6.505306 42 7 C41.360625 7.268125 40.72125 7.53625 40.0625 7.8125 C37.66868314 8.88667752 37.66868314 8.88667752 37 12 C36.01 11.34 35.02 10.68 34 10 C33.05125 10.33 32.1025 10.66 31.125 11 C28 12 28 12 25.125 11.125 C24.42375 10.75375 23.7225 10.3825 23 10 C23 9.34 23 8.68 23 8 C21.02 8.99 21.02 8.99 19 10 C19.33 10.99 19.66 11.98 20 13 C22.01508358 13.73323796 22.01508358 13.73323796 24 14 C24.33 13.34 24.66 12.68 25 12 C25 12.66 25 13.32 25 14 C26.32 13.67 27.64 13.34 29 13 C29 13.66 29 14.32 29 15 C30.19625 14.67 31.3925 14.34 32.625 14 C36.15791497 13.10734177 39.34079109 12.81703955 43 13 C43 13.66 43 14.32 43 15 C43.99 13.02 44.98 11.04 46 9 C46.2475 9.639375 46.495 10.27875 46.75 10.9375 C47.81562433 13.18741541 47.81562433 13.18741541 50.125 13.75 C50.74375 13.8325 51.3625 13.915 52 14 C51.505 11.525 51.505 11.525 51 9 C51.66 8.67 52.32 8.34 53 8 C53.495 9.98 53.495 9.98 54 12 C59.94327535 11.5207036 65.17551041 10.49891797 70.8359375 8.62109375 C73 8 73 8 76 8 C76 8.66 76 9.32 76 10 C76.99 10.495 76.99 10.495 78 11 C70.2144414 14.5339978 62.387513 16.43976358 54 18 C53.09121094 18.18820312 52.18242188 18.37640625 51.24609375 18.5703125 C46.59872902 19.18548713 41.99576099 19.19145112 37.3125 19.1875 C36.33240967 19.18669434 35.35231934 19.18588867 34.3425293 19.18505859 C18.07058637 19.04705758 18.07058637 19.04705758 12 15 C13.32 14.34 14.64 13.68 16 13 C15.67 11.68 15.34 10.36 15 9 C14.01 9 13.02 9 12 9 C12 8.34 12 7.68 12 7 C11.30132812 6.93941406 10.60265625 6.87882813 9.8828125 6.81640625 C8.97273438 6.73261719 8.06265625 6.64882812 7.125 6.5625 C6.22007813 6.48128906 5.31515625 6.40007812 4.3828125 6.31640625 C2 6 2 6 0 5 C0 3.35 0 1.7 0 0 Z " fill="#12477E" transform="translate(68,238)"/>
<path d="M0 0 C35.31 0 70.62 0 107 0 C107 6.27 107 12.54 107 19 C104.03 19 101.06 19 98 19 C98 53.98 98 88.96 98 125 C97.01 125.495 97.01 125.495 96 126 C96 90.69 96 55.38 96 19 C94.02 19 92.04 19 90 19 C90 18.67 90 18.34 90 18 C95.28 18 100.56 18 106 18 C106 12.39 106 6.78 106 1 C87.52 1.33 69.04 1.66 50 2 C50 2.99 50 3.98 50 5 C50.66 4.01 51.32 3.02 52 2 C53.32 2 54.64 2 56 2 C56 2.66 56 3.32 56 4 C54.68 4 53.36 4 52 4 C52.75150023 7.27773504 52.75150023 7.27773504 56 9 C50 9 44 9 38 9 C38.185625 8.030625 38.37125 7.06125 38.5625 6.0625 C38.706875 5.051875 38.85125 4.04125 39 3 C36.91795642 0.91795642 32.4661444 1.74178708 29.58984375 1.68359375 C28.74780899 1.66281265 27.90577423 1.64203156 27.03822327 1.62062073 C24.33806821 1.55503188 21.63781283 1.49619724 18.9375 1.4375 C17.11131759 1.39432363 15.28514546 1.35070964 13.45898438 1.30664062 C8.97276008 1.19934106 4.4864345 1.09810034 0 1 C0 0.67 0 0.34 0 0 Z " fill="#46636C" transform="translate(52,96)"/>
<path d="M0 0 C1.65 0 3.3 0 5 0 C5.11680264 14.01226472 5.20464042 28.02445396 5.25906086 42.03710556 C5.28517731 48.54346324 5.3206139 55.04949435 5.37719727 61.55566406 C5.43144223 67.83208688 5.4614051 74.10819519 5.47438622 80.38483429 C5.48363948 82.78191328 5.50170857 85.17897466 5.52865028 87.5759201 C5.56483919 90.92827326 5.56994939 94.27931954 5.56762695 97.63183594 C5.58560333 98.62733459 5.60357971 99.62283325 5.62210083 100.64849854 C5.57131685 107.40332606 5.57131685 107.40332606 2.46452332 110.64801025 C1.65123062 111.09416687 0.83793793 111.54032349 0 112 C-0.02894547 108.54168414 -0.04678 105.08339928 -0.0625 101.625 C-0.07087891 100.64015625 -0.07925781 99.6553125 -0.08789062 98.640625 C-0.09111328 97.69960937 -0.09433594 96.75859375 -0.09765625 95.7890625 C-0.10289307 94.91975098 -0.10812988 94.05043945 -0.11352539 93.15478516 C0 91 0 91 1 89 C1.11944476 87.2134547 1.17722318 85.42263749 1.20532227 83.63232422 C1.22526749 82.51131317 1.24521271 81.39030212 1.26576233 80.23532104 C1.28247482 79.02071198 1.29918732 77.80610291 1.31640625 76.5546875 C1.33718735 75.31453888 1.35796844 74.07439026 1.37937927 72.79666138 C1.43377705 69.49888177 1.48400095 66.2010728 1.53222656 62.90319824 C1.58245234 59.53827347 1.63813277 56.1734395 1.69335938 52.80859375 C1.80061557 46.20580146 1.90237189 39.60294128 2 33 C1.34 33 0.68 33 0 33 C0 22.11 0 11.22 0 0 Z " fill="#E5B82A" transform="translate(143,115)"/>
<path d="M0 0 C5.28 0 10.56 0 16 0 C16 0.66 16 1.32 16 2 C15.34 2 14.68 2 14 2 C14.2165625 2.68707031 14.433125 3.37414062 14.65625 4.08203125 C14.9346875 4.98308594 15.213125 5.88414063 15.5 6.8125 C15.7784375 7.70582031 16.056875 8.59914063 16.34375 9.51953125 C17 12 17 12 17 15 C17.66 15 18.32 15 19 15 C19.13277344 14.39671875 19.26554688 13.7934375 19.40234375 13.171875 C19.57894531 12.37265625 19.75554688 11.5734375 19.9375 10.75 C20.19853516 9.56664063 20.19853516 9.56664063 20.46484375 8.359375 C20.947556 6.23121297 21.46163178 4.11467158 22 2 C21.34 2 20.68 2 20 2 C20 1.34 20 0.68 20 0 C27.59 0 35.18 0 43 0 C43 1.65 43 3.3 43 5 C42.01 5 41.02 5 40 5 C40 4.01 40 3.02 40 2 C37.69 2 35.38 2 33 2 C33 4.31 33 6.62 33 9 C35.31 9 37.62 9 40 9 C40 9.66 40 10.32 40 11 C37.69 11 35.38 11 33 11 C33 13.31 33 15.62 33 18 C35.64 18 38.28 18 41 18 C41 17.01 41 16.02 41 15 C41.66 15 42.32 15 43 15 C43 16.65 43 18.3 43 20 C38.05 20 33.1 20 28 20 C28 19.34 28 18.68 28 18 C28.66 18 29.32 18 30 18 C30 12.72 30 7.44 30 2 C28.68 2.33 27.36 2.66 26 3 C24.82088384 5.68838484 23.871112 8.21435613 23 11 C22.128888 13.78564387 21.17911616 16.31161516 20 19 C17.90234375 19.72265625 17.90234375 19.72265625 16 20 C15.62488281 18.78441406 15.24976563 17.56882813 14.86328125 16.31640625 C14.34745479 14.73141222 13.83046719 13.14679574 13.3125 11.5625 C13.06822266 10.76005859 12.82394531 9.95761719 12.57226562 9.13085938 C12.31767578 8.36708984 12.06308594 7.60332031 11.80078125 6.81640625 C11.57559814 6.10943604 11.35041504 5.40246582 11.1184082 4.67407227 C9.85693898 2.35915993 9.85693898 2.35915993 5 2 C5 7.28 5 12.56 5 18 C5.99 18 6.98 18 8 18 C8 18.66 8 19.32 8 20 C5.36 20 2.72 20 0 20 C0 19.34 0 18.68 0 18 C0.66 18 1.32 18 2 18 C2 12.72 2 7.44 2 2 C1.34 2 0.68 2 0 2 C0 1.34 0 0.68 0 0 Z " fill="#215B8A" transform="translate(527,118)"/>
<path d="M0 0 C1.8125 0.1875 1.8125 0.1875 4 1 C5.625 3.375 5.625 3.375 7 6 C7.99 7.485 7.99 7.485 9 9 C9 9.99 9 10.98 9 12 C11.31 12 13.62 12 16 12 C16.33 12.66 16.66 13.32 17 14 C14.36 14 11.72 14 9 14 C9.33 14.99 9.66 15.98 10 17 C8.63817703 20.17758693 7.45140787 22.54859213 5 25 C4.35232207 27.57061311 4.35232207 27.57061311 4 30 C3.01 29.01 2.02 28.02 1 27 C0.34 27.99 -0.32 28.98 -1 30 C-1 28.35 -1 26.7 -1 25 C-1.61875 24.731875 -2.2375 24.46375 -2.875 24.1875 C-5 23 -5 23 -7 20 C-7.69265757 14.79701407 -7.81577957 10.38682527 -5.125 5.8125 C-3 4 -3 4 -1 4 C-0.67 2.68 -0.34 1.36 0 0 Z " fill="#154A7F" transform="translate(84,174)"/>
<path d="M0 0 C1.7492214 -0.08142927 3.49954542 -0.13938541 5.25 -0.1875 C6.22453125 -0.22230469 7.1990625 -0.25710937 8.203125 -0.29296875 C11.41195331 0.04315153 12.73476214 0.73476214 15 3 C15.25 5.6875 15.25 5.6875 15 8 C13.02 8.99 13.02 8.99 11 10 C13.18379731 14.93190637 13.18379731 14.93190637 17.25 17.9375 C17.8275 17.958125 18.405 17.97875 19 18 C19.33 16.35 19.66 14.7 20 13 C23.69418201 11.768606 26.2056261 12.35567236 30 13 C29.01 10.69 28.02 8.38 27 6 C26.01 6 25.02 6 24 6 C24.33 4.35 24.66 2.7 25 1 C26.32 1 27.64 1 29 1 C29.40992188 2.14339844 29.81984375 3.28679687 30.2421875 4.46484375 C30.78608252 5.95586631 31.33037389 7.44674433 31.875 8.9375 C32.14441406 9.69224609 32.41382813 10.44699219 32.69140625 11.22460938 C33.91619414 15.35097092 33.91619414 15.35097092 37 18 C37 18.66 37 19.32 37 20 C34.36 20 31.72 20 29 20 C29 19.34 29 18.68 29 18 C29.66 18 30.32 18 31 18 C31 17.01 31 16.02 31 15 C28.03 15 25.06 15 22 15 C22 15.99 22 16.98 22 18 C22.66 18 23.32 18 24 18 C24 18.66 24 19.32 24 20 C20.37 20 16.74 20 13 20 C12.4225 18.865625 11.845 17.73125 11.25 16.5625 C9.64507365 13.62689703 9.64507365 13.62689703 6.75 12.0625 C6.1725 12.041875 5.595 12.02125 5 12 C5 13.98 5 15.96 5 18 C5.99 18 6.98 18 8 18 C8 18.66 8 19.32 8 20 C5.36 20 2.72 20 0 20 C0 19.34 0 18.68 0 18 C0.66 18 1.32 18 2 18 C2 12.72 2 7.44 2 2 C1.34 2 0.68 2 0 2 C0 1.34 0 0.68 0 0 Z " fill="#29618E" transform="translate(277,118)"/>
<path d="M0 0 C0.22786458 1.98567708 0.45572917 3.97135417 0.68359375 5.95703125 C0.97170735 8.19396393 0.97170735 8.19396393 2 11 C1.67 11.66 1.34 12.32 1 13 C1.99 13.33 2.98 13.66 4 14 C3.67 15.32 3.34 16.64 3 18 C2.67 17.34 2.34 16.68 2 16 C1.34 16 0.68 16 0 16 C0 16.66 0 17.32 0 18 C-0.66 18 -1.32 18 -2 18 C-2.33 18.66 -2.66 19.32 -3 20 C-3 19.34 -3 18.68 -3 18 C-4.093125 18.474375 -5.18625 18.94875 -6.3125 19.4375 C-8.53476255 20.40187809 -10.69500485 21.23166828 -13 22 C-13 18.7 -13 15.4 -13 12 C-15.64 12 -18.28 12 -21 12 C-15.47484737 5.94015518 -8.46353445 -0.22272459 0 0 Z " fill="#174B7B" transform="translate(49,226)"/>
<path d="M0 0 C0.99 0 1.98 0 3 0 C4.00399524 2.62353518 5.00334445 5.24867795 6 7.875 C6.28617187 8.62136719 6.57234375 9.36773437 6.8671875 10.13671875 C9 15.7734375 9 15.7734375 9 18 C10.65 18 12.3 18 14 18 C14 12.72 14 7.44 14 2 C13.01 2 12.02 2 11 2 C11 1.34 11 0.68 11 0 C13.97 0 16.94 0 20 0 C20 0.66 20 1.32 20 2 C19.01 2 18.02 2 17 2 C17 7.28 17 12.56 17 18 C18.98 18 20.96 18 23 18 C23 17.01 23 16.02 23 15 C23.66 15 24.32 15 25 15 C25 16.65 25 18.3 25 20 C18.07 20 11.14 20 4 20 C4 19.34 4 18.68 4 18 C4.66 18 5.32 18 6 18 C5.67 17.34 5.34 16.68 5 16 C2.36 16 -0.28 16 -3 16 C-3.33 16.66 -3.66 17.32 -4 18 C-3.34 18 -2.68 18 -2 18 C-2 18.66 -2 19.32 -2 20 C-4.31 20 -6.62 20 -9 20 C-9 19.34 -9 18.68 -9 18 C-8.55914062 17.61070312 -8.11828125 17.22140625 -7.6640625 16.8203125 C-5.28529373 14.21818516 -4.45157016 11.16451993 -3.375 7.875 C-1.10472973 1.10472973 -1.10472973 1.10472973 0 0 Z " fill="#125083" transform="translate(451,118)"/>
<path d="M0 0 C1.65 0 3.3 0 5 0 C5 10.89 5 21.78 5 33 C6.65 33 8.3 33 10 33 C10 26.07 10 19.14 10 12 C27.82 12 45.64 12 64 12 C64 12.33 64 12.66 64 13 C46.51 13 29.02 13 11 13 C11 19.93 11 26.86 11 34 C6.71 34 2.42 34 -2 34 C-1.01 33.505 -1.01 33.505 0 33 C0 22.11 0 11.22 0 0 Z " fill="#8B8750" transform="translate(68,115)"/>
<path d="M0 0 C0.91644287 0.00523682 1.83288574 0.01047363 2.77709961 0.01586914 C3.76645508 0.0190918 4.75581055 0.02231445 5.77514648 0.02563477 C6.81606445 0.03401367 7.85698242 0.04239258 8.92944336 0.05102539 C10.49662109 0.05779297 10.49662109 0.05779297 12.09545898 0.06469727 C14.68600996 0.07652627 17.27644895 0.0930085 19.86694336 0.11352539 C19.86694336 0.77352539 19.86694336 1.43352539 19.86694336 2.11352539 C19.20694336 2.11352539 18.54694336 2.11352539 17.86694336 2.11352539 C18.36194336 2.87665039 18.85694336 3.63977539 19.36694336 4.42602539 C20.86694336 7.11352539 20.86694336 7.11352539 20.86694336 10.11352539 C21.52694336 10.11352539 22.18694336 10.11352539 22.86694336 10.11352539 C22.99069336 9.35040039 23.11444336 8.58727539 23.24194336 7.80102539 C23.86694336 5.11352539 23.86694336 5.11352539 25.86694336 2.11352539 C24.87694336 2.11352539 23.88694336 2.11352539 22.86694336 2.11352539 C22.86694336 1.45352539 22.86694336 0.79352539 22.86694336 0.11352539 C25.50694336 0.11352539 28.14694336 0.11352539 30.86694336 0.11352539 C30.86694336 0.77352539 30.86694336 1.43352539 30.86694336 2.11352539 C30.24819336 2.70133789 30.24819336 2.70133789 29.61694336 3.30102539 C25.45763883 7.60887651 23.44257053 12.21334689 22.86694336 18.11352539 C23.85694336 18.11352539 24.84694336 18.11352539 25.86694336 18.11352539 C25.86694336 18.77352539 25.86694336 19.43352539 25.86694336 20.11352539 C23.22694336 20.11352539 20.58694336 20.11352539 17.86694336 20.11352539 C17.86694336 19.45352539 17.86694336 18.79352539 17.86694336 18.11352539 C18.52694336 18.11352539 19.18694336 18.11352539 19.86694336 18.11352539 C18.84572099 12.70705404 17.73530273 7.89412434 14.86694336 3.11352539 C14.20694336 2.78352539 13.54694336 2.45352539 12.86694336 2.11352539 C12.86694336 3.10352539 12.86694336 4.09352539 12.86694336 5.11352539 C12.20694336 5.11352539 11.54694336 5.11352539 10.86694336 5.11352539 C10.53694336 4.45352539 10.20694336 3.79352539 9.86694336 3.11352539 C8.87694336 2.78352539 7.88694336 2.45352539 6.86694336 2.11352539 C6.86694336 7.39352539 6.86694336 12.67352539 6.86694336 18.11352539 C7.52694336 18.11352539 8.18694336 18.11352539 8.86694336 18.11352539 C8.86694336 18.77352539 8.86694336 19.43352539 8.86694336 20.11352539 C6.22694336 20.11352539 3.58694336 20.11352539 0.86694336 20.11352539 C0.86694336 19.45352539 0.86694336 18.79352539 0.86694336 18.11352539 C1.85694336 18.11352539 2.84694336 18.11352539 3.86694336 18.11352539 C3.86694336 12.83352539 3.86694336 7.55352539 3.86694336 2.11352539 C2.54694336 2.44352539 1.22694336 2.77352539 -0.13305664 3.11352539 C-0.46305664 4.10352539 -0.79305664 5.09352539 -1.13305664 6.11352539 C-1.79305664 6.11352539 -2.45305664 6.11352539 -3.13305664 6.11352539 C-3.17577764 4.44740634 -3.17369496 2.77969654 -3.13305664 1.11352539 C-2.13305664 0.11352539 -2.13305664 0.11352539 0 0 Z " fill="#1F5989" transform="translate(619.133056640625,117.886474609375)"/>
<path d="M0 0 C4.62 0 9.24 0 14 0 C13.01 0.33 12.02 0.66 11 1 C11.57452746 4.93075644 11.57452746 4.93075644 14 8 C13.67 8.99 13.34 9.98 13 11 C12.01 11 11.02 11 10 11 C9.67 12.32 9.34 13.64 9 15 C11.475 15.495 11.475 15.495 14 16 C14.33 15.34 14.66 14.68 15 14 C17.31 14.33 19.62 14.66 22 15 C22.33 14.34 22.66 13.68 23 13 C23.495 13.99 23.495 13.99 24 15 C25.62418745 15.08090971 27.24951745 15.13914995 28.875 15.1875 C29.77992187 15.22230469 30.68484375 15.25710937 31.6171875 15.29296875 C32.40351563 15.19628906 33.18984375 15.09960938 34 15 C34.66 14.01 35.32 13.02 36 12 C36 13.32 36 14.64 36 16 C36.66 16 37.32 16 38 16 C38.33 14.68 38.66 13.36 39 12 C39 13.32 39 14.64 39 16 C39.66 16 40.32 16 41 16 C41.33 15.01 41.66 14.02 42 13 C42.495 14.98 42.495 14.98 43 17 C26.83 17 10.66 17 -6 17 C-6 16.67 -6 16.34 -6 16 C1.625 14.875 1.625 14.875 5 16 C5 14.35 5 12.7 5 11 C4.34 11 3.68 11 3 11 C2.67 11.99 2.34 12.98 2 14 C0 14 -2 14 -4 14 C-4 13.34 -4 12.68 -4 12 C-3.34 12 -2.68 12 -2 12 C-2 11.34 -2 10.68 -2 10 C-3.98 10.99 -3.98 10.99 -6 12 C-6 11.34 -6 10.68 -6 10 C-7.32 10 -8.64 10 -10 10 C-9.67 9.34 -9.34 8.68 -9 8 C-3.64973898 6.83689978 1.5479787 7 7 7 C6.67 5.68 6.34 4.36 6 3 C7.32 3 8.64 3 10 3 C10 2.34 10 1.68 10 1 C7.11424181 1.39803561 6.17810487 1.79009069 4.25 4.0625 C3.8375 4.701875 3.425 5.34125 3 6 C3 5.34 3 4.68 3 4 C2.34 3.67 1.68 3.34 1 3 C1.99 3 2.98 3 4 3 C4 2.34 4 1.68 4 1 C2.68 0.67 1.36 0.34 0 0 Z " fill="#0E4384" transform="translate(98,97)"/>
<path d="M0 0 C35.31 0 70.62 0 107 0 C107 6.27 107 12.54 107 19 C106.67 19 106.34 19 106 19 C106 13.06 106 7.12 106 1 C87.52 1.33 69.04 1.66 50 2 C50 2.99 50 3.98 50 5 C50.66 4.01 51.32 3.02 52 2 C53.32 2 54.64 2 56 2 C56 2.66 56 3.32 56 4 C54.68 4 53.36 4 52 4 C52.75150023 7.27773504 52.75150023 7.27773504 56 9 C50 9 44 9 38 9 C38.185625 8.030625 38.37125 7.06125 38.5625 6.0625 C38.706875 5.051875 38.85125 4.04125 39 3 C36.91795642 0.91795642 32.4661444 1.74178708 29.58984375 1.68359375 C28.74780899 1.66281265 27.90577423 1.64203156 27.03822327 1.62062073 C24.33806821 1.55503188 21.63781283 1.49619724 18.9375 1.4375 C17.11131759 1.39432363 15.28514546 1.35070964 13.45898438 1.30664062 C8.97276008 1.19934106 4.4864345 1.09810034 0 1 C0 0.67 0 0.34 0 0 Z " fill="#437299" transform="translate(52,96)"/>
<path d="M0 0 C5.82884609 0.42270258 9.21507071 1.99109397 13.875 5.4375 C14.45507812 5.84548828 15.03515625 6.25347656 15.6328125 6.67382812 C19.84520729 9.69041458 19.84520729 9.69041458 21 12 C18.36 12 15.72 12 13 12 C13 15.3 13 18.6 13 22 C9.89656201 20.79310745 6.98806107 19.49403054 4 18 C4 14.7 4 11.4 4 8 C2.68 8 1.36 8 0 8 C0 5.36 0 2.72 0 0 Z " fill="#1B4D7D" transform="translate(162,226)"/>
<path d="M0 0 C1.91595968 -0.08133791 3.83291932 -0.13934367 5.75 -0.1875 C7.35101562 -0.23970703 7.35101562 -0.23970703 8.984375 -0.29296875 C12.32860393 0.03192396 13.66540011 0.62050396 16 3 C16.25 5.6875 16.25 5.6875 16 8 C14.02 8.99 14.02 8.99 12 10 C12.61875 11.134375 13.2375 12.26875 13.875 13.4375 C14.22304688 14.07558594 14.57109375 14.71367187 14.9296875 15.37109375 C15.91410024 17.16618315 15.91410024 17.16618315 18 18 C18 18.66 18 19.32 18 20 C16.35 20 14.7 20 13 20 C12.5875 18.865625 12.175 17.73125 11.75 16.5625 C10.43314602 12.90456616 10.43314602 12.90456616 7.8125 12.0625 C7.214375 12.041875 6.61625 12.02125 6 12 C6 13.98 6 15.96 6 18 C6.99 18 7.98 18 9 18 C9 18.66 9 19.32 9 20 C6.36 20 3.72 20 1 20 C1 19.34 1 18.68 1 18 C1.66 18 2.32 18 3 18 C3 12.72 3 7.44 3 2 C2.01 2 1.02 2 0 2 C0 1.34 0 0.68 0 0 Z " fill="#40719A" transform="translate(572,118)"/>
<path d="M0 0 C6.6 0 13.2 0 20 0 C20 0.99 20 1.98 20 3 C17.69 3 15.38 3 13 3 C13 8.28 13 13.56 13 19 C10.36 19 7.72 19 5 19 C4 18 4 18 3.90234375 14.62109375 C3.90901631 13.22652923 3.92097468 11.83198257 3.9375 10.4375 C3.94201172 9.72658203 3.94652344 9.01566406 3.95117188 8.28320312 C3.96299136 6.52209987 3.98092737 4.76103964 4 3 C2.68 3 1.36 3 0 3 C0 2.01 0 1.02 0 0 Z " fill="#395D71" transform="translate(119,187)"/>
<path d="M0 0 C2.7265625 -0.40625 2.7265625 -0.40625 6 0 C7.81896996 2.21439822 9.05036585 4.02082091 10.375 6.5 C10.72949219 7.12003906 11.08398438 7.74007812 11.44921875 8.37890625 C12.31961604 9.90798257 13.16255124 11.45263275 14 13 C14.33 9.37 14.66 5.74 15 2 C14.34 2 13.68 2 13 2 C13 1.34 13 0.68 13 0 C15.31 0 17.62 0 20 0 C20 0.66 20 1.32 20 2 C19.34 2 18.68 2 18 2 C18 7.94 18 13.88 18 20 C16.68 20 15.36 20 14 20 C12.37227202 17.83761684 11.06336197 15.83973003 9.75 13.5 C9.20472656 12.56994141 9.20472656 12.56994141 8.6484375 11.62109375 C7.75239409 10.08838792 6.87444253 8.54513146 6 7 C5.67 10.63 5.34 14.26 5 18 C5.66 18 6.32 18 7 18 C7 18.66 7 19.32 7 20 C4.69 20 2.38 20 0 20 C0 19.34 0 18.68 0 18 C0.66 18 1.32 18 2 18 C2 12.72 2 7.44 2 2 C1.34 2 0.68 2 0 2 C0 1.34 0 0.68 0 0 Z " fill="#2F6592" transform="translate(505,118)"/>
<path d="M0 0 C2.7265625 -0.40625 2.7265625 -0.40625 6 0 C7.81896996 2.21439822 9.05036585 4.02082091 10.375 6.5 C10.72949219 7.12003906 11.08398438 7.74007812 11.44921875 8.37890625 C12.31961604 9.90798257 13.16255124 11.45263275 14 13 C14.33 9.37 14.66 5.74 15 2 C14.34 2 13.68 2 13 2 C13 1.34 13 0.68 13 0 C15.31 0 17.62 0 20 0 C20 0.66 20 1.32 20 2 C19.34 2 18.68 2 18 2 C18 7.94 18 13.88 18 20 C12.95425077 18.73856269 12.46529723 17.23672061 9.75 12.9375 C9.04359375 11.83277344 8.3371875 10.72804687 7.609375 9.58984375 C7.07828125 8.73519531 6.5471875 7.88054687 6 7 C5.67 10.63 5.34 14.26 5 18 C5.66 18 6.32 18 7 18 C7 18.66 7 19.32 7 20 C4.69 20 2.38 20 0 20 C0 19.34 0 18.68 0 18 C0.66 18 1.32 18 2 18 C2 12.72 2 7.44 2 2 C1.34 2 0.68 2 0 2 C0 1.34 0 0.68 0 0 Z " fill="#275F8D" transform="translate(394,118)"/>
<path d="M0 0 C1.24191832 0.62095916 2.4737266 1.26318144 3.6875 1.9375 C8.56740123 4.17961678 13.71081023 5.22597223 19 6 C19 6.66 19 7.32 19 8 C19.99 8 20.98 8 22 8 C22.66 9.65 23.32 11.3 24 13 C17.63976067 15.57824467 13.8482302 14.50557469 7.5625 12.125 C6.73556641 11.82980469 5.90863281 11.53460938 5.05664062 11.23046875 C3.03134397 10.50463989 1.01471006 9.75471678 -1 9 C-1.125 2.25 -1.125 2.25 0 0 Z " fill="#214F7C" transform="translate(61,239)"/>
<path d="M0 0 C2.64 0 5.28 0 8 0 C8 0.66 8 1.32 8 2 C7.34 2 6.68 2 6 2 C6 4.31 6 6.62 6 9 C8.97 9 11.94 9 15 9 C15 6.69 15 4.38 15 2 C14.34 2 13.68 2 13 2 C13 1.34 13 0.68 13 0 C15.64 0 18.28 0 21 0 C21 0.66 21 1.32 21 2 C20.01 2 19.02 2 18 2 C18 7.28 18 12.56 18 18 C18.99 18 19.98 18 21 18 C21 18.66 21 19.32 21 20 C18.36 20 15.72 20 13 20 C13 19.34 13 18.68 13 18 C13.66 18 14.32 18 15 18 C15 15.69 15 13.38 15 11 C12.03 11 9.06 11 6 11 C6 13.31 6 15.62 6 18 C6.66 18 7.32 18 8 18 C8 18.66 8 19.32 8 20 C5.69 20 3.38 20 1 20 C1 19.34 1 18.68 1 18 C1.66 18 2.32 18 3 18 C3 12.72 3 7.44 3 2 C2.01 2 1.02 2 0 2 C0 1.34 0 0.68 0 0 Z " fill="#245D8C" transform="translate(371,118)"/>
<path d="M0 0 C1.32 0 2.64 0 4 0 C4.33 4.62 4.66 9.24 5 14 C7.64 14 10.28 14 13 14 C13.33 9.38 13.66 4.76 14 0 C14.99 0 15.98 0 17 0 C17.10787818 2.77186988 17.18723327 5.53955537 17.25 8.3125 C17.30027344 9.49102539 17.30027344 9.49102539 17.3515625 10.69335938 C17.45000775 16.47701802 17.45000775 16.47701802 15.265625 19.015625 C12.83556783 20.07144294 11.1435383 20.43297339 8.5 20.4375 C7.7471875 20.45683594 6.994375 20.47617188 6.21875 20.49609375 C2.97920409 19.77175866 1.89810459 18.72318158 0 16 C-0.2906124 13.10550051 -0.38186045 10.62050065 -0.25 7.75 C-0.23195313 7.00492188 -0.21390625 6.25984375 -0.1953125 5.4921875 C-0.14835649 3.66090299 -0.07661652 1.83028351 0 0 Z " fill="#C1A43A" transform="translate(119,191)"/>
<path d="M0 0 C1.828125 0.0703125 1.828125 0.0703125 4 1 C5.13607609 3.33792501 5.97160504 5.42232156 6.75 7.875 C6.97042969 8.51308594 7.19085938 9.15117188 7.41796875 9.80859375 C8.37610794 12.65920663 9 14.9743871 9 18 C9.99 18 10.98 18 12 18 C12 18.66 12 19.32 12 20 C9.36 20 6.72 20 4 20 C4 19.34 4 18.68 4 18 C4.66 18 5.32 18 6 18 C6 17.01 6 16.02 6 15 C3.03 15 0.06 15 -3 15 C-3 15.99 -3 16.98 -3 18 C-2.34 18 -1.68 18 -1 18 C-1 18.66 -1 19.32 -1 20 C-3.31 20 -5.62 20 -8 20 C-8 19.34 -8 18.68 -8 18 C-7.34 18 -6.68 18 -6 18 C-5.81824219 17.3709375 -5.63648438 16.741875 -5.44921875 16.09375 C-3.84447416 10.62938892 -2.06414546 5.30780262 0 0 Z " fill="#316693" transform="translate(229,118)"/>
<path d="M0 0 C0.33 0 0.66 0 1 0 C1.24635665 13.49045463 1.4656502 26.98104993 1.65021229 40.47249985 C1.73676281 46.73685875 1.83269996 53.00078298 1.94995117 59.26464844 C2.06272116 65.30744253 2.15101419 71.35014031 2.22220421 77.39356232 C2.25371885 79.70141488 2.29411553 82.00916348 2.34345436 84.3167038 C2.41096204 87.54432073 2.44713018 90.77086113 2.47583008 93.99902344 C2.5031572 94.95711914 2.53048431 95.91521484 2.55863953 96.90234375 C2.57002407 103.40849718 2.57002407 103.40849718 -0.52973938 106.62506104 C-1.34492538 107.07879089 -2.16011139 107.53252075 -3 108 C-3.02894547 104.54168414 -3.04678 101.08339928 -3.0625 97.625 C-3.07087891 96.64015625 -3.07925781 95.6553125 -3.08789062 94.640625 C-3.09111328 93.69960937 -3.09433594 92.75859375 -3.09765625 91.7890625 C-3.10289307 90.91975098 -3.10812988 90.05043945 -3.11352539 89.15478516 C-3 87 -3 87 -2 85 C-1.34 85 -0.68 85 0 85 C0 56.95 0 28.9 0 0 Z " fill="#DBB22F" transform="translate(146,119)"/>
<path d="M0 0 C0 0.66 0 1.32 0 2 C0.66 1.67 1.32 1.34 2 1 C4.64117689 0.82295408 7.23196596 0.72258452 9.875 0.6875 C10.59558594 0.65849609 11.31617187 0.62949219 12.05859375 0.59960938 C15.73489334 0.55560211 17.59991939 0.67781671 20.5078125 3.01953125 C21.00023437 3.67308594 21.49265625 4.32664063 22 5 C21.67 5.66 21.34 6.32 21 7 C20.02160156 6.7834375 20.02160156 6.7834375 19.0234375 6.5625 C14.3006622 5.55943268 9.85795969 4.62631079 5 5 C4.67 5.33 4.34 5.66 4 6 C0.72941715 6.07298372 -2.53009619 5.9961013 -5.80078125 5.9375 C-8.48404128 5.98992022 -10.45409638 6.29371706 -13 7 C-15.33300933 7.03888349 -17.66709801 7.0448635 -20 7 C-14.37364099 0.31869868 -8.31281383 -0.34636724 0 0 Z " fill="#CCAB35" transform="translate(104,139)"/>
<path d="M0 0 C1.625 2 1.625 2 3 4 C6.465 3.505 6.465 3.505 10 3 C9.35793358 14.40221402 9.35793358 14.40221402 6 18 C3.5 18.5625 3.5 18.5625 1 18 C-1.35580463 15.64419537 -1.96774691 14.33199176 -2.29296875 10.984375 C-2.24076172 9.38335937 -2.24076172 9.38335937 -2.1875 7.75 C-2.14689453 6.13351563 -2.14689453 6.13351563 -2.10546875 4.484375 C-2.07066406 3.66453125 -2.03585938 2.8446875 -2 2 C-2.66 1.67 -3.32 1.34 -4 1 C-2 0 -2 0 0 0 Z " fill="#1B4978" transform="translate(157,230)"/>
<path d="M0 0 C0 0.66 0 1.32 0 2 C-0.66 2 -1.32 2 -2 2 C-2 2.66 -2 3.32 -2 4 C1.0745356 3.2236068 1.0745356 3.2236068 3 1 C3.33 1.66 3.66 2.32 4 3 C4.33 2.34 4.66 1.68 5 1 C5.66 1 6.32 1 7 1 C7 2.65 7 4.3 7 6 C19.54 6.33 32.08 6.66 45 7 C45 7.33 45 7.66 45 8 C21.24 8 -2.52 8 -27 8 C-27 7.67 -27 7.34 -27 7 C-17.1 6.505 -17.1 6.505 -7 6 C-11.64045375 4.90194193 -11.64045375 4.90194193 -15 5 C-14.67 3.68 -14.34 2.36 -14 1 C-11.66666667 1 -9.33333333 1 -7 1 C-6.175 0.835 -5.35 0.67 -4.5 0.5 C-2 0 -2 0 0 0 Z " fill="#375B71" transform="translate(96,107)"/>
<path d="M0 0 C0.99 0.33 1.98 0.66 3 1 C4.14978468 3.66820263 5.14037173 6.25484066 6.0625 9 C7.42751602 14.35677114 7.42751602 14.35677114 11 18 C11 18.66 11 19.32 11 20 C8.36 20 5.72 20 3 20 C3 19.34 3 18.68 3 18 C3.66 18 4.32 18 5 18 C5 17.01 5 16.02 5 15 C2.03 15 -0.94 15 -4 15 C-4 15.99 -4 16.98 -4 18 C-3.34 18 -2.68 18 -2 18 C-2 18.66 -2 19.32 -2 20 C-5.70805262 20.28329774 -9.30039029 20.43653212 -13 20 C-15.64888894 17.35111106 -15.94165769 15.87513469 -16.1875 12.1875 C-16.125625 11.465625 -16.06375 10.74375 -16 10 C-12.125 14.75 -12.125 14.75 -11 17 C-8.97536745 17.65213292 -8.97536745 17.65213292 -7 18 C-6.67 16.35 -6.34 14.7 -6 13 C-2.30581799 11.768606 0.2056261 12.35567236 4 13 C3.01 10.69 2.02 8.38 1 6 C0.01 6 -0.98 6 -2 6 C-1.125 1.125 -1.125 1.125 0 0 Z " fill="#255E8D" transform="translate(303,118)"/>
<path d="M0 0 C2.64 0 5.28 0 8 0 C8 0.66 8 1.32 8 2 C7.34 2 6.68 2 6 2 C6.33 6.95 6.66 11.9 7 17 C8.98 17 10.96 17 13 17 C14.94090826 15.05909174 14.39919435 11.52706098 14.5625 8.9375 C14.64628906 7.64714844 14.73007812 6.35679688 14.81640625 5.02734375 C14.87699219 4.02832031 14.93757813 3.02929688 15 2 C14.01 2 13.02 2 12 2 C12 1.34 12 0.68 12 0 C14.64 0 17.28 0 20 0 C20 0.66 20 1.32 20 2 C19.34 2 18.68 2 18 2 C18.04640625 2.96421875 18.0928125 3.9284375 18.140625 4.921875 C18.19476563 6.81679687 18.19476563 6.81679687 18.25 8.75 C18.29640625 10.00296875 18.3428125 11.2559375 18.390625 12.546875 C18 16 18 16 16.23828125 18.42578125 C12.59049296 20.99132869 10.38848352 20.48760928 6 20 C4.265625 18.953125 4.265625 18.953125 3 17 C2.7827899 14.35003674 2.71648446 11.94923442 2.8125 9.3125 C2.83280273 8.2596582 2.83280273 8.2596582 2.85351562 7.18554688 C2.88879818 5.45670171 2.94260417 3.72825235 3 2 C2.01 2 1.02 2 0 2 C0 1.34 0 0.68 0 0 Z " fill="#255E8D" transform="translate(483,118)"/>
<path d="M0 0 C4.62 0 9.24 0 14 0 C14 1.65 14 3.3 14 5 C13.34 5 12.68 5 12 5 C12 4.34 12 3.68 12 3 C9.69 3 7.38 3 5 3 C5 4.98 5 6.96 5 9 C7.31 9 9.62 9 12 9 C12 9.66 12 10.32 12 11 C9.69 11 7.38 11 5 11 C5 13.31 5 15.62 5 18 C7.31 18 9.62 18 12 18 C12 17.01 12 16.02 12 15 C12.66 15 13.32 15 14 15 C14 16.65 14 18.3 14 20 C9.05 20 4.1 20 -1 20 C-1 19.34 -1 18.68 -1 18 C-0.01 18 0.98 18 2 18 C2 12.72 2 7.44 2 2 C1.34 2 0.68 2 0 2 C0 1.34 0 0.68 0 0 Z " fill="#265E8D" transform="translate(337,118)"/>
<path d="M0 0 C0.33 0 0.66 0 1 0 C1.01030746 0.70965912 1.02061493 1.41931824 1.03123474 2.15048218 C1.12912188 8.83107033 1.23162371 15.51156975 1.33933926 22.19200706 C1.39455623 25.62666983 1.44797423 29.06134113 1.49731445 32.49609375 C1.55408707 36.44279889 1.61862398 40.38935842 1.68359375 44.3359375 C1.70030624 45.57242035 1.71701874 46.8089032 1.73423767 48.08285522 C1.75418289 49.22388702 1.77412811 50.36491882 1.79467773 51.54052734 C1.81022202 52.548685 1.8257663 53.55684265 1.84178162 54.59555054 C1.8448655 57.01266444 1.8448655 57.01266444 3 59 C3.08342159 60.44848582 3.10732861 61.90070869 3.09765625 63.3515625 C3.09443359 64.20234375 3.09121094 65.053125 3.08789062 65.9296875 C3.07951172 66.81914062 3.07113281 67.70859375 3.0625 68.625 C3.05798828 69.5221875 3.05347656 70.419375 3.04882812 71.34375 C3.03702591 73.56256648 3.02056155 75.78125018 3 78 C1.02 76.35 -0.96 74.7 -3 73 C-2.01 72.505 -2.01 72.505 -1 72 C-0.67 48.24 -0.34 24.48 0 0 Z " fill="#A79644" transform="translate(65,149)"/>
<path d="M0 0 C0.99 0 1.98 0 3 0 C3.6708712 1.6232687 4.33657029 3.24867578 5 4.875 C5.556875 6.23238281 5.556875 6.23238281 6.125 7.6171875 C7 10 7 10 7 12 C6.34 12.66 5.68 13.32 5 14 C5 14.33 5 14.66 5 15 C1.92382812 15.29296875 1.92382812 15.29296875 -1.15234375 15.5859375 C-1.76207031 15.72257813 -2.37179687 15.85921875 -3 16 C-3.33 16.66 -3.66 17.32 -4 18 C-3.34 18 -2.68 18 -2 18 C-2 18.66 -2 19.32 -2 20 C-4.31 20 -6.62 20 -9 20 C-9 19.34 -9 18.68 -9 18 C-8.55914062 17.61070312 -8.11828125 17.22140625 -7.6640625 16.8203125 C-5.28529373 14.21818516 -4.45157016 11.16451993 -3.375 7.875 C-1.10472973 1.10472973 -1.10472973 1.10472973 0 0 Z " fill="#29618F" transform="translate(451,118)"/>
<path d="M0 0 C2.31 0 4.62 0 7 0 C7 4.29 7 8.58 7 13 C3.04 13 -0.92 13 -5 13 C-5 8 -5 8 -3.625 6.5 C-3.08875 6.005 -2.5525 5.51 -2 5 C-0.80972016 2.40084462 -0.80972016 2.40084462 0 0 Z " fill="#DAB22F" transform="translate(93,191)"/>
<path d="M0 0 C0.66 0.33 1.32 0.66 2 1 C2 2.65 2 4.3 2 6 C1.01 6 0.02 6 -1 6 C-1 4.68 -1 3.36 -1 2 C-2.98 2.33 -4.96 2.66 -7 3 C-7 4.32 -7 5.64 -7 7 C-6.43410156 7.27714844 -5.86820313 7.55429688 -5.28515625 7.83984375 C-4.55167969 8.20207031 -3.81820312 8.56429687 -3.0625 8.9375 C-1.96615234 9.47697266 -1.96615234 9.47697266 -0.84765625 10.02734375 C1 11 1 11 2 12 C1.6875 15.5 1.6875 15.5 1 19 C-1.52475462 20.26237731 -3.31200466 20.09856404 -6.125 20.0625 C-7.03507813 20.05347656 -7.94515625 20.04445312 -8.8828125 20.03515625 C-9.93082031 20.01775391 -9.93082031 20.01775391 -11 20 C-11 18.02 -11 16.04 -11 14 C-10.34 14 -9.68 14 -9 14 C-9 15.32 -9 16.64 -9 18 C-5.535 17.505 -5.535 17.505 -2 17 C-2 15.68 -2 14.36 -2 13 C-2.56589844 12.72285156 -3.13179687 12.44570312 -3.71484375 12.16015625 C-4.44832031 11.79792969 -5.18179688 11.43570313 -5.9375 11.0625 C-7.03384766 10.52302734 -7.03384766 10.52302734 -8.15234375 9.97265625 C-10 9 -10 9 -11 8 C-11.28417861 5.30030316 -11.32477191 3.58864909 -10 1.1875 C-6.71320817 -0.76403265 -3.7786303 -0.23991304 0 0 Z " fill="#275F8D" transform="translate(603,118)"/>
<path d="M0 0 C0.99 0.33 1.98 0.66 3 1 C3 2.65 3 4.3 3 6 C2.01 6 1.02 6 0 6 C-0.33 5.01 -0.66 4.02 -1 3 C-3.41645782 2.83312552 -3.41645782 2.83312552 -6 3 C-8.22052862 4.80599761 -8.22052862 4.80599761 -8.265625 7.3125 C-8.26046875 8.199375 -8.2553125 9.08625 -8.25 10 C-8.25515625 10.886875 -8.2603125 11.77375 -8.265625 12.6875 C-8.22052862 15.19400239 -8.22052862 15.19400239 -6 17 C-3.77871445 17.02308597 -3.77871445 17.02308597 -1.375 16.625 C-0.55773437 16.51414063 0.25953125 16.40328125 1.1015625 16.2890625 C1.72804687 16.19367188 2.35453125 16.09828125 3 16 C2 19 2 19 0 20 C-7.03763109 20.56755089 -7.03763109 20.56755089 -10.4375 18.5625 C-12.71584117 14.82602049 -13.339435 11.35985394 -13 7 C-9.54882466 0.33566141 -7.26131023 -0.25478281 0 0 Z " fill="#29618F" transform="translate(254,118)"/>
<path d="M0 0 C2.31 0 4.62 0 7 0 C7 5.28 7 10.56 7 16 C3 17 3 17 0 16 C0 10.72 0 5.44 0 0 Z " fill="#F4F7F9" transform="translate(389,120)"/>
<path d="M0 0 C0.91644287 0.00523682 1.83288574 0.01047363 2.77709961 0.01586914 C3.76645508 0.0190918 4.75581055 0.02231445 5.77514648 0.02563477 C6.81606445 0.03401367 7.85698242 0.04239258 8.92944336 0.05102539 C10.49662109 0.05779297 10.49662109 0.05779297 12.09545898 0.06469727 C14.68600996 0.07652627 17.27644895 0.0930085 19.86694336 0.11352539 C19.86694336 0.44352539 19.86694336 0.77352539 19.86694336 1.11352539 C16.89694336 1.11352539 13.92694336 1.11352539 10.86694336 1.11352539 C10.53694336 1.77352539 10.20694336 2.43352539 9.86694336 3.11352539 C8.87694336 2.78352539 7.88694336 2.45352539 6.86694336 2.11352539 C6.86694336 7.39352539 6.86694336 12.67352539 6.86694336 18.11352539 C7.52694336 18.11352539 8.18694336 18.11352539 8.86694336 18.11352539 C8.86694336 18.77352539 8.86694336 19.43352539 8.86694336 20.11352539 C6.22694336 20.11352539 3.58694336 20.11352539 0.86694336 20.11352539 C0.86694336 19.45352539 0.86694336 18.79352539 0.86694336 18.11352539 C1.85694336 18.11352539 2.84694336 18.11352539 3.86694336 18.11352539 C3.86694336 12.83352539 3.86694336 7.55352539 3.86694336 2.11352539 C2.54694336 2.44352539 1.22694336 2.77352539 -0.13305664 3.11352539 C-0.46305664 4.10352539 -0.79305664 5.09352539 -1.13305664 6.11352539 C-1.79305664 6.11352539 -2.45305664 6.11352539 -3.13305664 6.11352539 C-3.17577764 4.44740634 -3.17369496 2.77969654 -3.13305664 1.11352539 C-2.13305664 0.11352539 -2.13305664 0.11352539 0 0 Z " fill="#316793" transform="translate(619.133056640625,117.886474609375)"/>
<path d="M0 0 C4.95 0 9.9 0 15 0 C15 1.65 15 3.3 15 5 C14.34 5 13.68 5 13 5 C13 4.01 13 3.02 13 2 C11.68 2 10.36 2 9 2 C9 7.28 9 12.56 9 18 C9.99 18 10.98 18 12 18 C12 18.66 12 19.32 12 20 C9.36 20 6.72 20 4 20 C4 19.34 4 18.68 4 18 C4.66 18 5.32 18 6 18 C6 13.05 6 8.1 6 3 C4.68 3 3.36 3 2 3 C2 3.66 2 4.32 2 5 C1.34 5 0.68 5 0 5 C0 3.35 0 1.7 0 0 Z " fill="#2D6390" transform="translate(320,118)"/>
<path d="M0 0 C0.66 0.33 1.32 0.66 2 1 C2 2.65 2 4.3 2 6 C1.34 6 0.68 6 0 6 C0 5.01 0 4.02 0 3 C-3.41656024 2.83322718 -3.41656024 2.83322718 -7 3 C-9.22052862 4.80599761 -9.22052862 4.80599761 -9.265625 7.3125 C-9.26046875 8.199375 -9.2553125 9.08625 -9.25 10 C-9.25773437 11.3303125 -9.25773437 11.3303125 -9.265625 12.6875 C-9.22052862 15.19400239 -9.22052862 15.19400239 -7 17 C-4.77871445 17.02308597 -4.77871445 17.02308597 -2.375 16.625 C-1.55773437 16.51414063 -0.74046875 16.40328125 0.1015625 16.2890625 C0.72804688 16.19367188 1.35453125 16.09828125 2 16 C1 19 1 19 -1 20 C-8.08571429 20.68571429 -8.08571429 20.68571429 -11.5 18.125 C-13.63168638 13.6839867 -13.89577377 9.83559292 -13 5 C-9.41850255 -0.59608977 -6.13716522 -0.60365559 0 0 Z " fill="#1C5788" transform="translate(367,118)"/>
<path d="M0 0 C0.66 0.33 1.32 0.66 2 1 C2 2.65 2 4.3 2 6 C1.34 6 0.68 6 0 6 C0 5.01 0 4.02 0 3 C-3.41656024 2.83322718 -3.41656024 2.83322718 -7 3 C-9.22052862 4.80599761 -9.22052862 4.80599761 -9.265625 7.3125 C-9.26046875 8.199375 -9.2553125 9.08625 -9.25 10 C-9.25773437 11.3303125 -9.25773437 11.3303125 -9.265625 12.6875 C-9.22052862 15.19400239 -9.22052862 15.19400239 -7 17 C-4.77871445 17.02308597 -4.77871445 17.02308597 -2.375 16.625 C-1.55773437 16.51414063 -0.74046875 16.40328125 0.1015625 16.2890625 C0.72804688 16.19367188 1.35453125 16.09828125 2 16 C1 19 1 19 -1 20 C-8.08571429 20.68571429 -8.08571429 20.68571429 -11.5 18.125 C-13.63168638 13.6839867 -13.89577377 9.83559292 -13 5 C-9.41850255 -0.59608977 -6.13716522 -0.60365559 0 0 Z " fill="#225C8B" transform="translate(440,118)"/>
<path d="M0 0 C0.99 0.33 1.98 0.66 3 1 C3 2.65 3 4.3 3 6 C2.34 6 1.68 6 1 6 C1 5.01 1 4.02 1 3 C-3.08787015 2.69067067 -3.08787015 2.69067067 -6.875 4 C-8.64629177 7.14896314 -8.54794453 10.47038329 -8 14 C-7.01 15.485 -7.01 15.485 -6 17 C-3.03 16.67 -0.06 16.34 3 16 C2 19 2 19 0 20 C-7.08571429 20.68571429 -7.08571429 20.68571429 -10.5 18.125 C-12.62979995 13.68791677 -12.90295473 9.83159986 -12 5 C-8.65869528 -0.06258291 -5.88988366 -0.65443152 0 0 Z " fill="#1B5787" transform="translate(271,118)"/>
<path d="M0 0 C0.66 0.33 1.32 0.66 2 1 C2 1.99 2 2.98 2 4 C0.948125 4.103125 -0.10375 4.20625 -1.1875 4.3125 C-4.90177218 4.74577356 -4.90177218 4.74577356 -7.359375 6.4375 C-10.2527581 8.149561 -12.80006477 8.90798008 -16.0625 9.6875 C-17.59583984 10.06455078 -17.59583984 10.06455078 -19.16015625 10.44921875 C-22 11 -22 11 -26 11 C-26 9.35 -26 7.7 -26 6 C-25.01 5.67 -24.02 5.34 -23 5 C-23 5.66 -23 6.32 -23 7 C-20.03 6.34 -17.06 5.68 -14 5 C-14 4.34 -14 3.68 -14 3 C-13.44570312 3.20625 -12.89140625 3.4125 -12.3203125 3.625 C-9.26131851 4.11938287 -7.67425899 3.27011154 -4.875 2 C-2.2421875 0.8125 -2.2421875 0.8125 0 0 Z " fill="#7E8156" transform="translate(148,240)"/>
<path d="M0 0 C0.66 0 1.32 0 2 0 C2.39036513 1.60049704 2.76178619 3.20562371 3.125 4.8125 C3.33382812 5.70582031 3.54265625 6.59914062 3.7578125 7.51953125 C4 10 4 10 2 13 C1.54227937 15.73872955 1.54227937 15.73872955 1.375 18.6875 C1.30023438 19.68136719 1.22546875 20.67523438 1.1484375 21.69921875 C1.09945312 22.45847656 1.05046875 23.21773437 1 24 C0.01 23.01 -0.98 22.02 -2 21 C-2.66 21.99 -3.32 22.98 -4 24 C-4 22.35 -4 20.7 -4 19 C-4.61875 18.773125 -5.2375 18.54625 -5.875 18.3125 C-8 17 -8 17 -9.375 14.9375 C-10.26381436 10.76007253 -9.59440734 6.95879677 -8 3 C-7.01 2.34 -6.02 1.68 -5 1 C-5.165 1.515625 -5.33 2.03125 -5.5 2.5625 C-6.42606851 7.07708398 -6.41003609 11.59363721 -5 16 C-3.35 16 -1.7 16 0 16 C-0.020625 15.278125 -0.04125 14.55625 -0.0625 13.8125 C0 11 0 11 0.5625 8.25 C0.7790625 7.13625 0.7790625 7.13625 1 6 C0.67 5.67 0.34 5.34 0 5 C-0.04063832 3.33382885 -0.042721 1.66611905 0 0 Z " fill="#365B72" transform="translate(87,180)"/>
<path d="M0 0 C8.57142857 -0.14285714 8.57142857 -0.14285714 12 1 C12 1.99 12 2.98 12 4 C12.66 3.01 13.32 2.02 14 1 C15.32 1 16.64 1 18 1 C18 1.66 18 2.32 18 3 C16.68 3 15.36 3 14 3 C14.75150023 6.27773504 14.75150023 6.27773504 18 8 C12 8 6 8 0 8 C0.185625 7.05125 0.37125 6.1025 0.5625 5.125 C1.28686632 2.10131207 1.28686632 2.10131207 0 0 Z " fill="#265279" transform="translate(90,97)"/>
<path d="M0 0 C0.66 0 1.32 0 2 0 C2.3403125 0.9590625 2.3403125 0.9590625 2.6875 1.9375 C3.85250896 4.27193661 3.85250896 4.27193661 6.625 4.75 C7.40875 4.8325 8.1925 4.915 9 5 C9.33 4.34 9.66 3.68 10 3 C12.31 3.33 14.62 3.66 17 4 C17.33 3.34 17.66 2.68 18 2 C18.33 2.66 18.66 3.32 19 4 C20.62418745 4.08090971 22.24951745 4.13914995 23.875 4.1875 C24.77992187 4.22230469 25.68484375 4.25710937 26.6171875 4.29296875 C27.40351563 4.19628906 28.18984375 4.09960938 29 4 C29.66 3.01 30.32 2.02 31 1 C31 2.32 31 3.64 31 5 C31.66 5 32.32 5 33 5 C33.33 3.68 33.66 2.36 34 1 C34 2.32 34 3.64 34 5 C34.66 5 35.32 5 36 5 C36.33 4.01 36.66 3.02 37 2 C37.495 3.98 37.495 3.98 38 6 C21.83 6 5.66 6 -11 6 C-11 5.67 -11 5.34 -11 5 C-3.375 3.875 -3.375 3.875 0 5 C0 3.35 0 1.7 0 0 Z " fill="#083E88" transform="translate(103,108)"/>
<path d="M0 0 C5.28 0 10.56 0 16 0 C16 0.33 16 0.66 16 1 C10.555 1.495 10.555 1.495 5 2 C5 7.28 5 12.56 5 18 C5.99 18 6.98 18 8 18 C8 18.66 8 19.32 8 20 C5.36 20 2.72 20 0 20 C0 19.34 0 18.68 0 18 C0.66 18 1.32 18 2 18 C2 12.72 2 7.44 2 2 C1.34 2 0.68 2 0 2 C0 1.34 0 0.68 0 0 Z " fill="#306692" transform="translate(527,118)"/>
<path d="M0 0 C0.99 0 1.98 0 3 0 C3 0.66 3 1.32 3 2 C7.68965706 3.11658501 10.53763531 2.80619523 15 1 C15.33 1.66 15.66 2.32 16 3 C18.97 3 21.94 3 25 3 C24.34 4.65 23.68 6.3 23 8 C22.34 7.34 21.68 6.68 21 6 C18.09324817 5.97831363 18.09324817 5.97831363 14.875 6.375 C13.77929688 6.48585937 12.68359375 6.59671875 11.5546875 6.7109375 C10.71164063 6.80632812 9.86859375 6.90171875 9 7 C9 6.34 9 5.68 9 5 C8.278125 5.185625 7.55625 5.37125 6.8125 5.5625 C3.87173027 6.01995307 1.85896942 5.73516357 -1 5 C-1 1 -1 1 0 0 Z " fill="#7D8056" transform="translate(88,246)"/>
<path d="M0 0 C1.32 0.33 2.64 0.66 4 1 C4.66 3.31 5.32 5.62 6 8 C5.01 8.33 4.02 8.66 3 9 C2.67 7.68 2.34 6.36 2 5 C0.68 7.64 -0.64 10.28 -2 13 C-0.02 13 1.96 13 4 13 C4 13.33 4 13.66 4 14 C2.02 14.33 0.04 14.66 -2 15 C-2.33 15.99 -2.66 16.98 -3 18 C-2.34 18 -1.68 18 -1 18 C-1 18.66 -1 19.32 -1 20 C-3.31 20 -5.62 20 -8 20 C-8 19.34 -8 18.68 -8 18 C-7.34 18 -6.68 18 -6 18 C-5.81824219 17.3709375 -5.63648438 16.741875 -5.44921875 16.09375 C-3.84447416 10.62938892 -2.06414546 5.30780262 0 0 Z " fill="#275F8E" transform="translate(229,118)"/>
<path d="M0 0 C2.5625718 -0.02710123 5.12485365 -0.04688771 7.6875 -0.0625 C8.40873047 -0.07087891 9.12996094 -0.07925781 9.87304688 -0.08789062 C13.71555382 -0.10543632 17.26639526 0.06475779 21 1 C20.67 3.31 20.34 5.62 20 8 C15.28971963 7.08411215 15.28971963 7.08411215 13.0625 6.4375 C10.35333335 5.86282829 7.76027159 5.93726655 5 6 C5.33 5.01 5.66 4.02 6 3 C6.66 2.67 7.32 2.34 8 2 C5.36 1.67 2.72 1.34 0 1 C0 0.67 0 0.34 0 0 Z " fill="#345970" transform="translate(100,244)"/>
<path d="M0 0 C2.64 0 5.28 0 8 0 C7.01 0.495 7.01 0.495 6 1 C6.2165625 1.68707031 6.433125 2.37414062 6.65625 3.08203125 C6.9346875 3.98308594 7.213125 4.88414063 7.5 5.8125 C7.7784375 6.70582031 8.056875 7.59914063 8.34375 8.51953125 C9 11 9 11 9 14 C9.66 14 10.32 14 11 14 C11.12375 13.360625 11.2475 12.72125 11.375 12.0625 C11.58125 11.381875 11.7875 10.70125 12 10 C12.66 9.67 13.32 9.34 14 9 C13.34 11.97 12.68 14.94 12 18 C10.68 18.33 9.36 18.66 8 19 C7.59007812 17.79601562 7.18015625 16.59203125 6.7578125 15.3515625 C6.21384636 13.77593644 5.66955882 12.20042132 5.125 10.625 C4.85558594 9.8309375 4.58617187 9.036875 4.30859375 8.21875 C4.04433594 7.45820312 3.78007813 6.69765625 3.5078125 5.9140625 C3.26691895 5.2123291 3.02602539 4.5105957 2.77783203 3.78759766 C2.04166362 1.79749359 2.04166362 1.79749359 0 0 Z " fill="#225B8A" transform="translate(535,119)"/>
<path d="M0 0 C2.64 0 5.28 0 8 0 C8 0.66 8 1.32 8 2 C7.34 2 6.68 2 6 2 C6 7.28 6 12.56 6 18 C6.66 18 7.32 18 8 18 C8 18.66 8 19.32 8 20 C5.36 20 2.72 20 0 20 C0 19.34 0 18.68 0 18 C0.99 18 1.98 18 3 18 C3 12.72 3 7.44 3 2 C2.01 2 1.02 2 0 2 C0 1.34 0 0.68 0 0 Z " fill="#2F6591" transform="translate(416,118)"/>
<path d="M0 0 C-0.639375 0.268125 -1.27875 0.53625 -1.9375 0.8125 C-4.33131686 1.88667752 -4.33131686 1.88667752 -5 5 C-5.99 4.34 -6.98 3.68 -8 3 C-9.423125 3.495 -9.423125 3.495 -10.875 4 C-14 5 -14 5 -16.875 4.125 C-17.57625 3.75375 -18.2775 3.3825 -19 3 C-19 2.34 -19 1.68 -19 1 C-20.32 0.67 -21.64 0.34 -23 0 C-15.78286328 -2.40571224 -7.4291069 -0.88517018 0 0 Z " fill="#074183" transform="translate(110,245)"/>
<path d="M0 0 C3.63 0 7.26 0 11 0 C11 0.66 11 1.32 11 2 C9.02 2.33 7.04 2.66 5 3 C4.67 5.31 4.34 7.62 4 10 C5.65 10 7.3 10 9 10 C9 10.33 9 10.66 9 11 C7.35 11 5.7 11 4 11 C4 13.31 4 15.62 4 18 C5.32 18 6.64 18 8 18 C8 18.66 8 19.32 8 20 C5.36 20 2.72 20 0 20 C0 19.34 0 18.68 0 18 C0.66 18 1.32 18 2 18 C2 12.72 2 7.44 2 2 C1.34 2 0.68 2 0 2 C0 1.34 0 0.68 0 0 Z " fill="#245D8C" transform="translate(277,118)"/>
<path d="M0 0 C2.31 0 4.62 0 7 0 C7 0.66 7 1.32 7 2 C6.34 2 5.68 2 5 2 C5 7.28 5 12.56 5 18 C5.66 18 6.32 18 7 18 C7 18.66 7 19.32 7 20 C4.69 20 2.38 20 0 20 C0 19.34 0 18.68 0 18 C0.66 18 1.32 18 2 18 C2 12.72 2 7.44 2 2 C1.34 2 0.68 2 0 2 C0 1.34 0 0.68 0 0 Z " fill="#2A618F" transform="translate(608,118)"/>
<path d="M0 0 C0 0.66 0 1.32 0 2 C-0.66 2 -1.32 2 -2 2 C-2 2.66 -2 3.32 -2 4 C1.0745356 3.2236068 1.0745356 3.2236068 3 1 C3.33 1.66 3.66 2.32 4 3 C4.33 2.34 4.66 1.68 5 1 C5.66 1 6.32 1 7 1 C7 2.65 7 4.3 7 6 C1.84195472 6.0901406 -2.94208936 6.0936023 -8 5 C-10.33301986 4.96175377 -12.66711508 4.95425716 -15 5 C-14.67 3.68 -14.34 2.36 -14 1 C-11.66666667 1 -9.33333333 1 -7 1 C-6.175 0.835 -5.35 0.67 -4.5 0.5 C-2 0 -2 0 0 0 Z " fill="#7F8155" transform="translate(96,107)"/>
<path d="M0 0 C0.90492187 0.02320313 1.80984375 0.04640625 2.7421875 0.0703125 C3.65226562 0.08835938 4.56234375 0.10640625 5.5 0.125 C6.19867188 0.14820313 6.89734375 0.17140625 7.6171875 0.1953125 C7.9471875 1.5153125 8.2771875 2.8353125 8.6171875 4.1953125 C4.9871875 4.1953125 1.3571875 4.1953125 -2.3828125 4.1953125 C-2.7128125 8.4853125 -3.0428125 12.7753125 -3.3828125 17.1953125 C-7.6728125 17.1953125 -11.9628125 17.1953125 -16.3828125 17.1953125 C-16.3828125 16.8653125 -16.3828125 16.5353125 -16.3828125 16.1953125 C-12.4228125 16.1953125 -8.4628125 16.1953125 -4.3828125 16.1953125 C-4.40601562 15.20789063 -4.42921875 14.22046875 -4.453125 13.203125 C-4.47117187 11.92179688 -4.48921875 10.64046875 -4.5078125 9.3203125 C-4.53101562 8.04414063 -4.55421875 6.76796875 -4.578125 5.453125 C-4.34943135 1.63851493 -3.95362201 0.32406738 0 0 Z " fill="#3F5F6E" transform="translate(104.3828125,187.8046875)"/>
<path d="M0 0 C1.423125 0.433125 1.423125 0.433125 2.875 0.875 C7.52270466 2.2110958 12.25164268 3.10192035 17 4 C17 4.66 17 5.32 17 6 C17.99 6.33 18.98 6.66 20 7 C19.01 8.485 19.01 8.485 18 10 C16 9 16 9 14.1875 7.875 C11.9775583 6.75341778 11.9775583 6.75341778 9.4375 7.5625 C8.633125 7.706875 7.82875 7.85125 7 8 C5.5 6.6875 5.5 6.6875 4 5 C1.40084462 3.80972016 1.40084462 3.80972016 -1 3 C-0.67 2.01 -0.34 1.02 0 0 Z " fill="#747C5A" transform="translate(63,241)"/>
<path d="M0 0 C4.63822319 0.24411701 9.03572161 1.18552534 13.5625 2.1875 C13.5625 3.1775 13.5625 4.1675 13.5625 5.1875 C9.70673032 5.26782854 6.07047904 5.16978495 2.25 4.625 C-1.25402695 3.86681421 -1.25402695 3.86681421 -3.4375 5.1875 C-5.43710012 5.227492 -7.43797242 5.23096799 -9.4375 5.1875 C-9.7675 3.8675 -10.0975 2.5475 -10.4375 1.1875 C-9.303125 1.208125 -8.16875 1.22875 -7 1.25 C-3.17206474 1.18284324 -3.38884206 0.26068016 0 0 Z " fill="#48646B" transform="translate(111.4375,142.8125)"/>
<path d="M0 0 C0.12375 0.928125 0.12375 0.928125 0.25 1.875 C0.91214206 4.53489979 0.91214206 4.53489979 5 6 C-2.26 6 -9.52 6 -17 6 C-17 5.67 -17 5.34 -17 5 C-14.69 4.34 -12.38 3.68 -10 3 C-10.66 2.34 -11.32 1.68 -12 1 C-8.0186217 -0.3271261 -4.14954773 -0.06915913 0 0 Z " fill="#25557E" transform="translate(111,251)"/>
<path d="M0 0 C0.99 0 1.98 0 3 0 C3.05380578 2.79192205 3.09357669 5.5828141 3.125 8.375 C3.15013672 9.56609375 3.15013672 9.56609375 3.17578125 10.78125 C3.19335473 12.85492015 3.10335168 14.92883241 3 17 C1 19 1 19 -1.625 19.125 C-2.40875 19.08375 -3.1925 19.0425 -4 19 C-2.68 18.01 -1.36 17.02 0 16 C-3.3 16 -6.6 16 -10 16 C-10 15.67 -10 15.34 -10 15 C-5.545 14.505 -5.545 14.505 -1 14 C-0.67 9.38 -0.34 4.76 0 0 Z " fill="#E7B929" transform="translate(133,191)"/>
<path d="M0 0 C5.61 0 11.22 0 17 0 C17 1.65 17 3.3 17 5 C16.21625 4.814375 15.4325 4.62875 14.625 4.4375 C9.96066559 3.87456309 5.64022271 4.40392396 1 5 C0.67 3.35 0.34 1.7 0 0 Z " fill="#757C59" transform="translate(106,108)"/>
<path d="M0 0 C7.59 0 15.18 0 23 0 C23 1.65 23 3.3 23 5 C22.67 3.68 22.34 2.36 22 1 C19.72844502 1.08702126 17.45769257 1.19519522 15.1875 1.3125 C13.29064453 1.39951172 13.29064453 1.39951172 11.35546875 1.48828125 C8.07974825 1.72842478 8.07974825 1.72842478 6.125 3.34375 C4.5064241 5.72665341 3.79454 8.24966924 3 11 C2.01 11 1.02 11 0 11 C0.66 8.03 1.32 5.06 2 2 C1.34 2 0.68 2 0 2 C0 1.34 0 0.68 0 0 Z " fill="#3D6F99" transform="translate(547,118)"/>
<path d="M0 0 C3.3 0 6.6 0 10 0 C10 0.33 10 0.66 10 1 C8.02 1 6.04 1 4 1 C4.33 3.64 4.66 6.28 5 9 C4.34 9 3.68 9 3 9 C3.33 9.66 3.66 10.32 4 11 C4.039992 12.99960012 4.04346799 15.00047242 4 17 C5.32 17 6.64 17 8 17 C8 17.66 8 18.32 8 19 C5.36 19 2.72 19 0 19 C0 18.34 0 17.68 0 17 C0.66 17 1.32 17 2 17 C2 11.72 2 6.44 2 1 C1.34 0.67 0.68 0.34 0 0 Z " fill="#155284" transform="translate(573,119)"/>
<path d="M0 0 C2.97 0 5.94 0 9 0 C9 0.66 9 1.32 9 2 C8.01 2 7.02 2 6 2 C6 7.28 6 12.56 6 18 C2.76054455 13.68072606 2.64626136 12.84798489 2.8125 7.75 C2.83957031 6.67234375 2.86664063 5.5946875 2.89453125 4.484375 C2.92933594 3.66453125 2.96414063 2.8446875 3 2 C2.01 2 1.02 2 0 2 C0 1.34 0 0.68 0 0 Z " fill="#2F6592" transform="translate(462,118)"/>
<path d="M0 0 C0.99 0 1.98 0 3 0 C2.95359375 1.12019531 2.9071875 2.24039063 2.859375 3.39453125 C2.82185577 4.86716085 2.78545577 6.33981927 2.75 7.8125 C2.69972656 8.91948242 2.69972656 8.91948242 2.6484375 10.04882812 C2.56101906 12.4845656 2.56101906 12.4845656 3 16 C4.85228358 18.06113361 4.85228358 18.06113361 7 19 C2.25 18.25 2.25 18.25 0 16 C-0.14507695 13.25514407 -0.18652423 10.61519457 -0.125 7.875 C-0.11146484 6.74384766 -0.11146484 6.74384766 -0.09765625 5.58984375 C-0.0740687 3.72642746 -0.03819719 1.86317407 0 0 Z " fill="#DCB42E" transform="translate(119,191)"/>
<path d="M0 0 C2.31 0.33 4.62 0.66 7 1 C6.67 2.65 6.34 4.3 6 6 C4.37581255 6.08090971 2.75048255 6.13914995 1.125 6.1875 C0.22007812 6.22230469 -0.68484375 6.25710937 -1.6171875 6.29296875 C-2.79667969 6.14794922 -2.79667969 6.14794922 -4 6 C-4.66 5.01 -5.32 4.02 -6 3 C-6 3.66 -6 4.32 -6 5 C-6.66 5 -7.32 5 -8 5 C-8 3.68 -8 2.36 -8 1 C-6.35 1 -4.7 1 -3 1 C-3 1.66 -3 2.32 -3 3 C-2.34 3 -1.68 3 -1 3 C-0.67 2.01 -0.34 1.02 0 0 Z " fill="#848453" transform="translate(133,107)"/>
<path d="M0 0 C2.50298434 2.93828597 3.46930939 5.17902761 4 9 C1.03 9 -1.94 9 -5 9 C-4.34 6.69 -3.68 4.38 -3 2 C-2.01 2 -1.02 2 0 2 C0 1.34 0 0.68 0 0 Z " fill="#42739B" transform="translate(303,122)"/>
<path d="M0 0 C4.62 0.66 9.24 1.32 14 2 C14 2.33 14 2.66 14 3 C12.329375 3.433125 12.329375 3.433125 10.625 3.875 C6.99708908 4.69241329 6.99708908 4.69241329 5 7 C1.875 6.625 1.875 6.625 -1 6 C-0.67 4.02 -0.34 2.04 0 0 Z " fill="#1C4E82" transform="translate(81,241)"/>
<path d="M0 0 C0.99 0 1.98 0 3 0 C3 0.99 3 1.98 3 3 C3.66 2.01 4.32 1.02 5 0 C6.32 0 7.64 0 9 0 C9 0.66 9 1.32 9 2 C7.68 2 6.36 2 5 2 C5.75150023 5.27773504 5.75150023 5.27773504 9 7 C5.7 7 2.4 7 -1 7 C-1.625 4.625 -1.625 4.625 -2 2 C-1.34 1.34 -0.68 0.68 0 0 Z " fill="#888651" transform="translate(99,98)"/>
<path d="M0 0 C0 0.66 0 1.32 0 2 C-1.98 2.66 -3.96 3.32 -6 4 C-6 4.99 -6 5.98 -6 7 C-6.66 7 -7.32 7 -8 7 C-8 6.34 -8 5.68 -8 5 C-10.51083114 6.25541557 -10.87125446 7.50063488 -12 10 C-12 8.35 -12 6.7 -12 5 C-13.65 5 -15.3 5 -17 5 C-17.33 4.34 -17.66 3.68 -18 3 C-15.3754034 2.49779928 -12.75036631 1.99814643 -10.125 1.5 C-9.37863281 1.35691406 -8.63226563 1.21382812 -7.86328125 1.06640625 C-2.2265625 0 -2.2265625 0 0 0 Z " fill="#224F79" transform="translate(133,240)"/>
<path d="M0 0 C0.33 0.66 0.66 1.32 1 2 C0.67 2.66 0.34 3.32 0 4 C-0.25485991 8.50252506 -0.17480588 11.99377865 2 16 C2.99 16.66 3.98 17.32 5 18 C1.61425002 18.47024305 0.34521562 18.25669879 -2.4375 16.1875 C-4.80691014 11.35390331 -3.60002654 7.01826505 -2 2 C-1.34 1.34 -0.68 0.68 0 0 Z " fill="#4C656A" transform="translate(81,181)"/>
<path d="M0 0 C3.875 4.75 3.875 4.75 5 7 C7.02463255 7.65213292 7.02463255 7.65213292 9 8 C9 7.34 9 6.68 9 6 C9.66 6 10.32 6 11 6 C11 6.66 11 7.32 11 8 C11.99 8 12.98 8 14 8 C14 8.66 14 9.32 14 10 C10.29194738 10.28329774 6.69960971 10.43653212 3 10 C0.35111106 7.35111106 0.05834231 5.87513469 -0.1875 2.1875 C-0.125625 1.465625 -0.06375 0.74375 0 0 Z " fill="#1D5888" transform="translate(287,128)"/>
<path d="M0 0 C2.31 0 4.62 0 7 0 C7 0.66 7 1.32 7 2 C6.34 2 5.68 2 5 2 C5 7.94 5 13.88 5 20 C4.67 20 4.34 20 4 20 C3.67 18.35 3.34 16.7 3 15 C2.67 15 2.34 15 2 15 C2 10.71 2 6.42 2 2 C1.34 2 0.68 2 0 2 C0 1.34 0 0.68 0 0 Z " fill="#46769E" transform="translate(518,118)"/>
<path d="M0 0 C2.375 -0.125 2.375 -0.125 5 0 C5.66 0.66 6.32 1.32 7 2 C6.625 4.625 6.625 4.625 6 7 C4.02 7 2.04 7 0 7 C0 4.69 0 2.38 0 0 Z " fill="#E9EFF3" transform="translate(282,120)"/>
<path d="M0 0 C2.64 0 5.28 0 8 0 C8 0.66 8 1.32 8 2 C7.34 2 6.68 2 6 2 C6 6.62 6 11.24 6 16 C5.67 16 5.34 16 5 16 C5 13.69 5 11.38 5 9 C4.34 9 3.68 9 3 9 C3 6.69 3 4.38 3 2 C2.01 2 1.02 2 0 2 C0 1.34 0 0.68 0 0 Z " fill="#43749C" transform="translate(483,118)"/>
<path d="M0 0 C3.96 1.98 3.96 1.98 8 4 C7.67 5.32 7.34 6.64 7 8 C5.35 7.67 3.7 7.34 2 7 C1.67 7.99 1.34 8.98 1 10 C0.67 10 0.34 10 0 10 C0 6.7 0 3.4 0 0 Z " fill="#0B437E" transform="translate(157,232)"/>
<path d="M0 0 C0.33 3.63 0.66 7.26 1 11 C1.66 10.67 2.32 10.34 3 10 C3 11.32 3 12.64 3 14 C2.01 14 1.02 14 0 14 C-0.33 14.66 -0.66 15.32 -1 16 C-2.38226016 13.23547967 -2.09525387 10.9538637 -2.0625 7.875 C-2.05347656 6.77929688 -2.04445312 5.68359375 -2.03515625 4.5546875 C-2.02355469 3.71164063 -2.01195312 2.86859375 -2 2 C-2.66 1.67 -3.32 1.34 -4 1 C-2 0 -2 0 0 0 Z " fill="#49646B" transform="translate(157,230)"/>
<path d="M0 0 C0.33 0.66 0.66 1.32 1 2 C0.67 2.66 0.34 3.32 0 4 C1.98 4 3.96 4 6 4 C6 4.33 6 4.66 6 5 C4.02 5.33 2.04 5.66 0 6 C-0.33 6.99 -0.66 7.98 -1 9 C-0.34 9 0.32 9 1 9 C1 9.66 1 10.32 1 11 C-1.31 11 -3.62 11 -6 11 C-6 10.34 -6 9.68 -6 9 C-5.34 9 -4.68 9 -4 9 C-3.71125 7.88625 -3.4225 6.7725 -3.125 5.625 C-2 2 -2 2 0 0 Z " fill="#155284" transform="translate(227,127)"/>
<path d="M0 0 C0.66 0.33 1.32 0.66 2 1 C2.33 1.99 2.66 2.98 3 4 C3.97850195 5.02104551 4.97980427 6.0206121 6 7 C6.99 8.485 6.99 8.485 8 10 C5.21176345 11.0326802 4.1322726 11.04509293 1.25 10.0625 C0.5075 9.711875 -0.235 9.36125 -1 9 C-1.125 2.25 -1.125 2.25 0 0 Z " fill="#335974" transform="translate(61,239)"/>
<path d="M0 0 C0 0.99 0 1.98 0 3 C-1.11375 3.12375 -2.2275 3.2475 -3.375 3.375 C-7.03103677 3.6465813 -7.03103677 3.6465813 -9 6 C-11.625 6.125 -11.625 6.125 -14 6 C-11.75277763 2.62916645 -10.6694788 2.17939 -7 0.75 C-6.113125 0.39421875 -5.22625 0.0384375 -4.3125 -0.328125 C-2 -1 -2 -1 0 0 Z " fill="#848453" transform="translate(150,241)"/>
<path d="M0 0 C1.91015625 0.1328125 1.91015625 0.1328125 3.91015625 1.1328125 C3.91015625 2.7828125 3.91015625 4.4328125 3.91015625 6.1328125 C2.92015625 6.1328125 1.93015625 6.1328125 0.91015625 6.1328125 C0.91015625 4.8128125 0.91015625 3.4928125 0.91015625 2.1328125 C-2.02427777 2.39937822 -2.02427777 2.39937822 -5.08984375 3.1328125 C-6.07984375 4.6178125 -6.07984375 4.6178125 -7.08984375 6.1328125 C-7.74984375 5.8028125 -8.40984375 5.4728125 -9.08984375 5.1328125 C-6.6148545 0.01783473 -5.87707589 0.0213324 0 0 Z " fill="#2E6491" transform="translate(601.08984375,117.8671875)"/>
<path d="M0 0 C0.33 1.65 0.66 3.3 1 5 C2.32 5.33 3.64 5.66 5 6 C0.545 6.495 0.545 6.495 -4 7 C-4 6.34 -4 5.68 -4 5 C-3.34 5 -2.68 5 -2 5 C-2.33 3.68 -2.66 2.36 -3 1 C-4.98 1 -6.96 1 -9 1 C-9 0.67 -9 0.34 -9 0 C-3.375 -1.125 -3.375 -1.125 0 0 Z " fill="#1D5888" transform="translate(459,131)"/>
<path d="M0 0 C1.98 0 3.96 0 6 0 C6.625 1.875 6.625 1.875 7 4 C5 6 5 6 2.375 6.125 C1.59125 6.08375 0.8075 6.0425 0 6 C0 4.02 0 2.04 0 0 Z " fill="#F8FAFB" transform="translate(578,121)"/>
<path d="M0 0 C1.051875 -0.00386719 1.051875 -0.00386719 2.125 -0.0078125 C4 0.125 4 0.125 6 1.125 C6 2.775 6 4.425 6 6.125 C5.34 6.125 4.68 6.125 4 6.125 C4 5.135 4 4.145 4 3.125 C-0.54805635 2.94664485 -3.8794254 3.12714565 -8 5.125 C-6.04422224 0.79434924 -4.70931171 -0.01731365 0 0 Z " fill="#255E8C" transform="translate(363,117.875)"/>
<path d="M0 0 C0.33 0.66 0.66 1.32 1 2 C2.98 2 4.96 2 7 2 C7 2.66 7 3.32 7 4 C5.02 4 3.04 4 1 4 C1.763125 4.103125 2.52625 4.20625 3.3125 4.3125 C6.17059424 5.04364039 7.15742885 5.76951913 9 8 C2.84765625 8.09765625 2.84765625 8.09765625 1 8 C0 7 0 7 -0.0625 3.4375 C-0.041875 2.303125 -0.02125 1.16875 0 0 Z " fill="#2B5577" transform="translate(123,198)"/>
<path d="M0 0 C-5.22531563 3.48354375 -10.8131337 4.30934332 -17 4 C-16.67 3.01 -16.34 2.02 -16 1 C-10.61509359 0.08342019 -5.45769811 -0.11138159 0 0 Z " fill="#3B5D70" transform="translate(100,145)"/>
<path d="M0 0 C7.38461538 -0.36923077 7.38461538 -0.36923077 10.5 1.5 C10.995 1.995 11.49 2.49 12 3 C11.67 3.66 11.34 4.32 11 5 C7.7 4.34 4.4 3.68 1 3 C0.67 2.01 0.34 1.02 0 0 Z " fill="#D9B22F" transform="translate(114,141)"/>
<path d="M0 0 C-0.33 3.3 -0.66 6.6 -1 10 C-2.32 10.33 -3.64 10.66 -5 11 C-5.33 9.68 -5.66 8.36 -6 7 C-5.01 6.67 -4.02 6.34 -3 6 C-2.67 5.01 -2.34 4.02 -2 3 C-2.99 3 -3.98 3 -5 3 C-5 2.34 -5 1.68 -5 1 C-1.125 0 -1.125 0 0 0 Z " fill="#506867" transform="translate(167,233)"/>
<path d="M0 0 C2.64 0 5.28 0 8 0 C8 2 8 2 6.6875 3.375 C6.130625 3.91125 5.57375 4.4475 5 5 C4.2265625 6.0828125 4.2265625 6.0828125 3.4375 7.1875 C2.7259375 8.0846875 2.7259375 8.0846875 2 9 C1.34 9 0.68 9 0 9 C1.875 4.25 1.875 4.25 3 2 C2.01 2 1.02 2 0 2 C0 1.34 0 0.68 0 0 Z " fill="#336894" transform="translate(642,118)"/>
<path d="M0 0 C0.33 0.66 0.66 1.32 1 2 C1.99 2.33 2.98 2.66 4 3 C3.67 4.32 3.34 5.64 3 7 C2.67 6.34 2.34 5.68 2 5 C1.34 5 0.68 5 0 5 C0 5.66 0 6.32 0 7 C-0.66 7 -1.32 7 -2 7 C-2.33 7.66 -2.66 8.32 -3 9 C-3 8.34 -3 7.68 -3 7 C-3.66 6.67 -4.32 6.34 -5 6 C-4.01 6 -3.02 6 -2 6 C-2 4.68 -2 3.36 -2 2 C-1.34 2 -0.68 2 0 2 C0 1.34 0 0.68 0 0 Z " fill="#5F736A" transform="translate(49,237)"/>
<path d="M0 0 C1.32 0 2.64 0 4 0 C4 0.66 4 1.32 4 2 C4.99 2.33 5.98 2.66 7 3 C7.69937532 4.31647119 8.36729133 5.65022151 9 7 C9.66 7.33 10.32 7.66 11 8 C11 8.66 11 9.32 11 10 C9.35 10 7.7 10 6 10 C5.73445312 9.44570312 5.46890625 8.89140625 5.1953125 8.3203125 C4.84210937 7.59585938 4.48890625 6.87140625 4.125 6.125 C3.77695312 5.40570313 3.42890625 4.68640625 3.0703125 3.9453125 C2.03442457 1.84864981 2.03442457 1.84864981 0 0 Z " fill="#225B8B" transform="translate(579,128)"/>
<path d="M0 0 C0.33 0 0.66 0 1 0 C1 3.3 1 6.6 1 10 C1.99 10 2.98 10 4 10 C4 10.66 4 11.32 4 12 C1.36 12 -1.28 12 -4 12 C-4 11.34 -4 10.68 -4 10 C-3.01 10 -2.02 10 -1 10 C-1.020625 8.72125 -1.04125 7.4425 -1.0625 6.125 C-1.125 2.25 -1.125 2.25 0 0 Z " fill="#145184" transform="translate(328,126)"/>
<path d="M0 0 C0.33 0.99 0.66 1.98 1 3 C1.66 3.33 2.32 3.66 3 4 C1.6875 6.9375 1.6875 6.9375 0 10 C-0.99 10.33 -1.98 10.66 -3 11 C-3.32613618 6.32538149 -2.70582788 3.83325617 0 0 Z " fill="#0F4682" transform="translate(91,187)"/>
<path d="M0 0 C0.99 0 1.98 0 3 0 C3 0.66 3 1.32 3 2 C3.66 2 4.32 2 5 2 C4.67 3.32 4.34 4.64 4 6 C2.35 5.67 0.7 5.34 -1 5 C-1 1 -1 1 0 0 Z " fill="#627062" transform="translate(88,246)"/>
<path d="M0 0 C1.65 0 3.3 0 5 0 C5 0.99 5 1.98 5 3 C6.98 2.34 8.96 1.68 11 1 C11 2.66666667 11 4.33333333 11 6 C8.36 5.67 5.72 5.34 3 5 C2.67 4.01 2.34 3.02 2 2 C1.34 1.34 0.68 0.68 0 0 Z " fill="#11447C" transform="translate(65,246)"/>
<path d="M0 0 C0.99 0 1.98 0 3 0 C3.66 1.98 4.32 3.96 5 6 C4.01 6.33 3.02 6.66 2 7 C2 6.01 2 5.02 2 4 C1.34 4 0.68 4 0 4 C0 4.99 0 5.98 0 7 C-0.66 7 -1.32 7 -2 7 C-1.125 1.125 -1.125 1.125 0 0 Z " fill="#255E8D" transform="translate(451,118)"/>
<path d="M0 0 C2.31 0 4.62 0 7 0 C7 0.66 7 1.32 7 2 C5.68 2.33 4.36 2.66 3 3 C3 6.96 3 10.92 3 15 C2.34 14.67 1.68 14.34 1 14 C1.33 10.04 1.66 6.08 2 2 C1.34 2 0.68 2 0 2 C0 1.34 0 0.68 0 0 Z " fill="#5380A4" transform="translate(407,118)"/>
<path d="M0 0 C0.66 0 1.32 0 2 0 C2.66 2.64 3.32 5.28 4 8 C2.02 8 0.04 8 -2 8 C-1.34 5.36 -0.68 2.72 0 0 Z " fill="#E4EBF1" transform="translate(451,122)"/>
<path d="M0 0 C0.99 0 1.98 0 3 0 C3.2475 0.61875 3.495 1.2375 3.75 1.875 C5.01039254 4.45868886 5.01039254 4.45868886 9 6 C3.06 6.495 3.06 6.495 -3 7 C-1.68 6.01 -0.36 5.02 1 4 C0.67 2.68 0.34 1.36 0 0 Z " fill="#08417F" transform="translate(83,247)"/>
<path d="M0 0 C0.33 0 0.66 0 1 0 C1 4.29 1 8.58 1 13 C1.99 13 2.98 13 4 13 C4 13.66 4 14.32 4 15 C1.69 15 -0.62 15 -3 15 C-3 14.34 -3 13.68 -3 13 C-2.01 13 -1.02 13 0 13 C0 8.71 0 4.42 0 0 Z " fill="#135082" transform="translate(611,123)"/>
<path d="M0 0 C0.66 0.33 1.32 0.66 2 1 C2.40729228 3.32156597 2.74438677 5.6568787 3 8 C1.35 8 -0.3 8 -2 8 C-1.125 2.25 -1.125 2.25 0 0 Z " fill="#E5ECF1" transform="translate(230,122)"/>
<path d="M0 0 C0.763125 0.639375 1.52625 1.27875 2.3125 1.9375 C4.88246713 4.14232781 4.88246713 4.14232781 8 5 C8 5.66 8 6.32 8 7 C1.25 6.25 1.25 6.25 -1 4 C-0.625 1.875 -0.625 1.875 0 0 Z " fill="#175485" transform="translate(593,122)"/>
<path d="M0 0 C2.31 0.33 4.62 0.66 7 1 C6.67 2.65 6.34 4.3 6 6 C4.35 6 2.7 6 1 6 C0.67 4.02 0.34 2.04 0 0 Z " fill="#6B775D" transform="translate(133,107)"/>
<path d="M0 0 C2.64 0.33 5.28 0.66 8 1 C8 1.99 8 2.98 8 4 C4.37673261 5.2077558 3.35853631 4.54311128 0 3 C0 2.01 0 1.02 0 0 Z " fill="#144980" transform="translate(91,245)"/>
<path d="M0 0 C0.66 0 1.32 0 2 0 C2 1.32 2 2.64 2 4 C4.31 4 6.62 4 9 4 C9 4.66 9 5.32 9 6 C6.03 6 3.06 6 0 6 C0 4.02 0 2.04 0 0 Z " fill="#1C5788" transform="translate(592,132)"/>
<path d="M0 0 C0.33 0 0.66 0 1 0 C1 3.96 1 7.92 1 12 C1.99 12 2.98 12 4 12 C4 12.66 4 13.32 4 14 C1.69 14 -0.62 14 -3 14 C-3 13.34 -3 12.68 -3 12 C-2.01 12 -1.02 12 0 12 C0 8.04 0 4.08 0 0 Z " fill="#145184" transform="translate(508,124)"/>
<path d="M0 0 C1.39195915 4.17587745 -0.17676781 6.13474776 -2 10 C-2.99 10 -3.98 10 -5 10 C-4.67 8.68 -4.34 7.36 -4 6 C-3.34 6 -2.68 6 -2 6 C-1.855625 5.195625 -1.71125 4.39125 -1.5625 3.5625 C-1 1 -1 1 0 0 Z " fill="#155284" transform="translate(548,128)"/>
<path d="M0 0 C0.33 0 0.66 0 1 0 C1 5.61 1 11.22 1 17 C0.01 17 -0.98 17 -2 17 C-2.33 16.01 -2.66 15.02 -3 14 C-2.01 13.67 -1.02 13.34 0 13 C0 8.71 0 4.42 0 0 Z " fill="#0F4E81" transform="translate(521,121)"/>
<path d="M0 0 C0.33 0 0.66 0 1 0 C1 3.63 1 7.26 1 11 C1.99 11 2.98 11 4 11 C4 11.66 4 12.32 4 13 C1.69 13 -0.62 13 -3 13 C-3 12.34 -3 11.68 -3 11 C-2.01 11 -1.02 11 0 11 C0 7.37 0 3.74 0 0 Z " fill="#145184" transform="translate(397,125)"/>
<path d="M0 0 C2.62386487 3.06117568 3 3.73173127 3 8 C1.35 8 -0.3 8 -2 8 C-1.34 5.36 -0.68 2.72 0 0 Z " fill="#EDF2F5" transform="translate(303,122)"/>
<path d="M0 0 C1.0725 0.2475 2.145 0.495 3.25 0.75 C2.25 2.25 2.25 2.25 0.25 3.75 C-2.46846235 4.02345479 -5.00677199 3.88491285 -7.75 3.75 C-5.15187156 0.32047046 -4.43092205 -0.2953948 0 0 Z " fill="#084180" transform="translate(99.75,252.25)"/>
<path d="M0 0 C0.94875 0.04125 1.8975 0.0825 2.875 0.125 C3.205 1.445 3.535 2.765 3.875 4.125 C5.525 4.125 7.175 4.125 8.875 4.125 C8.875 4.455 8.875 4.785 8.875 5.125 C6.565 5.125 4.255 5.125 1.875 5.125 C1.875 4.465 1.875 3.805 1.875 3.125 C-0.435 2.795 -2.745 2.465 -5.125 2.125 C-3.125 0.125 -3.125 0.125 0 0 Z " fill="#225179" transform="translate(98.125,143.875)"/>
<path d="M0 0 C0.66 0 1.32 0 2 0 C2.144375 1.0725 2.28875 2.145 2.4375 3.25 C2.83749442 5.91662949 3.27591924 8.41399729 4 11 C3.01 10.67 2.02 10.34 1 10 C-0.60725635 6.78548731 -0.05748185 3.56387464 0 0 Z " fill="#145183" transform="translate(486,127)"/>
<path d="M0 0 C2.97 0 5.94 0 9 0 C8.01 0.495 8.01 0.495 7 1 C7.33 1.99 7.66 2.98 8 4 C5 4 5 4 3.3125 2.5 C2.879375 2.005 2.44625 1.51 2 1 C2 1.99 2 2.98 2 4 C1.34 4 0.68 4 0 4 C0 2.68 0 1.36 0 0 Z " fill="#114F82" transform="translate(630,119)"/>
<path d="M0 0 C2.64 0.33 5.28 0.66 8 1 C8 2.65 8 4.3 8 6 C7.34 6 6.68 6 6 6 C6 5.01 6 4.02 6 3 C3.03 2.505 3.03 2.505 0 2 C0 1.34 0 0.68 0 0 Z " fill="#175385" transform="translate(266,118)"/>
<path d="M0 0 C0.66 0 1.32 0 2 0 C2.66 1.98 3.32 3.96 4 6 C1.36 6 -1.28 6 -4 6 C-2.7260411 3.96166576 -1.38938077 1.96147874 0 0 Z " fill="#A69745" transform="translate(116,99)"/>
<path d="M0 0 C3 3.75 3 3.75 3 6 C0.04335481 7.4783226 -2.74229737 7.06032783 -6 7 C-6 6.67 -6 6.34 -6 6 C-4.02 6 -2.04 6 0 6 C-0.2784375 4.7934375 -0.2784375 4.7934375 -0.5625 3.5625 C-0.706875 2.716875 -0.85125 1.87125 -1 1 C-0.67 0.67 -0.34 0.34 0 0 Z " fill="#3A6E97" transform="translate(455,124)"/>
<path d="M0 0 C-0.33 1.98 -0.66 3.96 -1 6 C-1.33 5.01 -1.66 4.02 -2 3 C-3.94603274 2.40929986 -3.94603274 2.40929986 -6 2 C-6.66 1.34 -7.32 0.68 -8 0 C-4.71023192 -1.09658936 -3.28696233 -0.79953138 0 0 Z " fill="#275378" transform="translate(107,105)"/>
<path d="M0 0 C0.66 0 1.32 0 2 0 C2.33 1.98 2.66 3.96 3 6 C1.68 6 0.36 6 -1 6 C-1.042721 4.33388095 -1.04063832 2.66617115 -1 1 C-0.67 0.67 -0.34 0.34 0 0 Z " fill="#627261" transform="translate(123,245)"/>
<path d="M0 0 C2.31 0.66 4.62 1.32 7 2 C6.34 3.32 5.68 4.64 5 6 C2.5 4.6875 2.5 4.6875 0 3 C0 2.01 0 1.02 0 0 Z " fill="#8A8751" transform="translate(63,241)"/>
<path d="M0 0 C1.65 0 3.3 0 5 0 C5 2.64 5 5.28 5 8 C3.68 8 2.36 8 1 8 C1.4640625 7.1028125 1.4640625 7.1028125 1.9375 6.1875 C3.10209704 3.91043228 3.10209704 3.91043228 4 1 C2.68 0.67 1.36 0.34 0 0 Z " fill="#285276" transform="translate(44,226)"/>
<path d="M0 0 C1.98 0 3.96 0 6 0 C5.67 1.32 5.34 2.64 5 4 C3.68 4.33 2.36 4.66 1 5 C0.67 3.35 0.34 1.7 0 0 Z " fill="#818354" transform="translate(106,108)"/>
<path d="M0 0 C1.32 0.33 2.64 0.66 4 1 C3.67 2.65 3.34 4.3 3 6 C2.01 6.33 1.02 6.66 0 7 C0 4.69 0 2.38 0 0 Z " fill="#A39447" transform="translate(109,98)"/>
<path d="M0 0 C-0.66 1.65 -1.32 3.3 -2 5 C-2.66 4.34 -3.32 3.68 -4 3 C-6.58354218 2.83312552 -6.58354218 2.83312552 -9 3 C-9 2.34 -9 1.68 -9 1 C-5.92677456 0.08941469 -3.19902639 -0.08886184 0 0 Z " fill="#908B4E" transform="translate(113,249)"/>
<path d="M0 0 C0.66 0 1.32 0 2 0 C1.01 3.96 0.02 7.92 -1 12 C-1.33 12 -1.66 12 -2 12 C-2.05422947 10.5629191 -2.09289723 9.12524538 -2.125 7.6875 C-2.14820312 6.88699219 -2.17140625 6.08648437 -2.1953125 5.26171875 C-2 3 -2 3 0 0 Z " fill="#113F86" transform="translate(79,180)"/>
<path d="M0 0 C-1 3 -1 3 -3 4 C-4.99960012 4.039992 -7.00047242 4.04346799 -9 4 C-9 3.34 -9 2.68 -9 2 C-2.25 0 -2.25 0 0 0 Z " fill="#1B5687" transform="translate(442,134)"/>
<path d="M0 0 C0.99 0 1.98 0 3 0 C3 0.66 3 1.32 3 2 C3.66 2 4.32 2 5 2 C5 2.66 5 3.32 5 4 C2.69 4 0.38 4 -2 4 C-2 3.34 -2 2.68 -2 2 C-1.34 2 -0.68 2 0 2 C0 1.34 0 0.68 0 0 Z " fill="#1F5A8A" transform="translate(223,134)"/>
<path d="M0 0 C0.66 0.33 1.32 0.66 2 1 C2.625 3.5625 2.625 3.5625 3 6 C1.02 6 -0.96 6 -3 6 C-1.125 1.125 -1.125 1.125 0 0 Z " fill="#A89844" transform="translate(93,99)"/>
<path d="M0 0 C2.0625 0.4375 2.0625 0.4375 4 1 C4 1.99 4 2.98 4 4 C2.68 4.33 1.36 4.66 0 5 C-0.5625 3.0625 -0.5625 3.0625 -1 1 C-0.67 0.67 -0.34 0.34 0 0 Z " fill="#114980" transform="translate(114,186)"/>
<path d="M0 0 C0 0.99 0 1.98 0 3 C-2.31193977 5.07277359 -4.02935582 6.00978527 -7 7 C-3.86206897 0 -3.86206897 0 0 0 Z " fill="#28608E" transform="translate(266,118)"/>
<path d="M0 0 C2.475 0.495 2.475 0.495 5 1 C5.33 2.65 5.66 4.3 6 6 C4.35 5.67 2.7 5.34 1 5 C0.67 3.35 0.34 1.7 0 0 Z " fill="#858453" transform="translate(70,107)"/>
<path d="M0 0 C1.98 0.495 1.98 0.495 4 1 C4 1.99 4 2.98 4 4 C2.35 4 0.7 4 -1 4 C-0.67 2.68 -0.34 1.36 0 0 Z " fill="#28517A" transform="translate(84,174)"/>
<path d="M0 0 C1.65 0 3.3 0 5 0 C5 1.65 5 3.3 5 5 C4.01 5 3.02 5 2 5 C1.34 3.35 0.68 1.7 0 0 Z " fill="#396C97" transform="translate(252,119)"/>
<path d="M0 0 C-0.66 1.32 -1.32 2.64 -2 4 C-2.66 3.67 -3.32 3.34 -4 3 C-4.99 2.67 -5.98 2.34 -7 2 C-7 1.34 -7 0.68 -7 0 C-4.3333581 -1.33332095 -2.83319697 -0.67102033 0 0 Z " fill="#8E894F" transform="translate(83,247)"/>
<path d="M0 0 C0.99 0 1.98 0 3 0 C3.33 1.65 3.66 3.3 4 5 C2.68 5 1.36 5 0 5 C0 4.34 0 3.68 0 3 C-0.66 2.67 -1.32 2.34 -2 2 C-1.34 2 -0.68 2 0 2 C0 1.34 0 0.68 0 0 Z " fill="#6A765E" transform="translate(134,243)"/>
<path d="M0 0 C2 3.75 2 3.75 2 6 C0.68 5.67 -0.64 5.34 -2 5 C-1.125 1.125 -1.125 1.125 0 0 Z " fill="#0E437C" transform="translate(59,241)"/>
<path d="M0 0 C0 0.66 0 1.32 0 2 C-2.64 2 -5.28 2 -8 2 C-8 1.34 -8 0.68 -8 0 C-4.71023192 -1.09658936 -3.28696233 -0.79953138 0 0 Z " fill="#1B5687" transform="translate(285,136)"/>
</svg>
