<svg version="1.1" id="Layer_1" xmlns="http://www.w3.org/2000/svg" xmlns:xlink="http://www.w3.org/1999/xlink" x="0px" y="0px"
	 width="100%" viewBox="0 0 700 350" enable-background="new 0 0 700 350" xml:space="preserve">
<path fill="#FEFEFE" opacity="1.000000" stroke="none" 
	d="
M428.000000,351.000000 
	C285.367157,351.000000 143.234314,351.000000 1.050741,351.000000 
	C1.050741,234.394943 1.050741,117.789848 1.050741,1.092381 
	C234.216202,1.092381 467.432434,1.092381 700.824341,1.092381 
	C700.824341,117.666458 700.824341,234.333206 700.824341,351.000000 
	C610.123108,351.000000 519.311584,351.000000 428.000000,351.000000 
M280.239532,158.005524 
	C277.483917,157.491684 274.735382,156.584290 271.971405,156.534653 
	C261.976196,156.355179 251.974731,156.552338 241.977844,156.428467 
	C236.604553,156.361893 232.305298,158.182419 228.837540,162.326233 
	C224.163055,167.911972 219.322617,173.358810 214.367889,179.079437 
	C209.281189,173.228088 204.322556,167.618774 199.475616,161.914536 
	C196.350235,158.236343 192.469376,156.443863 187.665894,156.456070 
	C177.000961,156.483170 166.335876,156.443802 155.670975,156.474899 
	C150.474976,156.490036 146.330582,158.597397 143.399094,162.947937 
	C128.606277,184.901581 113.684509,206.770844 99.184761,228.916412 
	C97.308853,231.781509 96.436050,236.326630 97.139023,239.663727 
	C99.190781,249.403778 102.177170,258.955200 104.991837,268.523285 
	C106.792786,274.645386 111.619949,278.159851 117.976067,278.230652 
	C125.304527,278.312286 132.636536,278.144348 139.963409,278.279694 
	C146.792175,278.405853 151.250427,275.341400 153.898788,269.096680 
	C159.025955,257.006989 164.442001,245.038910 169.490768,232.917328 
	C172.292557,226.190491 177.214417,223.236374 184.255936,223.237396 
	C204.419220,223.240326 224.582489,223.240814 244.745773,223.236435 
	C251.820679,223.234894 256.665161,226.322693 259.451996,233.012680 
	C264.565826,245.288834 269.952454,257.451447 275.241791,269.654297 
	C277.664368,275.243317 281.819397,278.257629 288.039124,278.234253 
	C295.534912,278.206116 303.031250,278.280121 310.526672,278.221588 
	C317.589569,278.166443 322.009155,274.789185 324.002502,267.918762 
	C326.547363,259.147583 328.906860,250.321732 331.530151,241.574615 
	C333.091034,236.370193 332.142120,231.831482 329.135986,227.397354 
	C314.844360,206.316589 300.674896,185.152939 286.358978,164.088776 
	C284.896210,161.936493 282.746429,160.251144 280.239532,158.005524 
M184.050568,78.691704 
	C185.487778,83.181801 186.924973,87.671906 187.865875,90.611427 
	C183.513931,94.386627 179.599564,96.602730 177.379303,99.944427 
	C172.141037,107.828491 167.603195,116.189194 162.979523,124.467400 
	C157.501663,134.274887 163.000809,143.624176 174.265015,143.797104 
	C180.262161,143.889160 186.271362,144.023972 192.257721,143.753845 
	C198.103104,143.490082 202.536499,145.598297 206.084869,150.175735 
	C208.717911,153.572418 211.652908,156.735062 214.758240,160.357544 
	C217.992142,156.591797 221.082336,153.137665 224.007416,149.548920 
	C227.294678,145.515839 231.374313,143.606781 236.628647,143.769241 
	C242.787933,143.959686 248.957977,143.856903 255.122711,143.804276 
	C267.240509,143.700821 272.566406,134.221939 266.483185,123.616066 
	C262.593140,116.833855 258.547821,110.137184 254.805283,103.274986 
	C251.828796,97.817421 248.558319,92.932846 241.641174,92.791420 
	C242.487671,76.851974 250.538101,67.924370 265.641754,65.826988 
	C268.597778,65.416512 271.698425,65.813408 274.572113,65.146942 
	C275.911163,64.836395 277.748322,62.873756 277.747192,61.661469 
	C277.746094,60.467731 275.782684,58.328510 274.548340,58.228237 
	C260.598358,57.094925 241.732880,62.678005 236.176224,81.124458 
	C235.044983,84.879784 234.505173,88.813271 233.639130,92.918701 
	C227.258636,92.918701 220.944550,92.918709 214.630463,92.918709 
	C208.170624,92.918709 201.710770,92.918701 195.351120,92.918701 
	C194.893753,90.297012 194.499466,88.180031 194.157516,86.054626 
	C190.692078,64.514427 170.694763,56.927528 154.650055,58.295250 
	C153.309280,58.409542 152.151428,60.669605 150.908585,61.932735 
	C152.096497,63.084362 153.102142,64.681458 154.523331,65.262878 
	C155.957489,65.849617 157.809784,65.345428 159.468689,65.462997 
	C169.347260,66.163048 178.102173,69.068283 184.050568,78.691704 
M442.261047,109.528244 
	C442.261047,131.973709 442.261047,154.419174 442.261047,176.939392 
	C446.306793,176.939392 449.755768,176.939392 453.727936,176.939392 
	C453.727936,175.103882 453.728394,173.479950 453.727844,171.856018 
	C453.722168,155.361694 453.726807,138.867355 453.705963,122.373062 
	C453.695587,114.149231 453.674438,114.149254 463.065277,113.123215 
	C463.065277,134.423737 463.065277,155.684387 463.065277,177.021423 
	C466.912964,177.021423 470.361145,177.021423 474.192719,177.021423 
	C474.192719,175.179581 474.192749,173.540253 474.192749,171.900940 
	C474.192749,154.734344 474.324707,137.565964 474.090973,120.402557 
	C474.038849,116.574585 474.961243,114.437149 478.863281,113.934990 
	C480.152069,113.769142 481.408539,113.352249 483.232239,112.918846 
	C483.232239,134.453369 483.232239,155.677597 483.232239,176.852814 
	C487.318420,176.852814 490.881470,176.852814 494.138397,176.852814 
	C494.138397,150.432861 494.138397,124.384872 494.138397,98.025383 
	C487.258331,100.110313 480.860504,102.049095 474.370270,104.015884 
	C474.122314,101.695526 473.936462,99.956291 473.732880,98.051201 
	C467.020508,100.098358 460.680847,102.031853 454.085297,104.043388 
	C453.789032,101.866028 453.534088,99.992134 453.305634,98.313217 
	C449.476562,98.313217 446.050079,98.313217 442.261047,98.313217 
	C442.261047,101.933975 442.261047,105.236855 442.261047,109.528244 
M219.360245,291.051605 
	C229.385147,276.332886 239.482635,261.662445 249.341995,246.833649 
	C250.558014,245.004730 251.628967,241.626389 250.752869,240.228333 
	C249.665405,238.493057 246.489105,237.241074 244.198654,237.214890 
	C224.374634,236.988327 204.545914,236.991669 184.721695,237.209076 
	C182.403870,237.234482 178.996384,238.389526 178.109421,240.078949 
	C177.225708,241.762146 178.237076,245.203842 179.522812,247.140915 
	C189.279327,261.839844 199.298950,276.364258 209.256180,290.929688 
	C212.024002,294.978455 215.176147,295.200439 219.360245,291.051605 
M525.248718,155.630936 
	C529.042603,154.435669 532.836487,153.240402 536.969727,151.938217 
	C535.233093,133.874771 533.520691,116.064079 531.795410,98.118820 
	C521.883423,98.118820 512.452209,98.118820 502.876709,98.118820 
	C502.876709,124.549843 502.876709,150.759293 502.876709,177.022461 
	C514.315247,177.022461 525.402039,177.022461 536.631470,177.022461 
	C536.631470,173.340958 536.631470,169.937943 536.631470,165.987518 
	C528.969666,165.987518 521.561340,165.987518 514.387390,165.987518 
	C512.825745,160.557144 514.597534,157.871445 519.693420,157.261108 
	C521.322021,157.066071 522.887939,156.347687 525.248718,155.630936 
M401.229828,98.826378 
	C401.229828,102.100868 401.229828,105.375366 401.229828,109.167145 
	C409.033478,109.167145 416.437256,109.167145 423.746033,109.167145 
	C423.746033,111.806793 423.746033,113.907570 423.746033,116.106285 
	C416.132172,118.494514 408.721954,120.818871 401.197540,123.179039 
	C402.798859,141.272003 404.376038,159.092255 405.949493,176.870575 
	C415.966949,176.870575 425.516083,176.870575 435.094604,176.870575 
	C435.094604,150.455856 435.094604,124.378258 435.094604,98.170074 
	C423.846893,98.170074 412.875946,98.170074 401.229828,98.826378 
M362.930084,141.500000 
	C362.930084,153.282532 362.930084,165.065063 362.930084,177.376465 
	C370.067657,177.376465 376.799835,177.376465 383.539093,177.376465 
	C383.769958,179.805313 383.950775,181.707886 384.131622,183.610535 
	C387.918579,183.610535 391.333588,183.610535 394.939087,183.610535 
	C394.939087,169.214020 394.939087,155.116791 394.939087,140.473862 
	C387.882874,142.593399 381.142548,144.618042 374.238190,146.691956 
	C374.238190,133.929047 374.238190,121.809410 374.238190,109.771996 
	C377.493774,109.771996 380.537689,109.771996 383.996094,109.771996 
	C383.996094,116.762512 383.996094,123.335251 383.996094,129.756638 
	C387.983124,129.756638 391.522980,129.756638 394.848999,129.756638 
	C394.848999,119.072105 394.848999,108.808250 394.848999,98.395737 
	C384.154541,98.395737 373.749084,98.395737 362.930084,98.395737 
	C362.930084,112.599792 362.930084,126.549896 362.930084,141.500000 
M491.820038,207.607910 
	C491.119080,200.872742 490.418152,194.137589 489.718140,187.411514 
	C479.832458,187.411514 470.447815,187.411514 461.138092,187.411514 
	C461.138092,213.865341 461.138092,239.927277 461.138092,265.966553 
	C472.455658,265.966553 483.385101,265.966553 494.507568,265.966553 
	C494.507568,262.328613 494.507568,258.977631 494.507568,255.110779 
	C486.873322,255.110779 479.619324,255.110779 472.459290,255.110779 
	C471.514343,248.365158 471.513184,248.361481 477.082855,246.622238 
	C482.937653,244.793945 488.794952,242.973679 494.892670,241.074692 
	C493.857513,230.012695 492.851807,219.265274 491.820038,207.607910 
M383.658997,265.627045 
	C387.164948,266.028046 390.670868,266.429047 394.431091,266.859100 
	C394.431091,239.822708 394.431091,213.620377 394.431091,187.333176 
	C390.668365,187.333176 387.264008,187.333176 383.369781,187.333176 
	C383.369781,199.939240 383.370361,212.230560 383.369598,224.521881 
	C383.369080,232.605347 383.031342,232.955811 373.973389,233.859756 
	C373.973389,218.408295 373.973389,202.995834 373.973389,187.372803 
	C370.112488,187.372803 366.721283,187.372803 363.099976,187.372803 
	C363.099976,213.769531 363.099976,239.850922 363.099976,266.223450 
	C366.703766,266.223450 370.121674,266.223450 373.971985,266.223450 
	C373.971985,259.416077 373.971985,252.816483 373.971985,245.951324 
	C377.085571,245.014252 379.872162,244.175598 383.428436,243.105286 
	C383.428436,250.854095 383.428436,257.819458 383.658997,265.627045 
M588.344116,121.326233 
	C588.749207,117.448914 589.154297,113.571587 589.576233,109.532997 
	C591.935547,109.532997 594.341858,109.532997 596.711975,109.532997 
	C598.923950,128.103394 598.923523,128.102692 583.419189,136.950348 
	C582.265076,137.608948 580.972107,138.125961 580.020508,139.007645 
	C579.157043,139.807739 578.116577,141.009476 578.104553,142.045197 
	C577.969971,153.645493 578.019470,165.247940 578.019470,176.956223 
	C588.457458,176.956223 598.364075,176.956223 608.398682,176.956223 
	C608.398682,167.695709 608.398682,158.702774 608.398682,149.842560 
	C599.174561,151.437897 594.777771,156.350342 597.485229,165.827774 
	C594.239258,165.827774 591.850769,165.827774 589.149658,165.827774 
	C589.149658,163.563629 589.468079,161.530396 589.096375,159.632339 
	C587.136597,149.625992 590.906860,143.228790 600.701050,140.287628 
	C607.419495,138.270096 609.414185,133.817062 608.862427,126.805061 
	C608.125183,117.434692 608.680054,107.962654 608.680054,98.419510 
	C598.119324,98.419510 588.214111,98.419510 578.138184,98.419510 
	C578.138184,107.454033 578.138184,116.207779 578.138184,125.568161 
	C581.544983,124.213699 584.593323,123.001724 588.344116,121.326233 
M455.222778,193.838623 
	C455.459167,191.758575 455.695557,189.678528 455.955170,187.394318 
	C452.094513,187.394318 448.696106,187.394318 445.075287,187.394318 
	C442.590027,207.822906 440.141052,227.953232 437.692047,248.083557 
	C437.433563,248.087738 437.175079,248.091904 436.916595,248.096085 
	C434.474548,227.867874 432.032532,207.639648 429.583557,187.354141 
	C425.685516,187.354141 422.274475,187.354141 418.447906,187.354141 
	C421.610901,213.882904 424.733490,240.072830 427.853210,266.238647 
	C434.481506,266.238647 440.431183,266.238647 446.671875,266.238647 
	C449.522797,242.251236 452.346680,218.491089 455.222778,193.838623 
M572.810242,104.559319 
	C572.553101,102.450508 572.296021,100.341698 572.044373,98.278015 
	C562.258728,98.278015 552.832214,98.278015 543.200562,98.278015 
	C543.200562,124.663628 543.200562,150.775284 543.200562,177.095383 
	C546.816711,177.095383 550.364197,177.095383 554.350586,177.095383 
	C554.350586,154.323975 554.350586,131.898132 554.350586,109.423828 
	C557.200500,109.423828 559.603516,109.423828 562.243042,109.423828 
	C562.652161,113.775063 563.034729,117.843910 563.401550,121.744858 
	C567.385193,121.744858 570.792114,121.744858 574.458496,121.744858 
	C573.912720,116.067757 573.403137,110.766983 572.810242,104.559319 
M402.518158,215.024445 
	C402.518158,232.110703 402.518158,249.196976 402.518158,266.115723 
	C406.759460,266.115723 410.189880,266.115723 413.599304,266.115723 
	C413.599304,247.997894 413.599304,230.257858 413.599304,211.091919 
	C409.502228,212.218658 406.031464,213.173172 402.518158,215.024445 
M402.729004,200.644577 
	C406.325439,201.073135 409.921844,201.501678 413.578918,201.937469 
	C413.578918,196.454254 413.578918,191.935837 413.578918,187.294647 
	C409.810181,187.294647 406.416870,187.294647 402.528625,187.294647 
	C402.528625,191.621933 402.528625,195.710037 402.729004,200.644577 
z"/>
<path fill="#030303" opacity="1.000000" stroke="none" 
	d="
M280.577515,158.177322 
	C282.746429,160.251144 284.896210,161.936493 286.358978,164.088776 
	C300.674896,185.152939 314.844360,206.316589 329.135986,227.397354 
	C332.142120,231.831482 333.091034,236.370193 331.530151,241.574615 
	C328.906860,250.321732 326.547363,259.147583 324.002502,267.918762 
	C322.009155,274.789185 317.589569,278.166443 310.526672,278.221588 
	C303.031250,278.280121 295.534912,278.206116 288.039124,278.234253 
	C281.819397,278.257629 277.664368,275.243317 275.241791,269.654297 
	C269.952454,257.451447 264.565826,245.288834 259.451996,233.012680 
	C256.665161,226.322693 251.820679,223.234894 244.745773,223.236435 
	C224.582489,223.240814 204.419220,223.240326 184.255936,223.237396 
	C177.214417,223.236374 172.292557,226.190491 169.490768,232.917328 
	C164.442001,245.038910 159.025955,257.006989 153.898788,269.096680 
	C151.250427,275.341400 146.792175,278.405853 139.963409,278.279694 
	C132.636536,278.144348 125.304527,278.312286 117.976067,278.230652 
	C111.619949,278.159851 106.792786,274.645386 104.991837,268.523285 
	C102.177170,258.955200 99.190781,249.403778 97.139023,239.663727 
	C96.436050,236.326630 97.308853,231.781509 99.184761,228.916412 
	C113.684509,206.770844 128.606277,184.901581 143.399094,162.947937 
	C146.330582,158.597397 150.474976,156.490036 155.670975,156.474899 
	C166.335876,156.443802 177.000961,156.483170 187.665894,156.456070 
	C192.469376,156.443863 196.350235,158.236343 199.475616,161.914536 
	C204.322556,167.618774 209.281189,173.228088 214.367889,179.079437 
	C219.322617,173.358810 224.163055,167.911972 228.837540,162.326233 
	C232.305298,158.182419 236.604553,156.361893 241.977844,156.428467 
	C251.974731,156.552338 261.976196,156.355179 271.971405,156.534653 
	C274.735382,156.584290 277.483917,157.491684 280.577515,158.177322 
M157.588913,180.851364 
	C157.522415,189.505478 157.934860,189.232834 149.940353,188.843628 
	C145.092880,188.607635 144.132126,190.550934 144.066071,194.926041 
	C143.997070,199.494766 145.722717,200.931351 149.932632,200.379135 
	C151.076141,200.229141 152.256805,200.380554 153.419586,200.355545 
	C156.288086,200.293869 157.761398,201.498352 157.553848,204.548737 
	C157.418854,206.532959 157.319916,208.572220 157.641724,210.514435 
	C157.823303,211.610382 158.665619,213.102005 159.594727,213.486526 
	C165.390457,215.885101 169.038010,213.309921 169.044205,207.039429 
	C169.050797,200.372742 169.065460,200.090240 176.085556,200.454697 
	C180.827698,200.700882 182.414948,199.316254 182.326630,194.403763 
	C182.246216,189.929871 180.848114,188.688416 176.541611,188.856369 
	C169.100876,189.146591 169.091644,188.911987 169.044601,181.318283 
	C169.042542,180.985916 169.013336,180.650116 169.049225,180.321655 
	C169.383560,177.262680 168.341858,175.298264 164.950928,175.869034 
	C162.081009,176.352097 157.228516,173.572144 157.588913,180.851364 
M251.289108,195.966110 
	C252.484467,199.038040 254.580124,201.376083 257.961853,200.187454 
	C259.747742,199.559753 261.609558,197.394684 262.210663,195.528641 
	C263.331879,192.047958 260.808411,188.374481 257.513885,188.278839 
	C252.973572,188.147034 251.174744,190.984222 251.289108,195.966110 
M270.552643,210.280197 
	C271.648987,208.248245 273.583160,206.207047 273.560883,204.187439 
	C273.544769,202.727341 271.064209,200.318024 269.440826,200.095337 
	C267.337555,199.806808 264.554077,200.758591 262.912231,202.166367 
	C261.863586,203.065491 261.525391,206.836243 262.308380,207.434158 
	C264.410126,209.039124 267.285980,209.630310 270.552643,210.280197 
M263.321686,179.505157 
	C260.557556,184.343811 261.835083,188.650238 266.505463,188.819595 
	C268.745514,188.900833 271.596252,187.456604 273.131226,185.761993 
	C274.013245,184.788223 273.486389,181.411407 272.415070,180.031494 
	C270.230804,177.218063 267.045441,177.031204 263.321686,179.505157 
M274.087341,198.111267 
	C278.418304,201.601166 282.944153,200.991867 283.726776,196.437592 
	C284.105377,194.234589 283.058380,191.230942 281.593994,189.477386 
	C280.729584,188.442322 277.377228,188.393143 275.863068,189.219177 
	C272.684631,190.953110 272.153564,194.083405 274.087341,198.111267 
z"/>
<path fill="#040404" opacity="1.000000" stroke="none" 
	d="
M183.886627,78.352051 
	C178.102173,69.068283 169.347260,66.163048 159.468689,65.462997 
	C157.809784,65.345428 155.957489,65.849617 154.523331,65.262878 
	C153.102142,64.681458 152.096497,63.084362 150.908585,61.932735 
	C152.151428,60.669605 153.309280,58.409542 154.650055,58.295250 
	C170.694763,56.927528 190.692078,64.514427 194.157516,86.054626 
	C194.499466,88.180031 194.893753,90.297012 195.351120,92.918701 
	C201.710770,92.918701 208.170624,92.918709 214.630463,92.918709 
	C220.944550,92.918709 227.258636,92.918701 233.639130,92.918701 
	C234.505173,88.813271 235.044983,84.879784 236.176224,81.124458 
	C241.732880,62.678005 260.598358,57.094925 274.548340,58.228237 
	C275.782684,58.328510 277.746094,60.467731 277.747192,61.661469 
	C277.748322,62.873756 275.911163,64.836395 274.572113,65.146942 
	C271.698425,65.813408 268.597778,65.416512 265.641754,65.826988 
	C250.538101,67.924370 242.487671,76.851974 241.641174,92.791420 
	C248.558319,92.932846 251.828796,97.817421 254.805283,103.274986 
	C258.547821,110.137184 262.593140,116.833855 266.483185,123.616066 
	C272.566406,134.221939 267.240509,143.700821 255.122711,143.804276 
	C248.957977,143.856903 242.787933,143.959686 236.628647,143.769241 
	C231.374313,143.606781 227.294678,145.515839 224.007416,149.548920 
	C221.082336,153.137665 217.992142,156.591797 214.758240,160.357544 
	C211.652908,156.735062 208.717911,153.572418 206.084869,150.175735 
	C202.536499,145.598297 198.103104,143.490082 192.257721,143.753845 
	C186.271362,144.023972 180.262161,143.889160 174.265015,143.797104 
	C163.000809,143.624176 157.501663,134.274887 162.979523,124.467400 
	C167.603195,116.189194 172.141037,107.828491 177.379303,99.944427 
	C179.599564,96.602730 183.513931,94.386627 187.865875,90.611427 
	C186.924973,87.671906 185.487778,83.181801 183.886627,78.352051 
z"/>
<path fill="#0C0C0C" opacity="1.000000" stroke="none" 
	d="
M442.261047,109.033981 
	C442.261047,105.236855 442.261047,101.933975 442.261047,98.313217 
	C446.050079,98.313217 449.476562,98.313217 453.305634,98.313217 
	C453.534088,99.992134 453.789032,101.866028 454.085297,104.043388 
	C460.680847,102.031853 467.020508,100.098358 473.732880,98.051201 
	C473.936462,99.956291 474.122314,101.695526 474.370270,104.015884 
	C480.860504,102.049095 487.258331,100.110313 494.138397,98.025383 
	C494.138397,124.384872 494.138397,150.432861 494.138397,176.852814 
	C490.881470,176.852814 487.318420,176.852814 483.232239,176.852814 
	C483.232239,155.677597 483.232239,134.453369 483.232239,112.918846 
	C481.408539,113.352249 480.152069,113.769142 478.863281,113.934990 
	C474.961243,114.437149 474.038849,116.574585 474.090973,120.402557 
	C474.324707,137.565964 474.192749,154.734344 474.192749,171.900940 
	C474.192749,173.540253 474.192719,175.179581 474.192719,177.021423 
	C470.361145,177.021423 466.912964,177.021423 463.065277,177.021423 
	C463.065277,155.684387 463.065277,134.423737 463.065277,113.123215 
	C453.674438,114.149254 453.695587,114.149231 453.705963,122.373062 
	C453.726807,138.867355 453.722168,155.361694 453.727844,171.856018 
	C453.728394,173.479950 453.727936,175.103882 453.727936,176.939392 
	C449.755768,176.939392 446.306793,176.939392 442.261047,176.939392 
	C442.261047,154.419174 442.261047,131.973709 442.261047,109.033981 
z"/>
<path fill="#040404" opacity="1.000000" stroke="none" 
	d="
M219.159180,291.369751 
	C215.176147,295.200439 212.024002,294.978455 209.256180,290.929688 
	C199.298950,276.364258 189.279327,261.839844 179.522812,247.140915 
	C178.237076,245.203842 177.225708,241.762146 178.109421,240.078949 
	C178.996384,238.389526 182.403870,237.234482 184.721695,237.209076 
	C204.545914,236.991669 224.374634,236.988327 244.198654,237.214890 
	C246.489105,237.241074 249.665405,238.493057 250.752869,240.228333 
	C251.628967,241.626389 250.558014,245.004730 249.341995,246.833649 
	C239.482635,261.662445 229.385147,276.332886 219.159180,291.369751 
z"/>
<path fill="#060606" opacity="1.000000" stroke="none" 
	d="
M524.865601,155.749847 
	C522.887939,156.347687 521.322021,157.066071 519.693420,157.261108 
	C514.597534,157.871445 512.825745,160.557144 514.387390,165.987518 
	C521.561340,165.987518 528.969666,165.987518 536.631470,165.987518 
	C536.631470,169.937943 536.631470,173.340958 536.631470,177.022461 
	C525.402039,177.022461 514.315247,177.022461 502.876709,177.022461 
	C502.876709,150.759293 502.876709,124.549843 502.876709,98.118820 
	C512.452209,98.118820 521.883423,98.118820 531.795410,98.118820 
	C533.520691,116.064079 535.233093,133.874771 536.969727,151.938217 
	C532.836487,153.240402 529.042603,154.435669 524.865601,155.749847 
M523.957336,132.407181 
	C523.236816,124.687706 522.516296,116.968224 521.805786,109.356277 
	C518.893372,109.356277 516.633484,109.356277 514.270386,109.356277 
	C514.270386,122.124054 514.270386,134.614349 514.270386,147.571838 
	C518.142700,146.308929 521.557556,145.195221 525.154724,144.022049 
	C524.753113,140.238312 524.385864,136.778687 523.957336,132.407181 
z"/>
<path fill="#060606" opacity="1.000000" stroke="none" 
	d="
M401.567413,98.498230 
	C412.875946,98.170074 423.846893,98.170074 435.094604,98.170074 
	C435.094604,124.378258 435.094604,150.455856 435.094604,176.870575 
	C425.516083,176.870575 415.966949,176.870575 405.949493,176.870575 
	C404.376038,159.092255 402.798859,141.272003 401.197540,123.179039 
	C408.721954,120.818871 416.132172,118.494514 423.746033,116.106285 
	C423.746033,113.907570 423.746033,111.806793 423.746033,109.167145 
	C416.437256,109.167145 409.033478,109.167145 401.229828,109.167145 
	C401.229828,105.375366 401.229828,102.100868 401.567413,98.498230 
M424.029846,150.496994 
	C424.029846,143.056061 424.029846,135.615128 424.029846,127.602898 
	C419.989502,128.897934 416.567627,129.994736 412.844482,131.188110 
	C413.941681,142.960587 415.014648,154.473083 416.073059,165.829193 
	C419.039276,165.829193 421.422729,165.829193 424.029846,165.829193 
	C424.029846,160.792725 424.029846,156.144226 424.029846,150.496994 
z"/>
<path fill="#060606" opacity="1.000000" stroke="none" 
	d="
M362.930084,141.000000 
	C362.930084,126.549896 362.930084,112.599792 362.930084,98.395737 
	C373.749084,98.395737 384.154541,98.395737 394.848999,98.395737 
	C394.848999,108.808250 394.848999,119.072105 394.848999,129.756638 
	C391.522980,129.756638 387.983124,129.756638 383.996094,129.756638 
	C383.996094,123.335251 383.996094,116.762512 383.996094,109.771996 
	C380.537689,109.771996 377.493774,109.771996 374.238190,109.771996 
	C374.238190,121.809410 374.238190,133.929047 374.238190,146.691956 
	C381.142548,144.618042 387.882874,142.593399 394.939087,140.473862 
	C394.939087,155.116791 394.939087,169.214020 394.939087,183.610535 
	C391.333588,183.610535 387.918579,183.610535 384.131622,183.610535 
	C383.950775,181.707886 383.769958,179.805313 383.539093,177.376465 
	C376.799835,177.376465 370.067657,177.376465 362.930084,177.376465 
	C362.930084,165.065063 362.930084,153.282532 362.930084,141.000000 
M380.412415,166.195206 
	C387.681335,164.332047 381.954376,158.915009 384.473206,155.179749 
	C373.138611,157.873383 373.138611,157.873383 374.698700,166.196259 
	C376.242096,166.196259 377.859039,166.196259 380.412415,166.195206 
z"/>
<path fill="#FFBA07" opacity="1.000000" stroke="none" 
	d="
M491.833069,208.062881 
	C492.851807,219.265274 493.857513,230.012695 494.892670,241.074692 
	C488.794952,242.973679 482.937653,244.793945 477.082855,246.622238 
	C471.513184,248.361481 471.514343,248.365158 472.459290,255.110779 
	C479.619324,255.110779 486.873322,255.110779 494.507568,255.110779 
	C494.507568,258.977631 494.507568,262.328613 494.507568,265.966553 
	C483.385101,265.966553 472.455658,265.966553 461.138092,265.966553 
	C461.138092,239.927277 461.138092,213.865341 461.138092,187.411514 
	C470.447815,187.411514 479.832458,187.411514 489.718140,187.411514 
	C490.418152,194.137589 491.119080,200.872742 491.833069,208.062881 
M482.565460,232.901962 
	C481.751129,223.325073 480.958527,213.746246 480.114990,204.171936 
	C479.523590,197.460022 478.963043,197.118652 472.187866,198.964294 
	C472.187866,211.341492 472.187866,223.700592 472.187866,236.655945 
	C475.797943,235.515610 478.923126,234.528427 482.565460,232.901962 
z"/>
<path fill="#FFBB0B" opacity="1.000000" stroke="none" 
	d="
M383.543701,265.205933 
	C383.428436,257.819458 383.428436,250.854095 383.428436,243.105286 
	C379.872162,244.175598 377.085571,245.014252 373.971985,245.951324 
	C373.971985,252.816483 373.971985,259.416077 373.971985,266.223450 
	C370.121674,266.223450 366.703766,266.223450 363.099976,266.223450 
	C363.099976,239.850922 363.099976,213.769531 363.099976,187.372803 
	C366.721283,187.372803 370.112488,187.372803 373.973389,187.372803 
	C373.973389,202.995834 373.973389,218.408295 373.973389,233.859756 
	C383.031342,232.955811 383.369080,232.605347 383.369598,224.521881 
	C383.370361,212.230560 383.369781,199.939240 383.369781,187.333176 
	C387.264008,187.333176 390.668365,187.333176 394.431091,187.333176 
	C394.431091,213.620377 394.431091,239.822708 394.431091,266.859100 
	C390.670868,266.429047 387.164948,266.028046 383.543701,265.205933 
z"/>
<path fill="#0A0A0A" opacity="1.000000" stroke="none" 
	d="
M587.992920,121.557999 
	C584.593323,123.001724 581.544983,124.213699 578.138184,125.568161 
	C578.138184,116.207779 578.138184,107.454033 578.138184,98.419510 
	C588.214111,98.419510 598.119324,98.419510 608.680054,98.419510 
	C608.680054,107.962654 608.125183,117.434692 608.862427,126.805061 
	C609.414185,133.817062 607.419495,138.270096 600.701050,140.287628 
	C590.906860,143.228790 587.136597,149.625992 589.096375,159.632339 
	C589.468079,161.530396 589.149658,163.563629 589.149658,165.827774 
	C591.850769,165.827774 594.239258,165.827774 597.485229,165.827774 
	C594.777771,156.350342 599.174561,151.437897 608.398682,149.842560 
	C608.398682,158.702774 608.398682,167.695709 608.398682,176.956223 
	C598.364075,176.956223 588.457458,176.956223 578.019470,176.956223 
	C578.019470,165.247940 577.969971,153.645493 578.104553,142.045197 
	C578.116577,141.009476 579.157043,139.807739 580.020508,139.007645 
	C580.972107,138.125961 582.265076,137.608948 583.419189,136.950348 
	C598.923523,128.102692 598.923950,128.103394 596.711975,109.532997 
	C594.341858,109.532997 591.935547,109.532997 589.576233,109.532997 
	C589.154297,113.571587 588.749207,117.448914 587.992920,121.557999 
z"/>
<path fill="#FFBA09" opacity="1.000000" stroke="none" 
	d="
M455.196686,194.284790 
	C452.346680,218.491089 449.522797,242.251236 446.671875,266.238647 
	C440.431183,266.238647 434.481506,266.238647 427.853210,266.238647 
	C424.733490,240.072830 421.610901,213.882904 418.447906,187.354141 
	C422.274475,187.354141 425.685516,187.354141 429.583557,187.354141 
	C432.032532,207.639648 434.474548,227.867874 436.916595,248.096085 
	C437.175079,248.091904 437.433563,248.087738 437.692047,248.083557 
	C440.141052,227.953232 442.590027,207.822906 445.075287,187.394318 
	C448.696106,187.394318 452.094513,187.394318 455.955170,187.394318 
	C455.695557,189.678528 455.459167,191.758575 455.196686,194.284790 
z"/>
<path fill="#060606" opacity="1.000000" stroke="none" 
	d="
M572.851929,105.012764 
	C573.403137,110.766983 573.912720,116.067757 574.458496,121.744858 
	C570.792114,121.744858 567.385193,121.744858 563.401550,121.744858 
	C563.034729,117.843910 562.652161,113.775063 562.243042,109.423828 
	C559.603516,109.423828 557.200500,109.423828 554.350586,109.423828 
	C554.350586,131.898132 554.350586,154.323975 554.350586,177.095383 
	C550.364197,177.095383 546.816711,177.095383 543.200562,177.095383 
	C543.200562,150.775284 543.200562,124.663628 543.200562,98.278015 
	C552.832214,98.278015 562.258728,98.278015 572.044373,98.278015 
	C572.296021,100.341698 572.553101,102.450508 572.851929,105.012764 
z"/>
<path fill="#FFB906" opacity="1.000000" stroke="none" 
	d="
M402.539429,214.576065 
	C406.031464,213.173172 409.502228,212.218658 413.599304,211.091919 
	C413.599304,230.257858 413.599304,247.997894 413.599304,266.115723 
	C410.189880,266.115723 406.759460,266.115723 402.518158,266.115723 
	C402.518158,249.196976 402.518158,232.110703 402.539429,214.576065 
z"/>
<path fill="#FFBC0F" opacity="1.000000" stroke="none" 
	d="
M402.628815,200.221344 
	C402.528625,195.710037 402.528625,191.621933 402.528625,187.294647 
	C406.416870,187.294647 409.810181,187.294647 413.578918,187.294647 
	C413.578918,191.935837 413.578918,196.454254 413.578918,201.937469 
	C409.921844,201.501678 406.325439,201.073135 402.628815,200.221344 
z"/>
<path fill="#FAFAFA" opacity="1.000000" stroke="none" 
	d="
M157.580414,180.400711 
	C157.228516,173.572144 162.081009,176.352097 164.950928,175.869034 
	C168.341858,175.298264 169.383560,177.262680 169.049225,180.321655 
	C169.013336,180.650116 169.042542,180.985916 169.044601,181.318283 
	C169.091644,188.911987 169.100876,189.146591 176.541611,188.856369 
	C180.848114,188.688416 182.246216,189.929871 182.326630,194.403763 
	C182.414948,199.316254 180.827698,200.700882 176.085556,200.454697 
	C169.065460,200.090240 169.050797,200.372742 169.044205,207.039429 
	C169.038010,213.309921 165.390457,215.885101 159.594727,213.486526 
	C158.665619,213.102005 157.823303,211.610382 157.641724,210.514435 
	C157.319916,208.572220 157.418854,206.532959 157.553848,204.548737 
	C157.761398,201.498352 156.288086,200.293869 153.419586,200.355545 
	C152.256805,200.380554 151.076141,200.229141 149.932632,200.379135 
	C145.722717,200.931351 143.997070,199.494766 144.066071,194.926041 
	C144.132126,190.550934 145.092880,188.607635 149.940353,188.843628 
	C157.934860,189.232834 157.522415,189.505478 157.580414,180.400711 
z"/>
<path fill="#F3F3F3" opacity="1.000000" stroke="none" 
	d="
M251.212585,195.593536 
	C251.174744,190.984222 252.973572,188.147034 257.513885,188.278839 
	C260.808411,188.374481 263.331879,192.047958 262.210663,195.528641 
	C261.609558,197.394684 259.747742,199.559753 257.961853,200.187454 
	C254.580124,201.376083 252.484467,199.038040 251.212585,195.593536 
z"/>
<path fill="#F2F2F2" opacity="1.000000" stroke="none" 
	d="
M270.203552,210.452148 
	C267.285980,209.630310 264.410126,209.039124 262.308380,207.434158 
	C261.525391,206.836243 261.863586,203.065491 262.912231,202.166367 
	C264.554077,200.758591 267.337555,199.806808 269.440826,200.095337 
	C271.064209,200.318024 273.544769,202.727341 273.560883,204.187439 
	C273.583160,206.207047 271.648987,208.248245 270.203552,210.452148 
z"/>
<path fill="#F3F3F2" opacity="1.000000" stroke="none" 
	d="
M263.630493,179.277100 
	C267.045441,177.031204 270.230804,177.218063 272.415070,180.031494 
	C273.486389,181.411407 274.013245,184.788223 273.131226,185.761993 
	C271.596252,187.456604 268.745514,188.900833 266.505463,188.819595 
	C261.835083,188.650238 260.557556,184.343811 263.630493,179.277100 
z"/>
<path fill="#F4F4F4" opacity="1.000000" stroke="none" 
	d="
M273.921204,197.765564 
	C272.153564,194.083405 272.684631,190.953110 275.863068,189.219177 
	C277.377228,188.393143 280.729584,188.442322 281.593994,189.477386 
	C283.058380,191.230942 284.105377,194.234589 283.726776,196.437592 
	C282.944153,200.991867 278.418304,201.601166 273.921204,197.765564 
z"/>
<path fill="#F4F4F4" opacity="1.000000" stroke="none" 
	d="
M523.987976,132.863113 
	C524.385864,136.778687 524.753113,140.238312 525.154724,144.022049 
	C521.557556,145.195221 518.142700,146.308929 514.270386,147.571838 
	C514.270386,134.614349 514.270386,122.124054 514.270386,109.356277 
	C516.633484,109.356277 518.893372,109.356277 521.805786,109.356277 
	C522.516296,116.968224 523.236816,124.687706 523.987976,132.863113 
z"/>
<path fill="#F5F5F5" opacity="1.000000" stroke="none" 
	d="
M424.029846,150.996368 
	C424.029846,156.144226 424.029846,160.792725 424.029846,165.829193 
	C421.422729,165.829193 419.039276,165.829193 416.073059,165.829193 
	C415.014648,154.473083 413.941681,142.960587 412.844482,131.188110 
	C416.567627,129.994736 419.989502,128.897934 424.029846,127.602898 
	C424.029846,135.615128 424.029846,143.056061 424.029846,150.996368 
z"/>
<path fill="#ECECEC" opacity="1.000000" stroke="none" 
	d="
M379.944214,166.195740 
	C377.859039,166.196259 376.242096,166.196259 374.698700,166.196259 
	C373.138611,157.873383 373.138611,157.873383 384.473206,155.179749 
	C381.954376,158.915009 387.681335,164.332047 379.944214,166.195740 
z"/>
<path fill="#FFFDF6" opacity="1.000000" stroke="none" 
	d="
M482.306885,233.221603 
	C478.923126,234.528427 475.797943,235.515610 472.187866,236.655945 
	C472.187866,223.700592 472.187866,211.341492 472.187866,198.964294 
	C478.963043,197.118652 479.523590,197.460022 480.114990,204.171936 
	C480.958527,213.746246 481.751129,223.325073 482.306885,233.221603 
z"/>
</svg>