<?xml version="1.0" encoding="UTF-8"?>
<svg version="1.1" xmlns="http://www.w3.org/2000/svg" width="1440" height="810">
<path d="M0 0 C475.2 0 950.4 0 1440 0 C1440 267.3 1440 534.6 1440 810 C964.8 810 489.6 810 0 810 C0 542.7 0 275.4 0 0 Z " fill="#FEFEFE" transform="translate(0,0)"/>
<path d="M0 0 C7.7457545 4.54518602 15.50580302 9.06026484 23.3125 13.5 C30.76121689 17.73802649 38.1695016 22.04057351 45.5625 26.375 C53.98557776 31.31202875 62.46800814 36.1288321 71 40.875 C78.37900931 44.98237518 85.69360183 49.12278616 92.828125 53.64453125 C95.08976346 55.05065464 97.35534845 56.38950773 99.671875 57.69921875 C111.00220146 64.15012177 118.57373903 70.78371709 122.8125 83.5 C123.78064356 95.41927566 122.50852138 105.60682872 114.625 114.9375 C107.27330864 122.44586675 98.92285476 126.37101138 88.4375 126.8125 C79.70573915 126.5120183 72.14650672 122.96171019 64.6875 118.6875 C63.83623535 118.20958008 62.9849707 117.73166016 62.10791016 117.23925781 C53.37601778 112.31228005 44.72570672 107.24097885 36.078125 102.16796875 C29.71478965 98.43674029 23.32900445 94.74521942 16.9375 91.0625 C15.85774902 90.44020508 14.77799805 89.81791016 13.66552734 89.17675781 C11.47535466 87.91471274 9.28508757 86.65283148 7.09472656 85.39111328 C3.83075673 83.51051894 0.56755811 81.62859454 -2.6953125 79.74609375 C-3.76797363 79.12726318 -4.84063477 78.50843262 -5.94580078 77.87084961 C-8.09812339 76.62870108 -10.25014425 75.38602956 -12.40185547 74.14282227 C-17.41893913 71.24513533 -22.4389144 68.35296113 -27.47192383 65.48303223 C-29.23865824 64.47521977 -31.00425502 63.4654422 -32.76953125 62.45507812 C-34.97303709 61.19467279 -37.17861691 59.93788302 -39.38671875 58.68554688 C-58.55457317 47.70268535 -58.55457317 47.70268535 -64.1875 37.5 C-64.785625 36.4275 -65.38375 35.355 -66 34.25 C-69.57595898 25.96883183 -69.34382918 16.57674172 -66.125 8.25 C-61.13337263 -2.4304094 -53.62242879 -8.52602848 -42.75 -12.875 C-26.03706759 -15.80709341 -13.94741456 -8.22771157 0 0 Z " fill="#109D58" transform="translate(529.1875,313.5)"/>
<path d="M0 0 C1.40824017 0.85520065 2.80937546 1.72221141 4.203125 2.60083008 C6.17399381 3.84006364 8.16713207 5.02291189 10.18212891 6.1887207 C12.94444655 7.78804659 15.69425034 9.40600067 18.43603516 11.0402832 C24.19808729 14.46326024 30.00985591 17.79937029 35.81884766 21.1418457 C44.45846214 26.11704595 53.08519728 31.11325004 61.69384766 36.1418457 C71.02231489 41.59067796 71.02231489 41.59067796 80.36425781 47.01635742 C81.8686721 47.88764108 83.37226199 48.76034984 84.875 49.63452148 C89.51480604 52.32806391 94.17915477 54.97265109 98.86181641 57.59106445 C100.02504652 58.24685169 101.18796874 58.90318536 102.35058594 59.56005859 C104.59447831 60.82605869 106.84384185 62.08243075 109.09960938 63.32714844 C121.12109051 70.14018776 131.36856508 78.20887067 135.25634766 91.8918457 C136.4991059 102.69730155 134.650953 111.4802042 128.49462891 120.4621582 C123.90842141 126.09956539 118.93946678 129.18677368 112.25634766 131.8918457 C111.30759766 132.3249707 110.35884766 132.7580957 109.38134766 133.2043457 C95.88204621 136.17419202 85.01258734 131.30902585 73.56884766 124.5168457 C72.67875 123.99864258 71.78865234 123.48043945 70.87158203 122.9465332 C67.99503272 121.26971057 65.12575357 119.58085735 62.25634766 117.8918457 C59.2666447 116.14501975 56.27518978 114.40121975 53.28369141 112.6574707 C51.26335686 111.47915946 49.24382635 110.29946855 47.22509766 109.1184082 C40.53221672 105.20484781 33.81006099 101.3464416 27.06884766 97.5168457 C20.43361501 93.74657521 13.88014917 89.89651971 7.43603516 85.8059082 C3.80905994 83.62259388 0.10472955 81.61635399 -3.6171875 79.6003418 C-8.79318952 76.7718503 -13.9188708 73.8556413 -19.04199219 70.93286133 C-20.87179527 69.89005455 -22.70418387 68.85188999 -24.53662109 67.8137207 C-49.32941559 53.71302795 -49.32941559 53.71302795 -54.86083984 39.2434082 C-57.07365188 30.84255542 -57.19503482 21.64778967 -52.99365234 13.87231445 C-52.58115234 13.21875977 -52.16865234 12.56520508 -51.74365234 11.8918457 C-51.33115234 11.20735352 -50.91865234 10.52286133 -50.49365234 9.81762695 C-38.94346149 -7.40922019 -17.07323316 -9.93741653 0 0 Z " fill="#4285F3" transform="translate(274.74365234375,376.108154296875)"/>
<path d="M0 0 C8.50300888 5.65038654 13.84046359 14.06613252 16 24 C17.31099756 33.56068954 14.62170855 43.70748153 9.25 51.6875 C3.74269925 58.0306281 -3.80279456 61.87941229 -11 66 C-12.00853027 66.58168945 -13.01706055 67.16337891 -14.05615234 67.76269531 C-19.89973491 71.13030083 -25.7554001 74.47580915 -31.62109375 77.8046875 C-38.91158038 81.9422922 -46.17767577 86.12137253 -53.4375 90.3125 C-54.52659668 90.94051514 -55.61569336 91.56853027 -56.73779297 92.21557617 C-62.26113092 95.38214813 -62.26113092 95.38214813 -67.67919922 98.72241211 C-70 100 -70 100 -72.32421875 99.453125 C-73.20722656 98.97359375 -74.09023438 98.4940625 -75 98 C-75.55896973 97.70673828 -76.11793945 97.41347656 -76.69384766 97.11132812 C-78.75055832 96.01994714 -80.78185928 94.88913992 -82.8125 93.75 C-83.58295654 93.32033936 -84.35341309 92.89067871 -85.1472168 92.44799805 C-90.86177289 89.24358986 -96.52713764 85.95836906 -102.1796875 82.64599609 C-104.26790444 81.42385541 -106.35906144 80.20672446 -108.453125 78.99462891 C-116.91904151 74.09280898 -116.91904151 74.09280898 -120.75 71.55078125 C-129.66010241 65.94787246 -138.74811341 65.84400838 -149 67 C-150.33904792 67.30957965 -151.6745955 67.63641808 -153 68 C-150.25773397 65.04290207 -147.70118831 63.09787846 -144.125 61.25 C-133.30656429 55.52679061 -122.76945747 49.29303975 -112.1875 43.14672852 C-106.98536261 40.13114063 -101.7536068 37.17477953 -96.5 34.25 C-91.05878184 31.21769266 -85.78979907 28.00089642 -80.5625 24.609375 C-77.10116779 22.43548953 -73.52696296 20.51250914 -69.92578125 18.58203125 C-66.71688399 16.84691324 -63.54388134 15.05716776 -60.375 13.25 C-59.50657471 12.75560425 -59.50657471 12.75560425 -58.62060547 12.2512207 C-55.29138728 10.34604294 -51.99292503 8.39821873 -48.71484375 6.40625 C-32.19573749 -3.60099264 -18.56514758 -9.62277283 0 0 Z " fill="#E94436" transform="translate(394,305)"/>
<path d="M0 0 C1.26457031 0.68908447 1.26457031 0.68908447 2.5546875 1.39208984 C3.48023438 1.8888623 4.40578125 2.38563477 5.359375 2.89746094 C6.37257813 3.48092285 7.38578125 4.06438477 8.4296875 4.66552734 C10.14055542 5.64743042 10.14055542 5.64743042 11.88598633 6.64916992 C12.78433701 7.16781113 12.78433701 7.16781113 13.70083618 7.69692993 C15.57310998 8.77772446 17.44772831 9.85434482 19.32299805 10.92993164 C25.16254263 14.28097402 30.99413256 17.64571675 36.82421875 21.01318359 C37.76716797 21.55604004 38.71011719 22.09889648 39.68164062 22.65820312 C41.42065523 23.65955935 43.15776607 24.6642321 44.89257812 25.67285156 C56.55348607 32.38532392 66.20521407 34.66434064 79.5546875 32.39208984 C77.18637503 35.03348225 74.72663462 36.51823491 71.59375 38.15771484 C65.61783304 41.34303765 59.77041242 44.71642233 53.9296875 48.14208984 C52.8878833 48.75117188 51.8460791 49.36025391 50.77270508 49.98779297 C46.04468124 52.75371418 41.32117845 55.52709993 36.60546875 58.31396484 C29.91184333 62.26948825 23.21199252 66.15724384 16.359375 69.83349609 C12.87305798 71.77087839 9.46578791 73.82594246 6.0546875 75.89208984 C0.88922257 79.01993299 -4.31949112 82.01071397 -9.640625 84.86865234 C-12.91287871 86.64606035 -16.15035837 88.48121938 -19.3828125 90.32958984 C-19.97497559 90.66635742 -20.56713867 91.003125 -21.17724609 91.35009766 C-24.02170493 92.97439033 -26.83033184 94.63011904 -29.6171875 96.35302734 C-39.33307618 102.31848231 -49.08217205 106.25641712 -60.546875 103.70068359 C-71.12358256 100.7951283 -78.93274213 96.07986143 -84.4453125 86.39208984 C-88.75917206 76.93375181 -90.44338273 67.17726924 -86.8828125 57.20458984 C-81.23735444 45.12369495 -72.61132592 39.8286626 -61.4453125 33.39208984 C-59.81843173 32.43734607 -58.19214117 31.48159596 -56.56640625 30.52490234 C-50.14089972 26.76261576 -43.69309633 23.05777111 -37.14453125 19.51318359 C-31.04645475 16.20089795 -25.05625071 12.71449229 -19.0703125 9.20458984 C-18.01714844 8.5890625 -16.96398437 7.97353516 -15.87890625 7.33935547 C-10.28877473 4.12914414 -10.28877473 4.12914414 -4.92333984 0.57055664 C-2.4453125 -0.60791016 -2.4453125 -0.60791016 0 0 Z " fill="#FABC05" transform="translate(549.4453125,405.60791015625)"/>
<path d="M0 0 C1.984375 2.1484375 1.984375 2.1484375 1.984375 6.1484375 C0.24477245 8.23130611 -1.43914129 10.03964927 -3.390625 11.8984375 C-3.89851563 12.40503906 -4.40640625 12.91164063 -4.9296875 13.43359375 C-8.73464875 17.1484375 -8.73464875 17.1484375 -11.015625 17.1484375 C-12.70496422 15.5047561 -14.36822424 13.8341499 -16.015625 12.1484375 C-20.64670287 7.78977597 -26.22765778 5.59335469 -32.015625 3.1484375 C-32.8096875 2.79007812 -33.60375 2.43171875 -34.421875 2.0625 C-40.42327081 -0.05244973 -46.66410808 -0.03375531 -52.953125 -0.0390625 C-54.09297852 -0.05743164 -54.09297852 -0.05743164 -55.25585938 -0.07617188 C-70.08184747 -0.11415477 -84.96400676 6.34425266 -95.765625 16.3984375 C-108.21978147 29.77622758 -113.83142732 46.91249663 -113.328125 64.921875 C-112.30693693 83.32879001 -103.982275 98.18160235 -90.515625 110.4609375 C-77.96267776 120.6351299 -61.89559543 124.14093565 -46.015625 123.1484375 C-31.49321635 121.33313642 -17.98358964 116.11440984 -8.08203125 104.97265625 C-0.8538498 95.47498127 1.67631714 84.68872679 3.984375 73.1484375 C-14.825625 73.1484375 -33.635625 73.1484375 -53.015625 73.1484375 C-53.015625 67.5384375 -53.015625 61.9284375 -53.015625 56.1484375 C-28.595625 56.1484375 -4.175625 56.1484375 20.984375 56.1484375 C25.49122833 74.1758508 20.44039071 93.63212441 11.18652344 109.29833984 C1.35207178 124.43348904 -15.11332102 135.64381181 -32.515625 140.1484375 C-54.60980117 144.05039063 -78.03376805 141.6909347 -96.765625 128.7734375 C-98.87621277 127.26366721 -100.94546191 125.71467931 -103.015625 124.1484375 C-103.7684375 123.58253906 -104.52125 123.01664063 -105.296875 122.43359375 C-120.01044427 110.49341552 -129.84952665 90.85141574 -132.015625 72.1484375 C-133.66457661 49.14081428 -129.49271018 28.74479398 -114.78125 10.35546875 C-84.81799963 -23.79230452 -35.84691759 -28.85980654 0 0 Z " fill="#696E74" transform="translate(1197.015625,343.8515625)"/>
<path d="M0 0 C2.74896422 2.25195149 5.41431109 4.56248811 8 7 C6.41438362 10.85593074 3.93490046 13.33216291 1 16.25 C-0.3303125 17.58804688 -0.3303125 17.58804688 -1.6875 18.953125 C-4 21 -4 21 -6 21 C-6.56203125 20.26007813 -7.1240625 19.52015625 -7.703125 18.7578125 C-10.33531496 15.59739394 -13.19289577 13.80784704 -16.75 11.875 C-17.37398682 11.52880615 -17.99797363 11.1826123 -18.64086914 10.82592773 C-32.43229741 3.30023478 -49.67994765 1.17872417 -64.9375 5.625 C-66.97629205 6.36919786 -68.99852768 7.16058828 -71 8 C-72.01449219 8.4125 -73.02898438 8.825 -74.07421875 9.25 C-88.72211657 15.85186944 -97.78607384 27.20927985 -104.17578125 41.63671875 C-109.98463801 58.29244548 -108.74110192 77.91238164 -101.71484375 93.9296875 C-96.76030596 103.89396685 -89.26920379 111.91046071 -80 118 C-78.948125 118.70125 -77.89625 119.4025 -76.8125 120.125 C-62.46776146 128.0063621 -44.63933287 128.89461986 -29 125 C-21.58957597 122.61375025 -15.64915622 119.42940342 -9.7421875 114.35546875 C-8 113 -8 113 -6 113 C-6 112.34 -6 111.68 -6 111 C-5.34 111 -4.68 111 -4 111 C-3.71898437 110.4121875 -3.43796875 109.824375 -3.1484375 109.21875 C-2.09369394 107.18101414 -0.92406943 105.38654669 0.375 103.5 C5.48886525 95.38419026 7.13871776 86.30641119 9 77 C-9.48 77 -27.96 77 -47 77 C-47 71.72 -47 66.44 -47 61 C-22.58 61 1.84 61 27 61 C27 93.3989071 27 93.3989071 19 108 C18.50757813 108.90234375 18.01515625 109.8046875 17.5078125 110.734375 C10.26192385 123.00731558 0.39272263 131.2952193 -12 138 C-12.75796875 138.42023438 -13.5159375 138.84046875 -14.296875 139.2734375 C-30.11995447 147.18497723 -52.66344481 147.53578844 -69.6015625 143.16796875 C-80.9255084 139.27617585 -91.17320872 134.21927933 -100 126 C-100.86625 125.195625 -101.7325 124.39125 -102.625 123.5625 C-103.40875 122.716875 -104.1925 121.87125 -105 121 C-105.59167969 120.401875 -106.18335938 119.80375 -106.79296875 119.1875 C-122.38607239 102.78005632 -127.62213779 82.66970869 -127.18359375 60.55078125 C-126.47685538 39.2213293 -117.22254132 19.85707588 -101.71484375 5.328125 C-73.73567319 -18.66552342 -30.16201679 -23.28648218 0 0 Z " fill="#696E74" transform="translate(877,340)"/>
<path d="M0 0 C70.89304056 0 70.89304056 0 85.1875 7.5625 C85.83984619 7.90128174 86.49219238 8.24006348 87.16430664 8.58911133 C103.91134844 17.68664699 114.93624907 31.9059227 121 50 C127.20910655 72.08466307 125.8678778 96.76702963 114.76733398 117.00878906 C105.81950099 132.25763469 92.39948522 142.61435974 76 149 C56 153 56 153 0 153 C0 102.51 0 52.02 0 0 Z M19 17 C19 55.94 19 94.88 19 135 C59.05178366 136.57857088 59.05178366 136.57857088 91.81640625 118.49609375 C105.31855399 103.06161718 106.14248486 84.5313587 105.23632812 64.98876953 C104.78222289 59.24583942 103.41452363 54.24969598 101 49 C100.72285156 48.278125 100.44570312 47.55625 100.16015625 46.8125 C95.52362838 35.8728582 85.29865806 27.46337196 74.875 22.3125 C55.72776037 14.77582057 40.63928421 17 19 17 Z " fill="#6B6F75" transform="translate(926,329)"/>
</svg>
