<svg width="75" height="76" viewBox="0 0 75 76" fill="none" xmlns="http://www.w3.org/2000/svg">
<path d="M72.5 31.6787V14.0647C72.5 13.7504 72.3771 13.449 72.1583 13.2268C71.9396 13.0046 71.6429 12.8797 71.3335 12.8797H62.1067V4.06384C62.1067 3.74958 61.9838 3.44818 61.7651 3.22596C61.5463 3.00375 61.2496 2.87891 60.9403 2.87891H43.5977C43.2884 2.87891 42.9917 3.00375 42.7729 3.22596C42.5542 3.44818 42.4313 3.74958 42.4313 4.06384V12.8797H32.5687V4.06384C32.5687 3.74958 32.4458 3.44818 32.2271 3.22596C32.0083 3.00375 31.7116 2.87891 31.4023 2.87891H14.0627C13.7533 2.87891 13.4566 3.00375 13.2378 3.22596C13.0191 3.44818 12.8962 3.74958 12.8962 4.06384V12.8797H3.66647C3.3571 12.8797 3.06041 13.0046 2.84165 13.2268C2.62289 13.449 2.5 13.7504 2.5 14.0647V31.6787C2.5 31.993 2.62289 32.2944 2.84165 32.5166C3.06041 32.7388 3.3571 32.8637 3.66647 32.8637H12.8962V42.8853H3.66647C3.3571 42.8853 3.06041 43.0101 2.84165 43.2323C2.62289 43.4545 2.5 43.7559 2.5 44.0702V61.6931C2.5 62.0074 2.62289 62.3088 2.84165 62.531C3.06041 62.7532 3.3571 62.8781 3.66647 62.8781H12.8962V71.694C12.8962 72.0082 13.0191 72.3096 13.2378 72.5319C13.4566 72.7541 13.7533 72.8789 14.0627 72.8789H31.4023C31.7116 72.8789 32.0083 72.7541 32.2271 72.5319C32.4458 72.3096 32.5687 72.0082 32.5687 71.694V62.8781H42.4313V71.694C42.4313 72.0082 42.5542 72.3096 42.7729 72.5319C42.9917 72.7541 43.2884 72.8789 43.5977 72.8789H60.9403C61.2496 72.8789 61.5463 72.7541 61.7651 72.5319C61.9838 72.3096 62.1067 72.0082 62.1067 71.694V62.8781H71.3335C71.6429 62.8781 71.9396 62.7532 72.1583 62.531C72.3771 62.3088 72.5 62.0074 72.5 61.6931V44.0702C72.5 43.7559 72.3771 43.4545 72.1583 43.2323C71.9396 43.0101 71.6429 42.8853 71.3335 42.8853H62.1067V32.8637H71.3335C71.6429 32.8637 71.9396 32.7388 72.1583 32.5166C72.3771 32.2944 72.5 31.993 72.5 31.6787ZM42.4313 42.8853H32.5687V32.8637H42.4313V42.8853Z" fill="#34A853" stroke="#1E1E1E" stroke-width="5" stroke-linejoin="round"/>
</svg>
