<?xml version="1.0" encoding="UTF-8"?>
<svg version="1.1" xmlns="http://www.w3.org/2000/svg" width="680" height="340">
<path d="M0 0 C224.4 0 448.8 0 680 0 C680 112.2 680 224.4 680 340 C455.6 340 231.2 340 0 340 C0 227.8 0 115.6 0 0 Z " fill="#FEFEFE" transform="translate(0,0)"/>
<path d="M0 0 C0.8971875 0.6703125 1.794375 1.340625 2.71875 2.03125 C18.59505136 14.41825436 29.15997989 31.95910338 32 52 C32.28385924 55.96318983 32.33397561 59.9026443 32.3125 63.875 C32.30831055 64.93348145 32.30412109 65.99196289 32.29980469 67.08251953 C32.19348011 74.42004634 31.57634558 81.074695 29 88 C28.54753906 89.29357422 28.54753906 89.29357422 28.0859375 90.61328125 C21.12100667 109.2713683 7.08802127 126.39135626 -11.10205078 134.99414062 C-29.61569357 143.15801703 -49.41109932 146.32787522 -69 140 C-69.9590625 139.74476563 -70.918125 139.48953125 -71.90625 139.2265625 C-90.44457283 133.90899095 -105.14793066 120.20324611 -115 104 C-119.5210744 95.72429944 -122.51127383 87.07427851 -125 78 C-125.1757959 77.37085693 -125.3515918 76.74171387 -125.53271484 76.09350586 C-128.21620484 64.07107812 -125.96182483 51.38472341 -122 40 C-121.62448445 38.35428422 -121.24944889 36.7084588 -120.875 35.0625 C-118.62341558 27.5778375 -113.56821125 21.23308694 -109 15 C-108.4328125 14.22398438 -107.865625 13.44796875 -107.28125 12.6484375 C-81.57538787 -19.22158545 -32.3657052 -24.38512036 0 0 Z " fill="#E75712" transform="translate(201,106)"/>
<path d="M0 0 C0.8971875 0.6703125 1.794375 1.340625 2.71875 2.03125 C18.59505136 14.41825436 29.15997989 31.95910338 32 52 C32.28385924 55.96318983 32.33397561 59.9026443 32.3125 63.875 C32.30831055 64.93348145 32.30412109 65.99196289 32.29980469 67.08251953 C32.19348011 74.42004634 31.57634558 81.074695 29 88 C28.54753906 89.29357422 28.54753906 89.29357422 28.0859375 90.61328125 C21.12100667 109.2713683 7.08802127 126.39135626 -11.10205078 134.99414062 C-29.61569357 143.15801703 -49.41109932 146.32787522 -69 140 C-69.9590625 139.74476563 -70.918125 139.48953125 -71.90625 139.2265625 C-90.44457283 133.90899095 -105.14793066 120.20324611 -115 104 C-119.5210744 95.72429944 -122.51127383 87.07427851 -125 78 C-125.1757959 77.37085693 -125.3515918 76.74171387 -125.53271484 76.09350586 C-128.21620484 64.07107812 -125.96182483 51.38472341 -122 40 C-121.62448445 38.35428422 -121.24944889 36.7084588 -120.875 35.0625 C-118.62341558 27.5778375 -113.56821125 21.23308694 -109 15 C-108.4328125 14.22398438 -107.865625 13.44796875 -107.28125 12.6484375 C-81.57538787 -19.22158545 -32.3657052 -24.38512036 0 0 Z M-92 19 C-92.54269531 19.47695312 -93.08539063 19.95390625 -93.64453125 20.4453125 C-103.41827772 30.29328995 -105.24473641 47.14124697 -105.2734375 60.34375 C-105.26570313 61.5503125 -105.25796875 62.756875 -105.25 64 C-105.25773437 65.2065625 -105.26546875 66.413125 -105.2734375 67.65625 C-105.25814313 74.69166059 -104.70606254 81.17412503 -103 88 C-102.78859375 88.93972656 -102.5771875 89.87945312 -102.359375 90.84765625 C-100.64021074 97.09615712 -97.84821758 101.82089752 -94 107 C-93.13375 108.3303125 -93.13375 108.3303125 -92.25 109.6875 C-81.95475848 120.26872045 -66.62084777 123.09031133 -52.50073242 123.34326172 C-34.2847439 123.51687431 -15.79383527 123.0452473 -1.28515625 110.51953125 C10.04468169 98.84374406 12.44880523 81.27760527 12.28564453 65.75805664 C12.00663977 46.75006114 12.00663977 46.75006114 6 29 C5.64035156 28.29875 5.28070313 27.5975 4.91015625 26.875 C-1.20520956 16.00323856 -11.48011411 10.70997736 -23 7 C-28.00552071 5.82893615 -32.87145439 5.28173089 -38 5 C-39.00716064 4.94440918 -39.00716064 4.94440918 -40.03466797 4.88769531 C-58.19514991 4.02918435 -77.99307063 6.3465492 -92 19 Z " fill="#E75612" transform="translate(201,106)"/>
<path d="M0 0 C9.88176372 8.48873976 13.91336852 18.81254537 15.09765625 31.59765625 C15.17516113 32.40952393 15.25266602 33.2213916 15.33251953 34.05786133 C17.12586084 54.62216525 17.06868673 76.90242672 3.25390625 93.8125 C1.55539579 95.38682691 -0.11054868 96.58546108 -2.08984375 97.78515625 C-3.13011719 98.43677734 -3.13011719 98.43677734 -4.19140625 99.1015625 C-16.74751969 106.13550565 -29.63223204 107.17677848 -43.71484375 107.28515625 C-45.66136841 107.31283081 -45.66136841 107.31283081 -47.6472168 107.34106445 C-61.610101 107.25179109 -77.69641387 103.88987974 -88.08984375 93.78515625 C-92.94173096 88.32200766 -95.69206525 82.64257109 -98.08984375 75.78515625 C-98.48171875 74.75390625 -98.87359375 73.72265625 -99.27734375 72.66015625 C-104.65270351 53.63965249 -102.87109228 29.17008675 -94.77734375 11.16015625 C-88.41997574 -0.088959 -77.2172039 -5.64703199 -65.08984375 -9.21484375 C-43.54558037 -13.68369224 -18.43522853 -13.21463284 0 0 Z M-81.46484375 11.78515625 C-83.31362389 14.06057796 -84.1251123 16.01959277 -85.08984375 18.78515625 C-85.58484375 19.73390625 -86.07984375 20.68265625 -86.58984375 21.66015625 C-92.72897789 36.05751653 -92.39171955 59.21060516 -86.6796875 73.5625 C-83.55800939 80.66611761 -80.23968866 86.40665811 -73.08984375 89.78515625 C-71.56423828 90.50638672 -71.56423828 90.50638672 -70.0078125 91.2421875 C-53.54117354 97.60788499 -31.38024629 97.76331982 -15.08984375 90.78515625 C-14.28933594 90.47320312 -13.48882812 90.16125 -12.6640625 89.83984375 C-5.42380032 86.68960171 -2.36858769 81.88172242 0.59765625 74.78515625 C7.29077465 56.20017655 7.1143222 34.31735158 -0.90234375 16.09765625 C-7.51500249 6.08420158 -17.24396946 3.79032861 -28.50024414 1.23876953 C-46.34469585 -1.88699565 -67.28626228 -0.15470183 -81.46484375 11.78515625 Z " fill="#FEF8F2" transform="translate(197.08984375,122.21484375)"/>
<path d="M0 0 C1.12921875 -0.01611328 2.2584375 -0.03222656 3.421875 -0.04882812 C11.2475068 -0.05335685 19.60583218 0.12385316 25.75 5.5 C29.70287781 12.9116459 29.5867771 20.60684086 29.5625 28.8125 C29.57861328 29.90175781 29.59472656 30.99101562 29.61132812 32.11328125 C29.61580721 39.52169428 28.92917379 45.34732279 24.6875 51.625 C17.92987683 56.3033545 9.7287333 56.79356883 1.75 56.6875 C0.87730469 56.69910156 0.00460938 56.71070313 -0.89453125 56.72265625 C-8.39982154 56.6892994 -15.69315119 55.66882096 -21.75 51 C-28.00605865 42.59342119 -27.3458809 30.32329906 -26.75 20.3125 C-25.688535 13.12462677 -24.30116292 7.21817886 -18.75 2.3125 C-12.50235177 -0.2100016 -6.64290166 -0.01870186 0 0 Z " fill="#FEF6F0" transform="translate(152.75,141.6875)"/>
<path d="M0 0 C5.61 0 11.22 0 17 0 C17 7.59 17 15.18 17 23 C19.97 22.01 22.94 21.02 26 20 C31.88289606 19.08414942 36.99332127 19.6940217 42.18359375 22.671875 C47.5194369 26.57335171 51.1300946 31.66309837 53 38 C53.83753915 47.74470157 52.81516334 55.42802743 46.65234375 63.203125 C42.9082557 67.27471011 38.73385717 69.73820793 33.14453125 70.2734375 C25.64135378 70.50213928 20.8151639 69.91917188 15 65 C14.67 66.32 14.34 67.64 14 69 C9.38 69 4.76 69 0 69 C0 46.23 0 23.46 0 0 Z " fill="#2B3C49" transform="translate(450,126)"/>
<path d="M0 0 C4.64527402 4.30655612 7.70847586 9.46557838 8.43359375 15.76953125 C8.45672608 17.11698958 8.45737998 18.46498976 8.4375 19.8125 C8.43137695 20.51737549 8.42525391 21.22225098 8.41894531 21.94848633 C8.24524459 27.75476694 7.11481348 32.13310393 4 37 C3.4225 37.928125 2.845 38.85625 2.25 39.8125 C-3.79975345 45.69420474 -9.56888637 46.4436212 -17.8515625 46.43359375 C-21 46 -21 46 -27 43 C-27 50.59 -27 58.18 -27 66 C-32.61 66 -38.22 66 -44 66 C-44 43.23 -44 20.46 -44 -3 C-39.38 -3 -34.76 -3 -30 -3 C-29.67 -2.34 -29.34 -1.68 -29 -1 C-28.29875 -1.309375 -27.5975 -1.61875 -26.875 -1.9375 C-17.95745585 -5.23311414 -7.92546167 -5.7318071 0 0 Z " fill="#2A3B49" transform="translate(580,150)"/>
<path d="M0 0 C0 0.66 0 1.32 0 2 C0.721875 2.20625 1.44375 2.4125 2.1875 2.625 C7.0565422 5.00542063 9.71637356 8.88856122 11.8125 13.75 C13.95822249 20.22416269 13.92415246 26.43319831 11.3125 32.75 C7.38945218 40.50041156 2.51256224 44.83395934 -5.76171875 47.5859375 C-13.4170731 49.00211125 -23.56888833 49.5640312 -30.328125 45.33203125 C-35.53619206 41.18261334 -39.46266845 37.27222372 -42 31 C-42.2844321 28.2337584 -42.42156865 25.7527244 -42.375 23 C-42.38660156 22.31421875 -42.39820313 21.6284375 -42.41015625 20.921875 C-42.37515791 14.80883101 -40.68833371 10.86605305 -36.625 6.375 C-35.75875 5.59125 -34.8925 4.8075 -34 4 C-33.236875 3.278125 -32.47375 2.55625 -31.6875 1.8125 C-22.73573191 -4.22473894 -9.8726244 -3.09729393 0 0 Z " fill="#2B3C49" transform="translate(432,148)"/>
<path d="M0 0 C3.83723481 3.56453792 6.90653733 7.46168488 7.22705078 12.73706055 C7.22673461 14.28698269 7.21546481 15.83692759 7.1953125 17.38671875 C7.1924826 18.20372757 7.18965271 19.02073639 7.18673706 19.86250305 C7.17554541 22.47098459 7.1504429 25.0791223 7.125 27.6875 C7.11496888 29.45637525 7.10584326 31.22525588 7.09765625 32.99414062 C7.07731122 37.329666 7.03816134 41.6644483 7 46 C1.39 46 -4.22 46 -10 46 C-10.03738281 43.79699219 -10.07476562 41.59398437 -10.11328125 39.32421875 C-10.1594998 37.18943379 -10.21073195 35.05482395 -10.26245117 32.92016602 C-10.29569423 31.43720146 -10.32372823 29.95411056 -10.34643555 28.47094727 C-10.37999468 26.33815707 -10.43230638 24.20652388 -10.48828125 22.07421875 C-10.51446533 20.79119873 -10.54064941 19.50817871 -10.56762695 18.1862793 C-10.75291591 15.0639752 -10.75291591 15.0639752 -12.28588867 13.08520508 C-14.7207637 11.543684 -17.14111119 11.58551702 -19.96484375 11.50390625 C-22.97999207 12.23888482 -24.07849833 13.58308624 -26 16 C-26.64143328 19.28116076 -26.64143328 19.28116076 -26.609375 22.953125 C-26.62591125 23.61334656 -26.64244751 24.27356812 -26.65948486 24.95379639 C-26.70788451 27.05262626 -26.72931519 29.15073222 -26.75 31.25 C-26.77816683 32.6771196 -26.80809528 34.10420559 -26.83984375 35.53125 C-26.91694649 39.02116347 -26.95752807 42.50880769 -27 46 C-32.61 46 -38.22 46 -44 46 C-44 30.16 -44 14.32 -44 -2 C-39.38 -2 -34.76 -2 -30 -2 C-29.67 -0.68 -29.34 0.64 -29 2 C-27.700625 1.0409375 -27.700625 1.0409375 -26.375 0.0625 C-18.77277057 -4.58330688 -7.74675929 -4.56686683 0 0 Z " fill="#293A48" transform="translate(341,149)"/>
<path d="M0 0 C-0.14148989 1.6045556 -0.28835686 3.20863767 -0.4375 4.8125 C-0.51871094 5.70582031 -0.59992188 6.59914062 -0.68359375 7.51953125 C-1 10 -1 10 -2 13 C-6.455 13.495 -6.455 13.495 -11 14 C-11.66 16.31 -12.32 18.62 -13 21 C-9.7 21 -6.4 21 -3 21 C-3 25.29 -3 29.58 -3 34 C-6.3 34 -9.6 34 -13 34 C-13 45.55 -13 57.1 -13 69 C-18.61 69 -24.22 69 -30 69 C-30 57.45 -30 45.9 -30 34 C-32.64 34 -35.28 34 -38 34 C-38 29.38 -38 24.76 -38 20 C-35.36 20 -32.72 20 -30 20 C-30.05800781 19.35933594 -30.11601562 18.71867187 -30.17578125 18.05859375 C-30.4632471 12.54746278 -30.24126059 8.77319338 -26.6015625 4.47265625 C-19.02026557 -2.49843873 -9.62064448 -2.08013935 0 0 Z " fill="#2C3D4A" transform="translate(390,126)"/>
<path d="M0 0 C1.20269531 -0.00257813 2.40539062 -0.00515625 3.64453125 -0.0078125 C4.90652344 -0.00007812 6.16851562 0.00765625 7.46875 0.015625 C8.73074219 0.00789062 9.99273437 0.00015625 11.29296875 -0.0078125 C12.49566406 -0.00523437 13.69835937 -0.00265625 14.9375 0 C16.04544922 0.00225586 17.15339844 0.00451172 18.29492188 0.00683594 C20.96875 0.265625 20.96875 0.265625 22.96875 2.265625 C23.22753906 4.73999023 23.22753906 4.73999023 23.234375 7.82421875 C23.23824219 9.48614258 23.23824219 9.48614258 23.2421875 11.18164062 C23.23445313 12.34373047 23.22671875 13.50582031 23.21875 14.703125 C23.22648437 15.86134766 23.23421875 17.01957031 23.2421875 18.21289062 C23.23960937 19.32212891 23.23703125 20.43136719 23.234375 21.57421875 C23.23211914 22.59314209 23.22986328 23.61206543 23.22753906 24.66186523 C22.96875 27.265625 22.96875 27.265625 20.96875 30.265625 C18.29492188 30.63793945 18.29492188 30.63793945 14.9375 30.62890625 C13.73480469 30.62826172 12.53210938 30.62761719 11.29296875 30.62695312 C9.39998047 30.6027832 9.39998047 30.6027832 7.46875 30.578125 C6.20675781 30.58134766 4.94476563 30.58457031 3.64453125 30.58789062 C-5.76444997 30.53242503 -5.76444997 30.53242503 -8.03125 28.265625 C-8.29003906 25.68359375 -8.29003906 25.68359375 -8.296875 22.453125 C-8.29945313 21.29554688 -8.30203125 20.13796875 -8.3046875 18.9453125 C-8.29695312 17.73101562 -8.28921875 16.51671875 -8.28125 15.265625 C-8.28898438 14.05132812 -8.29671875 12.83703125 -8.3046875 11.5859375 C-8.30210937 10.42835938 -8.29953125 9.27078125 -8.296875 8.078125 C-8.29461914 7.01207031 -8.29236328 5.94601563 -8.29003906 4.84765625 C-7.75643381 -0.47631463 -4.54487613 0.00925367 0 0 Z " fill="#E55815" transform="translate(147.03125,154.734375)"/>
<path d="M0 0 C5.94 0 11.88 0 18 0 C18 16.17 18 32.34 18 49 C12.06 49 6.12 49 0 49 C0 32.83 0 16.66 0 0 Z " fill="#344350" transform="translate(270,146)"/>
<path d="M0 0 C5.61 0 11.22 0 17 0 C17 15.84 17 31.68 17 48 C11.39 48 5.78 48 0 48 C0 32.16 0 16.32 0 0 Z " fill="#293947" transform="translate(509,147)"/>
<path d="M0 0 C4.16983424 0.70675157 6.31820389 1.68983494 9.3515625 4.5859375 C11.55963587 7.95615475 11.57561827 10.97715548 11.30078125 14.921875 C10.30510855 19.31044512 8.48332685 22.16934881 4.6875 24.625 C1.77251388 25.54552193 -0.40064181 25.55967053 -3.3125 24.625 C-7.1822767 21.4139087 -8.52171182 19.01154924 -9.25 14.0625 C-9.53033606 9.14837378 -8.52468165 6.28613782 -5.625 2.3125 C-3.3125 0.625 -3.3125 0.625 0 0 Z " fill="#F5F7F8" transform="translate(416.3125,158.375)"/>
<path d="M0 0 C2.91949792 1.83996264 5.43160787 3.86321574 7 7 C7.58118751 11.76383201 7.45088085 15.14488114 5.1875 19.4375 C2.40150287 22.70109664 0.85451317 23.89124378 -3.4375 24.4375 C-7 24 -7 24 -9.1875 21.9453125 C-11.47152568 18.23377077 -11.56680584 15.77348031 -11.5625 11.4375 C-11.58441406 10.13683594 -11.60632813 8.83617187 -11.62890625 7.49609375 C-11 4 -11 4 -8.6484375 1.5703125 C-5.34501039 -0.38835667 -3.78159 -0.69457776 0 0 Z " fill="#F3F5F6" transform="translate(564,159)"/>
<path d="M0 0 C3.80293328 1.72860603 5.44542627 3.1653848 7 7 C7.58560454 11.25133689 7.46696273 14.92598573 5.75 18.875 C3.0331561 22.17402474 1.35576293 23.76923184 -2.9375 24.5 C-6 24 -6 24 -8.875 22.375 C-12.31172331 16.91667474 -11.92666752 11.26247889 -11 5 C-8.03493291 0.2907758 -5.48792882 -0.9146548 0 0 Z " fill="#F5F7F8" transform="translate(478,159)"/>
<path d="M0 0 C5.94 0 11.88 0 18 0 C18 5.94 18 11.88 18 18 C12.06 18 6.12 18 0 18 C0 12.06 0 6.12 0 0 Z " fill="#3B4A56" transform="translate(270,124)"/>
<path d="M0 0 C2.5625 1.5 2.5625 1.5 4 4 C4.9287528 8.77771872 4.68282029 11.95443143 2 16.0625 C-2.12021454 18.72347189 -4.14591051 18.53934328 -9 18 C-11.70767294 17.14494539 -12.62468037 16.61006018 -14.10546875 14.203125 C-15.64616886 10.40856229 -15.07387993 6.88303605 -14 3 C-10.16562115 -2.03262224 -5.64285219 -1.60021182 0 0 Z " fill="#2C3C49" transform="translate(523,125)"/>
<path d="M0 0 C0.33 0.99 0.66 1.98 1 3 C1.66 3 2.32 3 3 3 C4.48125044 5.96250087 4.12990684 8.63912895 4.1328125 11.94140625 C4.13376923 12.62428207 4.13472595 13.3071579 4.13571167 14.01072693 C4.13639223 15.45401095 4.1345466 16.89729803 4.13037109 18.34057617 C4.12501282 20.55719828 4.13032443 22.77361852 4.13671875 24.99023438 C4.13605811 26.39062545 4.13477723 27.7910164 4.1328125 29.19140625 C4.13168457 30.47217041 4.13055664 31.75293457 4.12939453 33.07250977 C4 36 4 36 3 37 C2.75738335 39.25543624 2.61667867 41.50945523 2.4765625 43.7734375 C1.91636963 46.39073204 1.03004872 47.3173393 -1 49 C-0.08937438 41.45481629 -0.08937438 41.45481629 0.52734375 38.31640625 C1.13621669 34.04423167 1.14803608 29.87189327 1.125 25.5625 C1.12306641 24.68883789 1.12113281 23.81517578 1.11914062 22.91503906 C1.06878086 15.24636563 0.64829 7.64056068 0 0 Z " fill="#E38151" transform="translate(211,149)"/>
<path d="M0 0 C0.33 0.66 0.66 1.32 1 2 C0.3200568 3.63186367 -0.36814064 5.2607805 -1.09765625 6.87109375 C-3.61324048 12.80613014 -5.33263956 18.51352855 -5 25 C-5.33 25.33 -5.66 25.66 -6 26 C-6.15806531 27.92478813 -6.251135 29.8549921 -6.31640625 31.78515625 C-6.35830078 32.95498047 -6.40019531 34.12480469 -6.44335938 35.33007812 C-6.48267578 36.56177734 -6.52199219 37.79347656 -6.5625 39.0625 C-6.60568359 40.29806641 -6.64886719 41.53363281 -6.69335938 42.80664062 C-6.79984198 45.87097335 -6.90185424 48.93539073 -7 52 C-7.33 52 -7.66 52 -8 52 C-10.27958649 38.03753275 -10.80402433 19.79156574 -4 7 C-3.46375 5.88625 -2.9275 4.7725 -2.375 3.625 C-1 1 -1 1 0 0 Z " fill="#DE713F" transform="translate(116,134)"/>
<path d="M0 0 C0 0.99 0 1.98 0 3 C-1.04800781 3.09087891 -1.04800781 3.09087891 -2.1171875 3.18359375 C-3.02726562 3.26738281 -3.93734375 3.35117188 -4.875 3.4375 C-5.77992188 3.51871094 -6.68484375 3.59992188 -7.6171875 3.68359375 C-10.01110861 3.86989285 -10.01110861 3.86989285 -12 5 C-14.17824961 5.08559118 -16.35915255 5.10713412 -18.5390625 5.09765625 C-19.84101563 5.09443359 -21.14296875 5.09121094 -22.484375 5.08789062 C-23.86458399 5.07953466 -25.24479232 5.07106971 -26.625 5.0625 C-28.01301926 5.05748501 -29.40104022 5.0529221 -30.7890625 5.04882812 C-34.19275132 5.03700976 -37.59635439 5.02053434 -41 5 C-41.33 4.34 -41.66 3.68 -42 3 C-40.65421875 2.970271 -40.65421875 2.970271 -39.28125 2.93994141 C-35.91885603 2.86135239 -32.5568671 2.77464529 -29.19482422 2.68261719 C-27.74601152 2.64458384 -26.29711261 2.60968863 -24.84814453 2.578125 C-16.49401447 2.39388505 -8.0916737 0 0 0 Z " fill="#D8662E" transform="translate(180,226)"/>
<path d="M0 0 C0.91652344 0.01160156 1.83304688 0.02320313 2.77734375 0.03515625 C3.69644531 0.04417969 4.61554688 0.05320313 5.5625 0.0625 C6.27277344 0.07410156 6.98304688 0.08570313 7.71484375 0.09765625 C-0.46281521 4.86795731 -9.44015298 4.40409695 -18.59765625 4.34765625 C-19.87189453 4.35539063 -21.14613281 4.363125 -22.45898438 4.37109375 C-23.67650391 4.36851562 -24.89402344 4.3659375 -26.1484375 4.36328125 C-27.25485596 4.36102539 -28.36127441 4.35876953 -29.5012207 4.35644531 C-32.28515625 4.09765625 -32.28515625 4.09765625 -35.28515625 2.09765625 C-33.83894897 2.06007202 -33.83894897 2.06007202 -32.36352539 2.02172852 C-28.79827783 1.92780319 -25.23323192 1.82754686 -21.66821289 1.7253418 C-20.12301336 1.6819364 -18.57776411 1.64026554 -17.0324707 1.6003418 C-14.81576529 1.54277426 -12.59931145 1.47904201 -10.3828125 1.4140625 C-9.68801285 1.39735001 -8.9932132 1.38063751 -8.27735901 1.36341858 C-5.10270321 1.26457321 -2.87997971 0.12307606 0 0 Z " fill="#DE7442" transform="translate(172.28515625,212.90234375)"/>
<path d="M0 0 C0 0.66 0 1.32 0 2 C-0.74121094 1.9278125 -1.48242188 1.855625 -2.24609375 1.78125 C-15.88737893 0.57908044 -29.36917316 0.672476 -43 2 C-34.26183619 -6.73816381 -10.9560621 -1.94465762 0 0 Z " fill="#DC672E" transform="translate(176,111)"/>
<path d="M0 0 C0.66 0 1.32 0 2 0 C2.33 10.23 2.66 20.46 3 31 C2.34 30.67 1.68 30.34 1 30 C0.62109375 27.96875 0.62109375 27.96875 0.4375 25.5 C0.4207737 22.45018475 0.4207737 22.45018475 -1 20 C-1.10027422 17.19822034 -1.13873289 14.42650888 -1.125 11.625 C-1.12886719 10.84382812 -1.13273437 10.06265625 -1.13671875 9.2578125 C-1.13100915 5.9234054 -1.06131005 3.18393014 0 0 Z " fill="#E26932" transform="translate(94,160)"/>
<path d="M0 0 C0.66 0.33 1.32 0.66 2 1 C0.94239818 3.88377142 -0.17718921 6.51530402 -2 9 C-5.75 10 -5.75 10 -9 10 C-9.0825 10.556875 -9.165 11.11375 -9.25 11.6875 C-10.23895541 14.73677919 -11.84757466 16.65189963 -14 19 C-14.66 19 -15.32 19 -16 19 C-16 19.66 -16 20.32 -16 21 C-16.66 20.67 -17.32 20.34 -18 20 C-12.80087205 12.23035348 -7.19474211 5.97104622 0 0 Z " fill="#E05E24" transform="translate(106,107)"/>
<path d="M0 0 C1.2380014 3.57644848 0.74926071 6.33694766 0 10 C-0.66 10 -1.32 10 -2 10 C-2.33 10.99 -2.66 11.98 -3 13 C-5.31029085 13.74259349 -7.645752 14.411438 -10 15 C-10.33 15.33 -10.66 15.66 -11 16 C-12.92667507 16.08748207 -14.85651861 16.10697334 -16.78515625 16.09765625 C-17.95498047 16.09443359 -19.12480469 16.09121094 -20.33007812 16.08789062 C-22.17762695 16.07532227 -22.17762695 16.07532227 -24.0625 16.0625 C-25.91584961 16.05573242 -25.91584961 16.05573242 -27.80664062 16.04882812 C-30.87114117 16.03699608 -33.93554721 16.02051173 -37 16 C-37 15.67 -37 15.34 -37 15 C-36.41621582 14.98541748 -35.83243164 14.97083496 -35.23095703 14.95581055 C-32.52838041 14.88030915 -29.82690536 14.78399662 -27.125 14.6875 C-25.74828125 14.65366211 -25.74828125 14.65366211 -24.34375 14.61914062 C-17.07228982 14.33749956 -9.59526996 13.51668897 -3.5 9.25 C-1.5425073 6.31376095 -0.78890247 3.41857737 0 0 Z " fill="#D86227" transform="translate(181,183)"/>
<path d="M0 0 C1 3 1 3 0.25 5.625 C-1 8 -1 8 -4 9 C-4 11.31 -4 13.62 -4 16 C-4.66 16 -5.32 16 -6 16 C-6.12375 17.134375 -6.2475 18.26875 -6.375 19.4375 C-6.58125 20.613125 -6.7875 21.78875 -7 23 C-7.66 23.33 -8.32 23.66 -9 24 C-7.81710688 15.01001231 -5.23557961 7.40844862 0 0 Z " fill="#DD6E36" transform="translate(87,128)"/>
<path d="M0 0 C0 0.33 0 0.66 0 1 C-1.22976562 1.04898438 -2.45953125 1.09796875 -3.7265625 1.1484375 C-5.35939566 1.22351029 -6.99220712 1.29905615 -8.625 1.375 C-9.43324219 1.4059375 -10.24148437 1.436875 -11.07421875 1.46875 C-15.75942703 1.69729675 -19.5507181 2.41462369 -24 4 C-26.5546875 4.1953125 -26.5546875 4.1953125 -28.875 4.125 C-29.65617188 4.10695313 -30.43734375 4.08890625 -31.2421875 4.0703125 C-31.82226562 4.04710938 -32.40234375 4.02390625 -33 4 C-23.75230515 -2.1651299 -10.63818242 -0.20130476 0 0 Z " fill="#DA7A4C" transform="translate(164,91)"/>
<path d="M0 0 C0.66 0 1.32 0 2 0 C1.79503906 0.84820312 1.59007812 1.69640625 1.37890625 2.5703125 C-0.58625524 11.12675726 -1.61308275 19.220981 -2 28 C-2.33 28 -2.66 28 -3 28 C-3.0878954 24.64600151 -3.14068879 21.2923036 -3.1875 17.9375 C-3.21263672 16.99455078 -3.23777344 16.05160156 -3.26367188 15.08007812 C-3.32478517 9.23357264 -2.74104641 5.18712456 0 0 Z " fill="#DB652E" transform="translate(128,148)"/>
<path d="M0 0 C-1.875 3.875 -1.875 3.875 -3 5 C-3.15858842 7.14386657 -3.25129298 9.29266838 -3.31640625 11.44140625 C-3.35830078 12.74658203 -3.40019531 14.05175781 -3.44335938 15.39648438 C-3.48317608 16.7851533 -3.52288825 18.17382522 -3.5625 19.5625 C-3.60567989 20.95509183 -3.649294 22.34767028 -3.69335938 23.74023438 C-3.79985876 27.16004801 -3.90186923 30.57993763 -4 34 C-4.33 34 -4.66 34 -5 34 C-5.07430494 29.80081815 -5.12867413 25.60198726 -5.16479492 21.40234375 C-5.17985681 19.97454154 -5.20031062 18.5467854 -5.22631836 17.11914062 C-5.26281842 15.06368627 -5.27975166 13.00884495 -5.29296875 10.953125 C-5.3086792 9.71723633 -5.32438965 8.48134766 -5.34057617 7.20800781 C-4.95781559 3.6026501 -4.17793664 0 0 0 Z " fill="#CED3DA" transform="translate(319,161)"/>
<path d="M0 0 C2.30229874 2.30229874 2.64432606 3.71068197 3.5 6.8125 C4.49508624 10.30287863 5.55425502 13.66366543 7 17 C6.34 17 5.68 17 5 17 C5 16.34 5 15.68 5 15 C4.34 15 3.68 15 3 15 C2.34 13.02 1.68 11.04 1 9 C0.34 9 -0.32 9 -1 9 C-0.67 6.03 -0.34 3.06 0 0 Z " fill="#DD6934" transform="translate(97,192)"/>
<path d="M0 0 C0.33 0 0.66 0 1 0 C1 6.6 1 13.2 1 20 C3.64 20 6.28 20 9 20 C6 22 6 22 0 23 C0 15.41 0 7.82 0 0 Z " fill="#B7C1C8" transform="translate(467,126)"/>
<path d="M0 0 C0.33 0.66 0.66 1.32 1 2 C-2.09677419 8.42293907 -2.09677419 8.42293907 -5.25 10.4375 C-6.11625 10.7159375 -6.11625 10.7159375 -7 11 C-7 11.66 -7 12.32 -7 13 C-7.66 12.67 -8.32 12.34 -9 12 C-7.68858144 10.18671738 -6.37583526 8.37439486 -5.0625 6.5625 C-3.96615234 5.04849609 -3.96615234 5.04849609 -2.84765625 3.50390625 C-1 1 -1 1 0 0 Z " fill="#DD6A31" transform="translate(97,115)"/>
<path d="M0 0 C0.80981029 2.32627033 1.16865034 3.54809162 0.29296875 5.89453125 C-0.07183594 6.52746094 -0.43664062 7.16039062 -0.8125 7.8125 C-2.81092636 11.49817907 -3.98466823 14.93867291 -5 19 C-6.69904029 14.93663256 -5.11367988 11.68069214 -3.625 7.8125 C-3.39039062 7.17119141 -3.15578125 6.52988281 -2.9140625 5.86914062 C-1.16584821 1.16584821 -1.16584821 1.16584821 0 0 Z " fill="#FDDBC2" transform="translate(104,131)"/>
<path d="M0 0 C7.28695785 -0.474377 11.97181491 -0.28670939 18 4 C14.67429578 5.66285211 11.31639055 3.98079852 7.875 3.0625 C6.74384766 2.76956055 6.74384766 2.76956055 5.58984375 2.47070312 C3.72491694 1.98676642 1.86223541 1.49419231 0 1 C0 0.67 0 0.34 0 0 Z " fill="#FBDCC3" transform="translate(166,123)"/>
<path d="M0 0 C-4.06727245 2.91832543 -6.84915617 3.33790436 -11.8125 3.1875 C-13.55466797 3.14689453 -13.55466797 3.14689453 -15.33203125 3.10546875 C-16.21246094 3.07066406 -17.09289062 3.03585938 -18 3 C-18 2.67 -18 2.34 -18 2 C-17.15695313 1.86722656 -16.31390625 1.73445312 -15.4453125 1.59765625 C-14.34960938 1.42105469 -13.25390625 1.24445313 -12.125 1.0625 C-10.48917969 0.80146484 -10.48917969 0.80146484 -8.8203125 0.53515625 C-2.32466063 -0.69739819 -2.32466063 -0.69739819 0 0 Z " fill="#FBD1B9" transform="translate(180,246)"/>
<path d="M0 0 C0.33 0 0.66 0 1 0 C0.91308261 2.77236494 0.80622639 5.54147078 0.6875 8.3125 C0.66494141 9.09818359 0.64238281 9.88386719 0.61914062 10.69335938 C0.58369141 11.45068359 0.54824219 12.20800781 0.51171875 12.98828125 C0.48553467 13.68477783 0.45935059 14.38127441 0.43237305 15.09887695 C-0.11223768 17.49350359 -1.15829162 18.43272547 -3 20 C-2.22602467 13.29221378 -1.14231412 6.65425699 0 0 Z " fill="#E27946" transform="translate(213,178)"/>
<path d="M0 0 C0.33 1.32 0.66 2.64 1 4 C0.34 4 -0.32 4 -1 4 C-1.2784375 5.11375 -1.2784375 5.11375 -1.5625 6.25 C-3.63809824 10.22070968 -5.96326521 11.1258017 -10 13 C-10.66 12.67 -11.32 12.34 -12 12 C-11.46890625 11.63648438 -10.9378125 11.27296875 -10.390625 10.8984375 C-5.84855246 7.66594062 -2.76940714 4.8464625 0 0 Z " fill="#DD6732" transform="translate(204,209)"/>
<path d="M0 0 C0.33 0.66 0.66 1.32 1 2 C0.06421005 4.35981813 -0.93347808 6.69631264 -2 9 C-2.66 9 -3.32 9 -4 9 C-4.66 11.97 -5.32 14.94 -6 18 C-7.1851275 13.25949001 -6.0555225 11.14679321 -4 7 C-3.46375 5.88625 -2.9275 4.7725 -2.375 3.625 C-1 1 -1 1 0 0 Z " fill="#E58253" transform="translate(116,134)"/>
<path d="M0 0 C0.66 0.33 1.32 0.66 2 1 C-0.62559946 4.69528813 -2.5369351 6.85562438 -7 8 C-7.99 7.67 -8.98 7.34 -10 7 C-6.7 4.69 -3.4 2.38 0 0 Z " fill="#FDE1CB" transform="translate(202,232)"/>
<path d="M0 0 C1.98 0 3.96 0 6 0 C3.51520614 1.65652924 1.0363745 3.16072474 -1.5625 4.625 C-2.34753906 5.07101563 -3.13257812 5.51703125 -3.94140625 5.9765625 C-6 7 -6 7 -8 7 C-8 6.01 -8 5.02 -8 4 C-6.68 4 -5.36 4 -4 4 C-4 3.34 -4 2.68 -4 2 C-2.68 2 -1.36 2 0 2 C0 1.34 0 0.68 0 0 Z " fill="#DC6A35" transform="translate(120,115)"/>
<path d="M0 0 C0.66 0 1.32 0 2 0 C2.33 1.32 2.66 2.64 3 4 C3.66 4 4.32 4 5 4 C5 5.65 5 7.3 5 9 C5.66 9 6.32 9 7 9 C7 10.98 7 12.96 7 15 C4.33575377 11.85134537 3.20116978 8.9238213 2 5 C1.34588315 3.32836805 0.68346682 1.65984798 0 0 Z " fill="#DD753E" transform="translate(204,130)"/>
<path d="M0 0 C0.66 0.33 1.32 0.66 2 1 C-0.97 3.64 -3.94 6.28 -7 9 C-7.99 8.67 -8.98 8.34 -10 8 C-8.71064081 6.85157077 -7.41843421 5.70633773 -6.125 4.5625 C-5.04605469 3.60537109 -5.04605469 3.60537109 -3.9453125 2.62890625 C-2 1 -2 1 0 0 Z " fill="#FEE7D9" transform="translate(117,119)"/>
<path d="M0 0 C1.60495567 0.11442461 3.20898119 0.24194694 4.8125 0.375 C5.70582031 0.44460937 6.59914062 0.51421875 7.51953125 0.5859375 C10 1 10 1 13 3 C11.58376784 3.05447047 10.16691809 3.09300508 8.75 3.125 C7.96109375 3.14820312 7.1721875 3.17140625 6.359375 3.1953125 C3.79268059 2.9828378 2.2083933 2.28654105 0 1 C0 0.67 0 0.34 0 0 Z " fill="#DC662C" transform="translate(164,92)"/>
<path d="M0 0 C3.79379058 1.49041773 5.68343758 3.69062512 8 7 C8 7.66 8 8.32 8 9 C7.01 9 6.02 9 5 9 C4.896875 8.360625 4.79375 7.72125 4.6875 7.0625 C4.3471875 6.0415625 4.3471875 6.0415625 4 5 C3.01 4.67 2.02 4.34 1 4 C0.3125 1.9375 0.3125 1.9375 0 0 Z " fill="#DE6C36" transform="translate(188,131)"/>
<path d="M0 0 C2.3828125 -0.29296875 2.3828125 -0.29296875 5.125 -0.1875 C6.03507813 -0.16042969 6.94515625 -0.13335937 7.8828125 -0.10546875 C8.58148438 -0.07066406 9.28015625 -0.03585938 10 0 C5.96707255 2.2344598 2.55032566 2.54496743 -2 3 C-1.34 2.01 -0.68 1.02 0 0 Z " fill="#E06C36" transform="translate(170,213)"/>
<path d="M0 0 C0.99 0.495 0.99 0.495 2 1 C2.6328125 3.06640625 2.6328125 3.06640625 3.125 5.5625 C3.29257813 6.38878906 3.46015625 7.21507812 3.6328125 8.06640625 C3.75398438 8.70449219 3.87515625 9.34257812 4 10 C2.68 9.34 1.36 8.68 0 8 C0 5.36 0 2.72 0 0 Z " fill="#FCD6C0" transform="translate(77,189)"/>
<path d="M0 0 C0 0.99 0 1.98 0 3 C-3.63 3 -7.26 3 -11 3 C-11 2.67 -11 2.34 -11 2 C-3.375 0 -3.375 0 0 0 Z " fill="#DF6F39" transform="translate(180,226)"/>
<path d="M0 0 C0.95465783 2.16967689 1.14401212 3.56328793 0.3984375 5.82421875 C-0.35870385 7.5684743 -1.17609198 9.28627131 -2 11 C-2.66 11 -3.32 11 -4 11 C-3.52269162 9.5410574 -3.04308958 8.08286504 -2.5625 6.625 C-2.29566406 5.81289062 -2.02882812 5.00078125 -1.75390625 4.1640625 C-1 2 -1 2 0 0 Z " fill="#DD7A48" transform="translate(209,198)"/>
<path d="M0 0 C1.2380014 3.57644848 0.74926071 6.33694766 0 10 C-1.65 10.33 -3.3 10.66 -5 11 C-4.54625 10.484375 -4.0925 9.96875 -3.625 9.4375 C-1.61799617 6.42699426 -0.87268191 3.49072763 0 0 Z " fill="#DD6F3A" transform="translate(181,183)"/>
<path d="M0 0 C2.31 0 4.62 0 7 0 C7.66 1.32 8.32 2.64 9 4 C6.03 3.01 3.06 2.02 0 1 C0 0.67 0 0.34 0 0 Z " fill="#FBDBC3" transform="translate(117,221)"/>
<path d="M0 0 C2 2 2 2 2.125 5.625 C2.08375 6.73875 2.0425 7.8525 2 9 C1.01 9 0.02 9 -1 9 C-0.67 6.03 -0.34 3.06 0 0 Z " fill="#E2612A" transform="translate(97,192)"/>
<path d="M0 0 C2.79872437 2.52788007 4.45773019 4.20411134 5 8 C4.34 8 3.68 8 3 8 C0.25624329 5.04518508 0 4.22528092 0 0 Z " fill="#DF743C" transform="translate(220,127)"/>
<path d="M0 0 C0.66 0.33 1.32 0.66 2 1 C-0.64 2.65 -3.28 4.3 -6 6 C-6.66 5.34 -7.32 4.68 -8 4 C-6.71349294 3.30289269 -5.42059335 2.61757124 -4.125 1.9375 C-3.40570313 1.55464844 -2.68640625 1.17179688 -1.9453125 0.77734375 C-1.30335938 0.52082031 -0.66140625 0.26429688 0 0 Z " fill="#FCD8C1" transform="translate(188,209)"/>
</svg>
