<svg width="84" height="69" viewBox="0 0 84 69" fill="none" xmlns="http://www.w3.org/2000/svg">
<path d="M49.9957 39.319L58.7981 45.6578L49.9957 51.9991C49.0631 52.6707 48.2717 53.5199 47.6666 54.498C47.0615 55.4762 46.6546 56.5642 46.4692 57.7C46.2838 58.8357 46.3234 59.9969 46.5859 61.1173C46.8483 62.2377 47.3285 63.2953 47.9988 64.2297C49.3525 66.1169 51.3987 67.3881 53.6875 67.7638C55.9763 68.1395 58.3203 67.5889 60.204 66.2331L78.8868 52.7773L78.964 52.7193L79.1473 52.5815L79.3233 52.4389L79.4632 52.3205C79.5356 52.2601 79.6079 52.1973 79.6754 52.1344L79.7598 52.0571L80.0179 51.8154L80.0396 51.7937C80.6533 51.1652 81.1688 50.4474 81.5685 49.6646L81.5902 49.6235C81.6409 49.5196 81.6915 49.4157 81.7398 49.3118L81.7904 49.1982C81.8242 49.1185 81.8579 49.0387 81.8893 48.9565C81.9206 48.8744 81.9399 48.8333 81.9616 48.7729C81.9833 48.7125 82.005 48.6569 82.0243 48.5989C82.0436 48.5409 82.0846 48.4321 82.1112 48.3572C82.1112 48.3185 82.1329 48.2799 82.1449 48.2412C82.1763 48.1397 82.2052 48.0382 82.2341 47.9367C82.2341 47.9125 82.2462 47.8884 82.251 47.8642C82.28 47.7482 82.3089 47.6226 82.333 47.5186C82.3342 47.5017 82.3342 47.4848 82.333 47.4679C82.3596 47.3471 82.3813 47.2262 82.403 47.1054V47.0498C82.4223 46.9306 82.4391 46.8122 82.4536 46.6946V46.6124C82.4665 46.5028 82.4761 46.3941 82.4825 46.2861C82.4825 46.2402 82.4825 46.1943 82.4825 46.1484C82.4825 46.059 82.4825 45.9696 82.4946 45.8777C82.5067 45.7859 82.4946 45.7424 82.4946 45.6747C82.4946 45.6071 82.4946 45.5394 82.4946 45.4717C82.4946 45.4041 82.4946 45.2905 82.4825 45.2011C82.4825 45.1552 82.4825 45.1092 82.4825 45.0657C82.4825 44.9578 82.4729 44.8491 82.4536 44.7395V44.6573C82.4391 44.5365 82.4223 44.4157 82.403 44.2997V44.2441C82.3813 44.1233 82.3596 44.0024 82.333 43.8816C82.3342 43.8647 82.3342 43.8477 82.333 43.8308C82.3089 43.7173 82.28 43.5892 82.251 43.4877C82.251 43.4635 82.251 43.4393 82.2341 43.4152C82.2052 43.3137 82.1763 43.2122 82.1449 43.1107C82.1329 43.072 82.1232 43.0333 82.1112 42.9947C82.0822 42.9101 82.0557 42.8279 82.0243 42.753C81.993 42.6781 81.9833 42.637 81.9616 42.579C81.9399 42.521 81.9158 42.4558 81.8893 42.3954C81.8628 42.3349 81.8242 42.2334 81.7904 42.1537L81.7398 42.0425C81.6915 41.9386 81.6409 41.8347 81.5902 41.7308L81.5685 41.6897C81.169 40.906 80.6535 40.1874 80.0396 39.5582L80.0179 39.534C79.9335 39.4495 79.8466 39.3673 79.7598 39.2924L79.6754 39.2151C79.6079 39.1522 79.5356 39.0894 79.4632 39.0266L79.3233 38.9081L79.1473 38.768L78.964 38.6302C78.9375 38.6109 78.9134 38.5891 78.8868 38.5722L60.204 25.0849C59.2714 24.4133 58.2159 23.9323 57.0977 23.6695C55.9796 23.4067 54.8207 23.3672 53.6873 23.5532C52.5539 23.7393 51.4682 24.1472 50.4922 24.7538C49.5161 25.3603 48.6689 26.1536 47.9988 27.0883C47.3285 28.0228 46.8483 29.0804 46.5859 30.2008C46.3234 31.3211 46.2838 32.4824 46.4692 33.6181C46.6546 34.7538 47.0615 35.8419 47.6666 36.82C48.2717 37.7982 49.0631 38.6473 49.9957 39.319Z" fill="#FF7DAF" stroke="#1E1E1E" stroke-width="2" stroke-miterlimit="10"/>
<path d="M33.9957 17.1575L25.1917 23.4146L33.9957 29.6741C34.9294 30.3362 35.722 31.1737 36.3283 32.1388C36.9347 33.1039 37.3428 34.1777 37.5294 35.2989C37.7159 36.42 37.6774 37.5665 37.4158 38.6729C37.1542 39.7793 36.6748 40.8239 36.0049 41.747C34.6502 43.6095 32.6033 44.864 30.3139 45.2348C28.0244 45.6056 25.6798 45.0624 23.7951 43.7246L5.10897 30.4422L5.03419 30.385L4.85088 30.249L4.67239 30.1083L4.53249 29.9914C4.46012 29.9317 4.39017 29.8697 4.32022 29.8077L4.23822 29.7314C4.14897 29.6503 4.06455 29.5668 3.98012 29.4928L3.95842 29.4713C3.34363 28.8503 2.82725 28.141 2.42676 27.3674L2.40747 27.3268C2.3544 27.2242 2.30616 27.1217 2.25792 27.0191L2.20727 26.907C2.17109 26.8282 2.13973 26.7495 2.10596 26.6684L2.0336 26.4871L1.97088 26.3154C1.94194 26.2343 1.913 26.1508 1.88646 26.0768L1.85028 25.9623C1.81812 25.8621 1.78918 25.7619 1.76345 25.6617C1.76345 25.6379 1.75139 25.614 1.74415 25.5902C1.71521 25.4757 1.68626 25.3516 1.66214 25.2491C1.66214 25.2324 1.66214 25.2157 1.66214 25.199C1.63561 25.0797 1.6139 24.9604 1.5946 24.8411C1.59325 24.8229 1.59325 24.8045 1.5946 24.7863C1.57531 24.6694 1.55842 24.5477 1.54636 24.4356C1.54636 24.4094 1.54636 24.3807 1.54636 24.3545C1.53511 24.2464 1.52546 24.139 1.51742 24.0325V23.8965C1.51742 23.8082 1.51742 23.72 1.50536 23.6293C1.4933 23.5387 1.50536 23.4957 1.50536 23.4289C1.50536 23.3622 1.50536 23.2954 1.50536 23.2286C1.50536 23.1618 1.50536 23.0496 1.51742 22.9614V22.8278C1.51742 22.7212 1.52707 22.6139 1.54636 22.5058C1.54636 22.4795 1.54636 22.4509 1.54636 22.4247C1.54636 22.3054 1.57531 22.1861 1.5946 22.0716C1.59365 22.0533 1.59365 22.035 1.5946 22.0167C1.6139 21.8975 1.63561 21.7782 1.66214 21.6589C1.66214 21.6422 1.66214 21.6255 1.66214 21.6088C1.68626 21.4967 1.71521 21.3703 1.74415 21.2701C1.74415 21.2462 1.75621 21.2224 1.76345 21.1985C1.79078 21.0983 1.81973 20.9981 1.85028 20.898L1.88646 20.7835C1.913 20.7 1.94194 20.6189 1.97088 20.5449L2.0336 20.3731L2.10596 20.1919C2.13973 20.1131 2.17109 20.032 2.20727 19.9533L2.25792 19.8436C2.30616 19.741 2.3544 19.6384 2.40747 19.5358C2.4129 19.5219 2.41935 19.5083 2.42676 19.4953C2.82725 18.7217 3.34363 18.0123 3.95842 17.3913L3.98012 17.3675C4.06455 17.284 4.14897 17.2029 4.23822 17.1289L4.32022 17.0526L4.53249 16.8665L4.67239 16.7496L4.85088 16.6113C4.91118 16.5659 4.97148 16.5182 5.03419 16.4753C5.05806 16.4549 5.08302 16.4358 5.10897 16.418L23.7951 3.1357C25.6759 1.79368 28.0184 1.24512 30.308 1.61057C32.5975 1.97603 34.6466 3.2256 36.0049 5.08463C36.6748 6.00773 37.1542 7.05232 37.4158 8.15871C37.6774 9.26509 37.7159 10.4116 37.5294 11.5328C37.3428 12.6539 36.9347 13.7277 36.3283 14.6928C35.722 15.6579 34.9294 16.4955 33.9957 17.1575Z" fill="#FF7DAF" stroke="#1E1E1E" stroke-width="2" stroke-miterlimit="10"/>
</svg>
