<svg width="55" height="42" viewBox="0 0 55 42" fill="none" xmlns="http://www.w3.org/2000/svg">
<mask id="path-1-outside-1_3_28" maskUnits="userSpaceOnUse" x="0" y="0" width="55" height="42" fill="black">
<rect fill="white" width="55" height="42"/>
<path d="M28.498 1C28.6335 2.41035 28.9879 3.79459 29.54 5.09961C33.8518 14.2582 44.496 18.4892 54.0898 20.5557L54.0449 21.0479L54.0898 21.54C44.496 23.6065 33.8518 27.8375 29.54 36.9961C28.9879 38.3011 28.6335 39.6853 28.498 41.0957C28.1663 41.0636 27.8337 41.0321 27.502 41C27.6469 39.4892 28.0279 38.001 28.6182 36.6064C32.6519 28.1612 41.2863 23.9285 49.8906 21.5479H1V20.5479H49.8906C41.2863 18.1672 32.6519 13.9345 28.6182 5.48926C28.0279 4.0947 27.6469 2.60647 27.502 1.0957C27.8337 1.0636 28.1663 1.03211 28.498 1Z"/>
</mask>
<path d="M28.498 1C28.6335 2.41035 28.9879 3.79459 29.54 5.09961C33.8518 14.2582 44.496 18.4892 54.0898 20.5557L54.0449 21.0479L54.0898 21.54C44.496 23.6065 33.8518 27.8375 29.54 36.9961C28.9879 38.3011 28.6335 39.6853 28.498 41.0957C28.1663 41.0636 27.8337 41.0321 27.502 41C27.6469 39.4892 28.0279 38.001 28.6182 36.6064C32.6519 28.1612 41.2863 23.9285 49.8906 21.5479H1V20.5479H49.8906C41.2863 18.1672 32.6519 13.9345 28.6182 5.48926C28.0279 4.0947 27.6469 2.60647 27.502 1.0957C27.8337 1.0636 28.1663 1.03211 28.498 1Z" fill="black"/>
<path d="M28.498 1L28.9958 0.95219L28.9479 0.454129L28.4499 0.502325L28.498 1ZM29.54 5.09961L29.0796 5.29443L29.0834 5.30359L29.0877 5.31258L29.54 5.09961ZM54.0898 20.5557L54.5878 20.6011L54.628 20.1601L54.1951 20.0669L54.0898 20.5557ZM54.0449 21.0479L53.547 21.0024L53.5428 21.0479L53.547 21.0933L54.0449 21.0479ZM54.0898 21.54L54.1951 22.0288L54.628 21.9356L54.5878 21.4946L54.0898 21.54ZM29.54 36.9961L29.0877 36.7831L29.0834 36.7921L29.0796 36.8013L29.54 36.9961ZM28.498 41.0957L28.4499 41.5934L28.9479 41.6416L28.9958 41.1435L28.498 41.0957ZM27.502 41L27.0042 40.9523L26.9565 41.4496L27.4538 41.4977L27.502 41ZM28.6182 36.6064L28.167 36.3909L28.1621 36.4011L28.1577 36.4116L28.6182 36.6064ZM49.8906 21.5479L50.024 22.0297L49.8906 21.0479V21.5479ZM1 21.5479H0.5V22.0479H1V21.5479ZM1 20.5479V20.0479H0.5V20.5479H1ZM49.8906 20.5479V21.0479L50.024 20.066L49.8906 20.5479ZM28.6182 5.48926L28.1577 5.68414L28.1621 5.69455L28.167 5.70476L28.6182 5.48926ZM27.502 1.0957L27.4538 0.598028L26.9565 0.646149L27.0042 1.14344L27.502 1.0957ZM28.498 1L28.0003 1.04781C28.1408 2.50967 28.508 3.94342 29.0796 5.29443L29.54 5.09961L30.0005 4.90479C29.4679 3.64576 29.1263 2.31104 28.9958 0.95219L28.498 1ZM29.54 5.09961L29.0877 5.31258C33.5084 14.7027 44.3743 18.9744 53.9846 21.0445L54.0898 20.5557L54.1951 20.0669C44.6176 18.0039 34.1952 13.8138 29.9924 4.88664L29.54 5.09961ZM54.0898 20.5557L53.5919 20.5102L53.547 21.0024L54.0449 21.0479L54.5429 21.0933L54.5878 20.6011L54.0898 20.5557ZM54.0449 21.0479L53.547 21.0933L53.5919 21.5855L54.0898 21.54L54.5878 21.4946L54.5429 21.0024L54.0449 21.0479ZM54.0898 21.54L53.9846 21.0513C44.3743 23.1213 33.5084 27.393 29.0877 36.7831L29.54 36.9961L29.9924 37.2091C34.1952 28.2819 44.6176 24.0918 54.1951 22.0288L54.0898 21.54ZM29.54 36.9961L29.0796 36.8013C28.508 38.1523 28.1408 39.586 28.0003 41.0479L28.498 41.0957L28.9958 41.1435C29.1263 39.7847 29.4679 38.4499 30.0005 37.1909L29.54 36.9961ZM28.498 41.0957L28.5462 40.598C28.38 40.5819 28.2137 40.566 28.0476 40.5501C27.8815 40.5342 27.7157 40.5183 27.5501 40.5023L27.502 41L27.4538 41.4977C27.62 41.5138 27.7863 41.5297 27.9524 41.5456C28.1185 41.5615 28.2843 41.5774 28.4499 41.5934L28.498 41.0957ZM27.502 41L27.9997 41.0477C28.1396 39.5885 28.5079 38.1498 29.0786 36.8013L28.6182 36.6064L28.1577 36.4116C27.548 37.8522 27.1541 39.39 27.0042 40.9523L27.502 41ZM28.6182 36.6064L29.0693 36.8219C33.0068 28.5783 41.4593 24.3994 50.024 22.0297L49.8906 21.5479L49.7573 21.066C41.1133 23.4576 32.297 27.7441 28.167 36.3909L28.6182 36.6064ZM49.8906 21.5479V21.0479H1V21.5479V22.0479H49.8906V21.5479ZM1 21.5479H1.5V20.5479H1H0.5V21.5479H1ZM1 20.5479V21.0479H49.8906V20.5479V20.0479H1V20.5479ZM49.8906 20.5479L50.024 20.066C41.4593 17.6963 33.0068 13.5174 29.0693 5.27376L28.6182 5.48926L28.167 5.70476C32.297 14.3516 41.1133 18.6381 49.7573 21.0297L49.8906 20.5479ZM28.6182 5.48926L29.0786 5.29438C28.5079 3.94589 28.1396 2.50722 27.9997 1.04797L27.502 1.0957L27.0042 1.14344C27.1541 2.70571 27.548 4.24351 28.1577 5.68414L28.6182 5.48926ZM27.502 1.0957L27.5501 1.59338C27.7157 1.57735 27.8815 1.56148 28.0476 1.54558C28.2137 1.52968 28.38 1.51376 28.5462 1.49768L28.498 1L28.4499 0.502325C28.2843 0.51835 28.1185 0.534224 27.9524 0.550127C27.7863 0.566022 27.62 0.581945 27.4538 0.598028L27.502 1.0957Z" fill="black" mask="url(#path-1-outside-1_3_28)"/>
</svg>
