<svg width="2136" height="2136" viewBox="0 0 2136 2136" fill="none" xmlns="http://www.w3.org/2000/svg">
<path d="M1990 1210.17L2053.5 1272L2117 1209.64V519.425L2052.97 456L1990 518.892V1210.17Z" fill="#4285F4"/>
<path d="M803 143.974L866.5 208L930 143.44V-547.507L865.966 -611L803 -548.041V143.974Z" fill="#EA4335"/>
<path d="M1926.77 271L1990 208.034L1926.04 144H929.892L867 208.034L929.16 271H1926.77Z" fill="#FF7DAF"/>
<path d="M1990 2139.01L2053.5 2210L2117 2138.39V1336.43L2052.97 1273L1990 1335.81V2139.01Z" fill="#EA4335"/>
<path d="M1637 1768.12L1701.57 1830L1764 1767.48V458.544L1697.83 402L1637 457.901V1768.12Z" fill="#34A853"/>
<path d="M439.981 1767L376 1830.77L440.833 1894H1637.7L1706 1829.97L1638.55 1767H439.981Z" fill="#FF7DAF"/>
<path d="M50.8015 1449L-11 1513.03L50.9859 1576H309.935L378 1513.57L310.12 1449H50.8015Z" fill="#EA4335"/>
<path d="M1760.79 330L1694 399.37L1760.92 457L1926.27 457L1990 394.567L1926.4 330L1760.79 330Z" fill="#4285F4"/>
<path d="M2054 271.603L1990.5 208L1927 271.648V328.793L1989.97 394L2054 328.793V271.603Z" fill="#34A853"/>
<path d="M442 1573.68L380.979 1512L313 1573.81L314.606 1764.45L376.697 1828L442 1764.59V1573.68Z" fill="#4285F4"/>
<path d="M1772 1895.51L1707.63 1831L1639 1895.51V2152.37L1703.67 2233L1772 2152.37V1895.51Z" fill="#F9AB00"/>
<path d="M2118.51 1207L2054 1271.37L2118.51 1340H2375.37L2456 1275.33L2375.37 1207H2118.51Z" fill="#F9AB00"/>
</svg>
