<svg width="1512" height="1005" viewBox="0 0 1512 1005" fill="none" xmlns="http://www.w3.org/2000/svg">
<g clip-path="url(#clip0_182_500)">
<path d="M1486.71 287.681L1959.93 327.756M1765.7 1105.5L1419.61 925.856L1047.04 829.125L674.472 675.863L199.488 752.494M199.488 752.494L649.751 959.775L352.224 1104.87L199.488 752.494ZM199.488 752.494L-218.993 619.331L308.964 479.888L74.1201 287.681L352.224 99.8719L7.02202 -79.1437" stroke="#5CDB6D" stroke-width="0.5"/>
<path d="M74.1201 287.681L547.338 327.881L817.497 479.888L1193.6 619.331L673.589 675.234L308.081 479.259M782.182 1136.91L649.751 959.775" stroke="#5CDB6D" stroke-width="0.5"/>
<path d="M1047.04 829.125L1149.46 1057.76L1419.61 925.856L1612.08 752.494L1193.6 619.331L1047.04 829.125ZM1047.04 829.125L649.751 959.775L674.472 675.863L817.496 479.888L1080.59 337.931L1486.71 287.681L1148.57 52.1344L782.182 131.906L649.751 -45.225L352.224 99.8719L547.338 327.881L308.963 479.888L199.488 752.494L7.02197 925.856L353.107 1105.5" stroke="#5CDB6D" stroke-width="0.5"/>
<path d="M1047.04 -175.875L1150.34 53.3907L1419.61 -79.1437M1193.6 619.331L1080.59 337.931M1080.59 337.931L547.338 327.881L782.182 131.906M1080.59 337.931L1721.56 479.888M817.496 479.888H308.963" stroke="#5CDB6D" stroke-width="0.5"/>
<path d="M-263.136 52.7625L352.224 99.8719L782.182 131.906L1080.59 337.931L1148.57 52.1344M1148.57 52.1344L1765.7 100.5L1486.71 287.681L1721.55 479.887L1193.6 619.331L1419.61 925.856M1148.57 52.1344L649.751 -45.225M1149.46 1057.76L649.751 959.775M199.488 -252.506L353.107 100.5M308.963 479.887L-332 337.931" stroke="#5CDB6D" stroke-width="0.5"/>
<path d="M1486.45 294.562C1491.67 294.562 1495.9 291.75 1495.9 288.281C1495.9 284.812 1491.67 282 1486.45 282C1481.23 282 1477 284.812 1477 288.281C1477 291.75 1481.23 294.562 1486.45 294.562Z" fill="#FF7DAF"/>
<path d="M1082.71 344.213C1087.93 344.213 1092.16 341.4 1092.16 337.931C1092.16 334.462 1087.93 331.65 1082.71 331.65C1077.49 331.65 1073.26 334.462 1073.26 337.931C1073.26 341.4 1077.49 344.213 1082.71 344.213Z" fill="#FF7DAF"/>
<path d="M1191.67 625.613C1196.89 625.613 1201.12 622.8 1201.12 619.331C1201.12 615.862 1196.89 613.05 1191.67 613.05C1186.45 613.05 1182.22 615.862 1182.22 619.331C1182.22 622.8 1186.45 625.613 1191.67 625.613Z" fill="#FF7DAF"/>
<path d="M1421.59 932.137C1426.81 932.137 1431.04 929.325 1431.04 925.856C1431.04 922.387 1426.81 919.575 1421.59 919.575C1416.37 919.575 1412.14 922.387 1412.14 925.856C1412.14 929.325 1416.37 932.137 1421.59 932.137Z" fill="#FF7DAF"/>
<path d="M1046.45 835.562C1051.67 835.562 1055.9 832.75 1055.9 829.281C1055.9 825.812 1051.67 823 1046.45 823C1041.23 823 1037 825.812 1037 829.281C1037 832.75 1041.23 835.562 1046.45 835.562Z" fill="#FF7DAF"/>
<path d="M673.01 682.144C678.229 682.144 682.46 679.331 682.46 675.862C682.46 672.393 678.229 669.581 673.01 669.581C667.791 669.581 663.56 672.393 663.56 675.862C663.56 679.331 667.791 682.144 673.01 682.144Z" fill="#FF7DAF"/>
<path d="M648.55 966.056C653.769 966.056 658 963.244 658 959.775C658 956.306 653.769 953.494 648.55 953.494C643.331 953.494 639.1 956.306 639.1 959.775C639.1 963.244 643.331 966.056 648.55 966.056Z" fill="#FF7DAF"/>
<path d="M199.6 758.775C204.819 758.775 209.05 755.963 209.05 752.494C209.05 749.025 204.819 746.213 199.6 746.213C194.381 746.213 190.15 749.025 190.15 752.494C190.15 755.963 194.381 758.775 199.6 758.775Z" fill="#FF7DAF"/>
<path d="M192.78 486.169C197.999 486.169 202.23 483.357 202.23 479.888C202.23 476.419 197.999 473.606 192.78 473.606C187.561 473.606 183.33 476.419 183.33 479.888C183.33 483.357 187.561 486.169 192.78 486.169Z" fill="#FF7DAF"/>
<path d="M352.45 106.562C357.669 106.562 361.9 103.75 361.9 100.281C361.9 96.8122 357.669 94 352.45 94C347.231 94 343 96.8122 343 100.281C343 103.75 347.231 106.562 352.45 106.562Z" fill="#FF7DAF"/>
<path d="M782.45 138.562C787.669 138.562 791.9 135.75 791.9 132.281C791.9 128.812 787.669 126 782.45 126C777.231 126 773 128.812 773 132.281C773 135.75 777.231 138.562 782.45 138.562Z" fill="#FF7DAF"/>
<path d="M1147.42 59.0438C1152.64 59.0438 1156.87 56.2316 1156.87 52.7625C1156.87 49.2935 1152.64 46.4813 1147.42 46.4813C1142.2 46.4813 1137.97 49.2935 1137.97 52.7625C1137.97 56.2316 1142.2 59.0438 1147.42 59.0438Z" fill="#FF7DAF"/>
<path d="M547.45 334.562C552.669 334.562 556.9 331.75 556.9 328.281C556.9 324.812 552.669 322 547.45 322C542.231 322 538 324.812 538 328.281C538 331.75 542.231 334.562 547.45 334.562Z" fill="#FF7DAF"/>
<path d="M816.1 486.169C821.319 486.169 825.55 483.357 825.55 479.888C825.55 476.419 821.319 473.606 816.1 473.606C810.881 473.606 806.65 476.419 806.65 479.888C806.65 483.357 810.881 486.169 816.1 486.169Z" fill="#FF7DAF"/>
<g clip-path="url(#clip1_182_500)">
<path d="M72.922 596.565H2.87108C2.20756 596.565 1.57121 596.829 1.10203 597.298C0.632844 597.768 0.369263 598.404 0.369263 599.068V636.31C0.369263 636.974 0.632844 637.611 1.10203 638.08C1.57121 638.55 2.20756 638.813 2.87108 638.813H35.3947C36.0582 638.813 36.6946 639.077 37.1638 639.547C37.633 640.016 37.8965 640.653 37.8965 641.317V699.67C37.8965 700.334 37.633 700.971 37.1638 701.441C36.6946 701.91 36.0582 702.174 35.3947 702.174H2.87108C2.20756 702.174 1.57121 702.438 1.10203 702.907C0.632844 703.377 0.369263 704.014 0.369263 704.678V741.913C0.369263 742.577 0.632844 743.214 1.10203 743.683C1.57121 744.153 2.20756 744.416 2.87108 744.416H72.922C73.5855 744.416 74.2219 744.153 74.6911 743.683C75.1602 743.214 75.4238 742.577 75.4238 741.913V599.081C75.4255 598.751 75.362 598.424 75.237 598.119C75.112 597.814 74.928 597.536 74.6955 597.302C74.463 597.069 74.1867 596.883 73.8823 596.757C73.5779 596.63 73.2516 596.565 72.922 596.565Z" fill="#FFE7A5" stroke="#1E1E1E" stroke-width="5" stroke-miterlimit="10"/>
</g>
</g>
<g clip-path="url(#clip2_182_500)">
<path d="M1439.08 231.565H1509.13C1509.79 231.565 1510.43 231.829 1510.9 232.298C1511.37 232.768 1511.63 233.404 1511.63 234.068V271.31C1511.63 271.974 1511.37 272.611 1510.9 273.08C1510.43 273.55 1509.79 273.813 1509.13 273.813H1476.61C1475.94 273.813 1475.31 274.077 1474.84 274.547C1474.37 275.016 1474.1 275.653 1474.1 276.317V334.67C1474.1 335.334 1474.37 335.971 1474.84 336.441C1475.31 336.91 1475.94 337.174 1476.61 337.174H1509.13C1509.79 337.174 1510.43 337.438 1510.9 337.907C1511.37 338.377 1511.63 339.014 1511.63 339.678V376.913C1511.63 377.577 1511.37 378.214 1510.9 378.683C1510.43 379.153 1509.79 379.416 1509.13 379.416H1439.08C1438.41 379.416 1437.78 379.153 1437.31 378.683C1436.84 378.214 1436.58 377.577 1436.58 376.913V234.081C1436.57 233.751 1436.64 233.424 1436.76 233.119C1436.89 232.814 1437.07 232.536 1437.3 232.302C1437.54 232.069 1437.81 231.883 1438.12 231.757C1438.42 231.63 1438.75 231.565 1439.08 231.565Z" fill="#FFE7A5" stroke="#1E1E1E" stroke-width="5" stroke-miterlimit="10"/>
</g>
<path d="M1303.69 691L1342.59 621L1379.9 691H1303.69Z" stroke="url(#paint0_linear_182_500)" stroke-width="2" stroke-miterlimit="10"/>
<path d="M448.425 250C469.211 250 486.06 232.091 486.06 210C486.06 187.909 469.211 170 448.425 170C427.64 170 410.79 187.909 410.79 210C410.79 232.091 427.64 250 448.425 250Z" stroke="url(#paint1_linear_182_500)" stroke-width="4" stroke-miterlimit="10"/>
<path d="M355.146 845.5H276.366C276.366 822.38 293.998 803.63 315.761 803.63C337.523 803.63 355.146 822.38 355.146 845.5Z" stroke="url(#paint2_linear_182_500)" stroke-width="2" stroke-miterlimit="10"/>
<path d="M118.928 455.2L89.3839 499.8L118.928 544.4L148.471 499.8L118.928 455.2Z" stroke="url(#paint3_linear_182_500)" stroke-width="4" stroke-miterlimit="10"/>
<path d="M1218.44 765H1124.36V865H1218.44V765Z" stroke="url(#paint4_linear_182_500)" stroke-width="8" stroke-miterlimit="10"/>
<path d="M1320.44 242.4L1300.58 278.8H1261.07L1241.31 242.4L1261.07 206H1300.58L1320.44 242.4Z" stroke="url(#paint5_linear_182_500)" stroke-width="4" stroke-miterlimit="10"/>
<defs>
<linearGradient id="paint0_linear_182_500" x1="1303.69" y1="691" x2="1303.69" y2="621" gradientUnits="userSpaceOnUse">
<stop stop-color="#00FFFF"/>
<stop offset="1" stop-color="#CCFF66"/>
</linearGradient>
<linearGradient id="paint1_linear_182_500" x1="410.79" y1="250" x2="410.79" y2="170" gradientUnits="userSpaceOnUse">
<stop stop-color="#00FFFF"/>
<stop offset="1" stop-color="#CCFF66"/>
</linearGradient>
<linearGradient id="paint2_linear_182_500" x1="276.366" y1="845.5" x2="276.366" y2="803.63" gradientUnits="userSpaceOnUse">
<stop stop-color="#00FFFF"/>
<stop offset="1" stop-color="#CCFF66"/>
</linearGradient>
<linearGradient id="paint3_linear_182_500" x1="89.3839" y1="455.2" x2="89.3839" y2="544.4" gradientUnits="userSpaceOnUse">
<stop stop-color="#FF0000"/>
<stop offset="1" stop-color="#FFCC00"/>
</linearGradient>
<linearGradient id="paint4_linear_182_500" x1="1124.36" y1="765" x2="1124.36" y2="865" gradientUnits="userSpaceOnUse">
<stop stop-color="#FF0000"/>
<stop offset="1" stop-color="#FFCC00"/>
</linearGradient>
<linearGradient id="paint5_linear_182_500" x1="1241.31" y1="206" x2="1241.31" y2="278.8" gradientUnits="userSpaceOnUse">
<stop stop-color="#FF0000"/>
<stop offset="1" stop-color="#FFCC00"/>
</linearGradient>
<clipPath id="clip0_182_500">
<rect width="1512" height="1005" fill="white"/>
</clipPath>
<clipPath id="clip1_182_500">
<rect width="172" height="151" fill="white" transform="translate(-95 595)"/>
</clipPath>
<clipPath id="clip2_182_500">
<rect width="172" height="151" fill="white" transform="translate(1435 230)"/>
</clipPath>
</defs>
</svg>
