<svg width="66" height="158" viewBox="0 0 66 158" fill="none" xmlns="http://www.w3.org/2000/svg">
<g filter="url(#filter0_d_741_392)">
<path d="M62.1119 58.4188H54.6308C53.358 58.4151 52.1384 57.9093 51.2384 57.0121C50.3384 56.1148 49.8311 54.8989 49.8274 53.6299V27.011C49.8274 20.6429 47.2899 14.5356 42.7733 10.0327C38.2566 5.52973 32.1308 3 25.7433 3H8.92633C8.41548 3 7.92556 3.20232 7.56434 3.56245C7.20311 3.92258 7.00015 4.41102 7.00015 4.92031V31.8616C6.99952 32.1142 7.04889 32.3644 7.14541 32.5979C7.24192 32.8315 7.38373 33.0437 7.56265 33.2225C7.74158 33.4014 7.95409 33.5432 8.18809 33.64C8.42209 33.7368 8.67298 33.7867 8.92633 33.7867H21.268C21.901 33.7854 22.5282 33.9086 23.1135 34.1491C23.6988 34.3896 24.2308 34.7428 24.6791 35.1884C25.1274 35.6341 25.4832 36.1634 25.7262 36.7463C25.9692 37.3291 26.0946 37.9539 26.0952 38.5851V111.438C26.094 112.712 25.586 113.933 24.6827 114.833C23.7795 115.734 22.5548 116.24 21.2775 116.242H8.92633C8.67451 116.239 8.42455 116.285 8.19099 116.379C7.95743 116.473 7.74491 116.612 7.56573 116.789C7.38655 116.965 7.24429 117.175 7.14721 117.407C7.05012 117.639 7.00013 117.887 7.00015 118.138V145.08C6.99696 145.333 7.04463 145.584 7.1403 145.818C7.23596 146.053 7.3777 146.266 7.5572 146.445C7.7367 146.623 7.95028 146.765 8.18542 146.86C8.42055 146.956 8.6725 147.003 8.92633 147H25.7433C32.1308 147 38.2566 144.47 42.7733 139.967C47.2899 135.464 49.8274 129.357 49.8274 122.989V95.2083C49.8273 93.9369 50.333 92.7173 51.2334 91.8169C52.1338 90.9166 53.3556 90.4089 54.6308 90.4051H62.0976C62.604 90.3977 63.0871 90.1922 63.443 89.833C63.7988 89.4738 63.9988 88.9896 64 88.4848V60.3392C63.9989 59.8367 63.8008 59.3546 63.448 58.9958C63.0952 58.6371 62.6157 58.43 62.1119 58.4188Z" fill="#CCF6CF"/>
<path d="M62.1119 58.4188H54.6308C53.358 58.4151 52.1384 57.9093 51.2384 57.0121C50.3384 56.1148 49.8311 54.8989 49.8274 53.6299V27.011C49.8274 20.6429 47.2899 14.5356 42.7733 10.0327C38.2566 5.52973 32.1308 3 25.7433 3H8.92633C8.41548 3 7.92556 3.20232 7.56434 3.56245C7.20311 3.92258 7.00015 4.41102 7.00015 4.92031V31.8616C6.99952 32.1142 7.04889 32.3644 7.14541 32.5979C7.24192 32.8315 7.38373 33.0437 7.56265 33.2225C7.74158 33.4014 7.95409 33.5432 8.18809 33.64C8.42209 33.7368 8.67298 33.7867 8.92633 33.7867H21.268C21.901 33.7854 22.5282 33.9086 23.1135 34.1491C23.6988 34.3896 24.2308 34.7428 24.6791 35.1884C25.1274 35.6341 25.4832 36.1634 25.7262 36.7463C25.9692 37.3291 26.0946 37.9539 26.0952 38.5851V111.438C26.094 112.712 25.586 113.933 24.6827 114.833C23.7795 115.734 22.5548 116.24 21.2775 116.242H8.92633C8.67451 116.239 8.42455 116.285 8.19099 116.379C7.95743 116.473 7.74491 116.612 7.56573 116.789C7.38655 116.965 7.24429 117.175 7.14721 117.407C7.05012 117.639 7.00013 117.887 7.00015 118.138V145.08C6.99696 145.333 7.04463 145.584 7.1403 145.818C7.23596 146.053 7.3777 146.266 7.5572 146.445C7.7367 146.623 7.95028 146.765 8.18542 146.86C8.42055 146.956 8.6725 147.003 8.92633 147H25.7433C32.1308 147 38.2566 144.47 42.7733 139.967C47.2899 135.464 49.8274 129.357 49.8274 122.989V95.2083C49.8273 93.9369 50.333 92.7173 51.2334 91.8169C52.1338 90.9166 53.3556 90.4089 54.6308 90.4051H62.0976C62.604 90.3977 63.0871 90.1922 63.443 89.833C63.7988 89.4738 63.9988 88.9896 64 88.4848V60.3392C63.9989 59.8367 63.8008 59.3546 63.448 58.9958C63.0952 58.6371 62.6157 58.43 62.1119 58.4188Z" stroke="#1E1E1E" stroke-width="5" stroke-linejoin="round"/>
</g>
<defs>
<filter id="filter0_d_741_392" x="0.5" y="0.5" width="70" height="157" filterUnits="userSpaceOnUse" color-interpolation-filters="sRGB">
<feFlood flood-opacity="0" result="BackgroundImageFix"/>
<feColorMatrix in="SourceAlpha" type="matrix" values="0 0 0 0 0 0 0 0 0 0 0 0 0 0 0 0 0 0 127 0" result="hardAlpha"/>
<feOffset dy="4"/>
<feGaussianBlur stdDeviation="2"/>
<feComposite in2="hardAlpha" operator="out"/>
<feColorMatrix type="matrix" values="0 0 0 0 0 0 0 0 0 0 0 0 0 0 0 0 0 0 0.25 0"/>
<feBlend mode="normal" in2="BackgroundImageFix" result="effect1_dropShadow_741_392"/>
<feBlend mode="normal" in="SourceGraphic" in2="effect1_dropShadow_741_392" result="shape"/>
</filter>
</defs>
</svg>
