<svg width="62" height="150" viewBox="0 0 62 150" fill="none" xmlns="http://www.w3.org/2000/svg">
<path d="M4.40331 91.5723H11.8672C12.5002 91.5717 13.1271 91.6955 13.7121 91.9367C14.297 92.1778 14.8285 92.5315 15.2761 92.9776C15.7237 93.4237 16.0786 93.9534 16.3206 94.5364C16.5625 95.1194 16.6868 95.7442 16.6861 96.375V122.977C16.6843 126.131 17.3059 129.255 18.5157 132.169C19.7255 135.084 21.4997 137.732 23.7368 139.963C25.974 142.194 28.6302 143.964 31.5539 145.171C34.4775 146.379 37.6113 147 40.776 147H57.597C57.8489 147 58.0983 146.95 58.3307 146.853C58.5632 146.757 58.774 146.615 58.951 146.436C59.128 146.258 59.2677 146.046 59.3619 145.813C59.4561 145.58 59.503 145.331 59.4999 145.08V118.127C59.4999 117.624 59.2993 117.142 58.9425 116.786C58.5856 116.43 58.1017 116.231 57.597 116.231H45.2286C43.9514 116.229 42.7269 115.723 41.8242 114.822C40.9215 113.922 40.4144 112.701 40.4144 111.428V38.5579C40.4144 37.2854 40.9216 36.065 41.8244 35.1652C42.7273 34.2654 43.9518 33.76 45.2286 33.76H57.597C58.1047 33.7537 58.5893 33.548 58.9456 33.1876C59.3019 32.8271 59.5011 32.3411 59.4999 31.8351V4.89642C59.4937 4.39537 59.2912 3.91657 58.9357 3.56225C58.5802 3.20792 58.0998 3.00615 57.597 3H40.776C34.387 3 28.2596 5.52948 23.7418 10.032C19.2241 14.5345 16.6861 20.6412 16.6861 27.0087V54.815C16.6861 55.4454 16.5614 56.0697 16.3192 56.6522C16.077 57.2346 15.7219 57.7637 15.2744 58.2093C14.8269 58.6549 14.2956 59.0082 13.711 59.2491C13.1263 59.4899 12.4998 59.6135 11.8672 59.6129H4.40331C3.89565 59.6192 3.41102 59.8249 3.0547 60.1853C2.69838 60.5457 2.49919 61.0318 2.50048 61.5378V89.6333C2.49478 89.8859 2.53981 90.1371 2.63288 90.3721C2.72595 90.6071 2.86518 90.8213 3.04245 91.0019C3.21971 91.1825 3.43143 91.3261 3.66513 91.424C3.89883 91.522 4.14979 91.5724 4.40331 91.5723Z" fill="#CCF6CF" stroke="#1E1E1E" stroke-width="5" stroke-linejoin="round"/>
</svg>
