<svg width="493" height="267" viewBox="0 0 493 267" fill="none" xmlns="http://www.w3.org/2000/svg">
<g id="Background (Traced)">
<path id="Layer 1" fill-rule="evenodd" clip-rule="evenodd" d="M146.265 1.54199C143.385 2.31699 138.885 4.03999 136.265 5.37099C127.27 9.93699 19.796 87.771 14.168 93.794C8.37598 99.993 2.95698 110.298 0.980983 118.868C-0.881017 126.948 0.192983 141.978 3.21598 150.146C6.73898 159.662 13.591 168.721 22.195 175.234C42.565 190.657 131.228 253.703 136 256.158C152.945 264.876 174.369 263.78 190.763 253.355C218.464 235.74 224.088 196 202.391 171.196C199.717 168.141 188.147 159.045 173.942 148.834C160.774 139.368 150 131.285 150 130.873C150 130.46 160.238 122.819 172.75 113.892C185.262 104.965 197.859 95.225 200.743 92.247C207.999 84.754 213.681 72.971 215.151 62.368C218.97 34.815 201.717 8.37099 175.458 1.53099C168.188 -0.36301 153.315 -0.35701 146.265 1.54199ZM296.691 1.50099C287.456 4.03999 280.707 8.13399 272.92 15.92C261.406 27.435 257.024 38.069 257.024 54.5C257.024 69.791 261.257 80.937 271.013 91.338C274.446 94.998 286.136 104.201 299.799 114C312.452 123.075 322.606 130.822 322.364 131.216C322.122 131.61 311.704 139.248 299.212 148.19C286.72 157.132 274.206 166.811 271.402 169.7C261.585 179.814 257 191.939 257 207.784C257 238.316 280.791 261.97 311.5 261.97C319.893 261.97 329.312 259.891 335.769 256.612C342 253.449 451.303 174.95 456.605 169.831C461.881 164.738 467.496 155.252 470.12 147C472.508 139.489 472.955 125.509 471.062 117.501C469.269 109.918 464.134 100.308 458.695 94.357C455.549 90.915 433.852 74.692 397.657 48.722C366.771 26.56 340.285 7.66099 338.8 6.72299C337.315 5.78599 332.736 3.88999 328.624 2.50999C322.537 0.46599 319.322 0.0169896 311.324 0.0889896C305.921 0.13899 299.336 0.77399 296.691 1.50099ZM550 131.5V261H598.961C627.831 261 652.144 260.547 658.211 259.895C703.984 254.979 739.393 231.325 757.603 193.5C767.632 172.667 771.623 151.931 770.689 125.5C769.692 97.276 763.017 74.922 749.488 54.5C744.343 46.735 731.337 33.169 723.032 26.907C708.488 15.941 688.063 7.51499 667.506 4.00099C656.809 2.17199 651.245 1.99999 602.901 1.99999H550V131.5ZM1207 131.5V261H1232H1257V209.5V158H1309H1361V134.5V111H1309H1257V80V49H1314.5H1372V25.5V1.99999H1289.5H1207V131.5ZM1794 50V76H1778H1762V96.5V117H1777.93H1793.85L1794.24 166.25C1794.68 220.729 1794.67 220.613 1801.47 234.548C1813.79 259.797 1847.31 270.338 1882.25 259.95L1889 257.942V234.471C1889 221.562 1888.76 211 1888.47 211C1888.18 211 1885.14 212.432 1881.72 214.182C1876.41 216.899 1874.18 217.422 1866.5 217.764C1858.47 218.121 1857.01 217.905 1853 215.762C1849.98 214.149 1847.68 211.903 1846 208.93L1843.5 204.5L1843.21 160.75L1842.92 117H1865.46H1888V96.5V76H1865.5H1843V50V24H1818.5H1794V50ZM656.436 50.517C689.273 56.243 710.477 75.471 718.171 106.5C721.372 119.409 721.371 142.597 718.169 155.5C710.676 185.695 691.049 204.589 660 211.497C654.526 212.715 645.411 213.312 626.25 213.709L600 214.252V131.626V49H623.869C640.714 49 650.298 49.446 656.436 50.517ZM873.5 71.037C835.605 76.956 804.506 107.111 795.854 146.328C793.377 157.552 793.131 178.663 795.345 190C801.155 219.748 819.014 243.53 845.279 256.493C862.741 265.111 880.929 268.229 901.776 266.178C921.449 264.242 935.93 258.919 949.715 248.556C959.662 241.077 976 221.811 976 217.559C976 216.892 967.386 212.144 956.857 207.009L937.715 197.671L935.696 200.586C931.836 206.157 921.362 215.516 915.923 218.255C896.052 228.26 870.378 224.466 855.456 209.319C849.857 203.636 844.821 194.994 843.032 188C842.399 185.525 841.652 182.713 841.373 181.75C840.893 180.095 844.624 180 909.871 180H978.877L979.581 175.307C980.692 167.899 979.274 146.319 977.097 137.5C968.848 104.082 946.236 80.632 914.893 72.992C905.173 70.623 882.89 69.571 873.5 71.037ZM1465.5 71.037C1415.59 78.833 1380.61 126.527 1385.99 179.455C1388.41 203.236 1396.08 220.988 1410.97 237.282C1421.15 248.413 1437.9 258.547 1453.48 262.996C1470.48 267.853 1495.33 267.851 1512.81 262.991C1527.5 258.907 1544.44 248.211 1554.88 236.435C1559.93 230.729 1568 219.036 1568 217.417C1568 216.81 1559.35 212.132 1548.77 207.02L1529.55 197.727L1527.55 200.614C1523.49 206.469 1513.24 215.581 1507.62 218.318C1484.38 229.656 1455.45 222.903 1442.19 203.046C1438.11 196.937 1434.81 189.281 1433.67 183.25L1433.05 180H1501.9H1570.75L1571.38 176.875C1572.48 171.34 1572.03 154.757 1570.53 145.5C1566.8 122.618 1556.14 102.812 1540.59 89.89C1531.74 82.538 1518.1 75.68 1507 72.999C1497.16 70.624 1474.89 69.571 1465.5 71.037ZM1654.5 70.707C1645.84 71.882 1633.55 75.537 1626 79.18C1619.36 82.385 1615.84 84.949 1609.92 90.892C1599.36 101.486 1595 111.628 1595 125.602C1595 142.658 1603.19 157.61 1618.51 168.546C1629.93 176.695 1636.26 178.927 1666.5 185.479C1684.93 189.471 1693.99 193.386 1697.8 199C1701 203.709 1700.6 212.671 1697.02 216.476C1690.72 223.187 1670.26 226.097 1657.22 222.137C1653.38 220.97 1648.05 218.518 1645.37 216.687C1641.17 213.817 1633.87 205.41 1630.45 199.508C1629.49 197.847 1627.72 198.442 1608.2 206.981C1596.54 212.084 1587 216.596 1587 217.007C1587 218.912 1590.61 226.1 1594.55 232.055C1605.38 248.405 1623.05 259.677 1645.5 264.565C1656.64 266.99 1682.5 267.014 1693.37 264.61C1721.89 258.303 1742.61 241.195 1747.44 219.959C1751.23 203.287 1748.39 188.274 1739.13 176.022C1733.83 169.007 1727.42 163.868 1718 159.089C1708.43 154.23 1701.6 152.039 1680 146.887C1661.13 142.386 1656.27 140.656 1649.59 136.06C1634.15 125.44 1645.12 109.704 1668 109.634C1681.05 109.594 1692.89 114.724 1698.9 123.017C1700.54 125.279 1702.04 127.616 1702.24 128.209C1702.57 129.208 1741.35 112.998 1743.37 111.013C1744.93 109.48 1737.82 98.672 1730.41 91.313C1716.18 77.185 1694.14 69.841 1667 70.181C1661.78 70.246 1656.15 70.483 1654.5 70.707ZM980.284 76.734C980.517 77.155 998.177 118.795 1019.53 169.267L1058.35 261.035L1082.41 260.767L1106.47 260.5L1145.67 169C1167.22 118.675 1184.89 77.155 1184.93 76.734C1184.97 76.313 1172.77 76.088 1157.83 76.234L1130.65 76.5L1107.08 136.25C1094.11 169.113 1083.07 195.857 1082.54 195.681C1082.01 195.505 1071.18 168.617 1058.47 135.931L1035.36 76.5L1007.61 76.234C992.35 76.088 980.052 76.313 980.284 76.734ZM902.875 111.884C906.204 112.92 910.863 114.902 913.228 116.288C922.521 121.734 932.964 135.982 932.99 143.25L933 146H888C863.25 146 843 145.71 843 145.355C843 145 844.597 141.389 846.55 137.33C852.604 124.743 865.373 114.003 877.754 111.084C884.498 109.494 896.416 109.874 902.875 111.884ZM1494.88 111.884C1498.2 112.92 1502.9 114.925 1505.31 116.338C1511.96 120.231 1520.48 129.997 1522.92 136.503C1526.85 147.01 1531.41 146 1479.93 146H1434.86L1435.55 143.75C1439.91 129.318 1455.49 114.448 1469.75 111.084C1476.5 109.494 1488.42 109.874 1494.88 111.884Z" fill="#4285F4"/>
<path id="Layer 2" fill-rule="evenodd" clip-rule="evenodd" d="M146.265 1.54199C143.385 2.31699 138.885 4.03999 136.265 5.37099C127.27 9.93699 19.796 87.771 14.168 93.794C8.37598 99.993 2.95698 110.298 0.980983 118.868C-0.881017 126.948 0.192983 141.978 3.21598 150.146C6.73898 159.662 13.591 168.721 22.195 175.234C42.565 190.657 131.228 253.703 136 256.158C152.945 264.876 174.369 263.78 190.763 253.355C218.464 235.74 224.088 196 202.391 171.196C199.717 168.141 188.147 159.045 173.942 148.834C160.774 139.368 150 131.285 150 130.873C150 130.46 160.238 122.819 172.75 113.892C185.262 104.965 197.859 95.225 200.743 92.247C207.999 84.754 213.681 72.971 215.151 62.368C218.97 34.815 201.717 8.37099 175.458 1.53099C168.188 -0.36301 153.315 -0.35701 146.265 1.54199ZM296.691 1.50099C287.456 4.03999 280.707 8.13399 272.92 15.92C261.406 27.435 257.024 38.069 257.024 54.5C257.024 69.791 261.257 80.937 271.013 91.338C274.446 94.998 286.136 104.201 299.799 114C312.452 123.075 322.606 130.822 322.364 131.216C322.122 131.61 311.704 139.248 299.212 148.19C286.72 157.132 274.206 166.811 271.402 169.7C261.585 179.814 257 191.939 257 207.784C257 238.316 280.791 261.97 311.5 261.97C319.893 261.97 329.312 259.891 335.769 256.612C342 253.449 451.303 174.95 456.605 169.831C461.881 164.738 467.496 155.252 470.12 147C472.508 139.489 472.955 125.509 471.062 117.501C469.269 109.918 464.134 100.308 458.695 94.357C455.549 90.915 433.852 74.692 397.657 48.722C366.771 26.56 340.285 7.66099 338.8 6.72299C337.315 5.78599 332.736 3.88999 328.624 2.50999C322.537 0.46599 319.322 0.0169896 311.324 0.0889896C305.921 0.13899 299.336 0.77399 296.691 1.50099ZM550 131.5V261H598.961C627.831 261 652.144 260.547 658.211 259.895C703.984 254.979 739.393 231.325 757.603 193.5C767.632 172.667 771.623 151.931 770.689 125.5C769.692 97.276 763.017 74.922 749.488 54.5C744.343 46.735 731.337 33.169 723.032 26.907C708.488 15.941 688.063 7.51499 667.506 4.00099C656.809 2.17199 651.245 1.99999 602.901 1.99999H550V131.5ZM1207 131.5V261H1232H1257V209.5V158H1309H1361V134.5V111H1309H1257V80V49H1314.5H1372V25.5V1.99999H1289.5H1207V131.5ZM1794 50V76H1778H1762V96.5V117H1777.93H1793.85L1794.24 166.25C1794.68 220.729 1794.67 220.613 1801.47 234.548C1813.79 259.797 1847.31 270.338 1882.25 259.95L1889 257.942V234.471C1889 221.562 1888.76 211 1888.47 211C1888.18 211 1885.14 212.432 1881.72 214.182C1876.41 216.899 1874.18 217.422 1866.5 217.764C1858.47 218.121 1857.01 217.905 1853 215.762C1849.98 214.149 1847.68 211.903 1846 208.93L1843.5 204.5L1843.21 160.75L1842.92 117H1865.46H1888V96.5V76H1865.5H1843V50V24H1818.5H1794V50ZM656.436 50.517C689.273 56.243 710.477 75.471 718.171 106.5C721.372 119.409 721.371 142.597 718.169 155.5C710.676 185.695 691.049 204.589 660 211.497C654.526 212.715 645.411 213.312 626.25 213.709L600 214.252V131.626V49H623.869C640.714 49 650.298 49.446 656.436 50.517ZM873.5 71.037C835.605 76.956 804.506 107.111 795.854 146.328C793.377 157.552 793.131 178.663 795.345 190C801.155 219.748 819.014 243.53 845.279 256.493C862.741 265.111 880.929 268.229 901.776 266.178C921.449 264.242 935.93 258.919 949.715 248.556C959.662 241.077 976 221.811 976 217.559C976 216.892 967.386 212.144 956.857 207.009L937.715 197.671L935.696 200.586C931.836 206.157 921.362 215.516 915.923 218.255C896.052 228.26 870.378 224.466 855.456 209.319C849.857 203.636 844.821 194.994 843.032 188C842.399 185.525 841.652 182.713 841.373 181.75C840.893 180.095 844.624 180 909.871 180H978.877L979.581 175.307C980.692 167.899 979.274 146.319 977.097 137.5C968.848 104.082 946.236 80.632 914.893 72.992C905.173 70.623 882.89 69.571 873.5 71.037ZM1465.5 71.037C1415.59 78.833 1380.61 126.527 1385.99 179.455C1388.41 203.236 1396.08 220.988 1410.97 237.282C1421.15 248.413 1437.9 258.547 1453.48 262.996C1470.48 267.853 1495.33 267.851 1512.81 262.991C1527.5 258.907 1544.44 248.211 1554.88 236.435C1559.93 230.729 1568 219.036 1568 217.417C1568 216.81 1559.35 212.132 1548.77 207.02L1529.55 197.727L1527.55 200.614C1523.49 206.469 1513.24 215.581 1507.62 218.318C1484.38 229.656 1455.45 222.903 1442.19 203.046C1438.11 196.937 1434.81 189.281 1433.67 183.25L1433.05 180H1501.9H1570.75L1571.38 176.875C1572.48 171.34 1572.03 154.757 1570.53 145.5C1566.8 122.618 1556.14 102.812 1540.59 89.89C1531.74 82.538 1518.1 75.68 1507 72.999C1497.16 70.624 1474.89 69.571 1465.5 71.037ZM1654.5 70.707C1645.84 71.882 1633.55 75.537 1626 79.18C1619.36 82.385 1615.84 84.949 1609.92 90.892C1599.36 101.486 1595 111.628 1595 125.602C1595 142.658 1603.19 157.61 1618.51 168.546C1629.93 176.695 1636.26 178.927 1666.5 185.479C1684.93 189.471 1693.99 193.386 1697.8 199C1701 203.709 1700.6 212.671 1697.02 216.476C1690.72 223.187 1670.26 226.097 1657.22 222.137C1653.38 220.97 1648.05 218.518 1645.37 216.687C1641.17 213.817 1633.87 205.41 1630.45 199.508C1629.49 197.847 1627.72 198.442 1608.2 206.981C1596.54 212.084 1587 216.596 1587 217.007C1587 218.912 1590.61 226.1 1594.55 232.055C1605.38 248.405 1623.05 259.677 1645.5 264.565C1656.64 266.99 1682.5 267.014 1693.37 264.61C1721.89 258.303 1742.61 241.195 1747.44 219.959C1751.23 203.287 1748.39 188.274 1739.13 176.022C1733.83 169.007 1727.42 163.868 1718 159.089C1708.43 154.23 1701.6 152.039 1680 146.887C1661.13 142.386 1656.27 140.656 1649.59 136.06C1634.15 125.44 1645.12 109.704 1668 109.634C1681.05 109.594 1692.89 114.724 1698.9 123.017C1700.54 125.279 1702.04 127.616 1702.24 128.209C1702.57 129.208 1741.35 112.998 1743.37 111.013C1744.93 109.48 1737.82 98.672 1730.41 91.313C1716.18 77.185 1694.14 69.841 1667 70.181C1661.78 70.246 1656.15 70.483 1654.5 70.707ZM980.284 76.734C980.517 77.155 998.177 118.795 1019.53 169.267L1058.35 261.035L1082.41 260.767L1106.47 260.5L1145.67 169C1167.22 118.675 1184.89 77.155 1184.93 76.734C1184.97 76.313 1172.77 76.088 1157.83 76.234L1130.65 76.5L1107.08 136.25C1094.11 169.113 1083.07 195.857 1082.54 195.681C1082.01 195.505 1071.18 168.617 1058.47 135.931L1035.36 76.5L1007.61 76.234C992.35 76.088 980.052 76.313 980.284 76.734ZM65.534 87.551C68.808 88.404 73.324 90.128 75.567 91.382C83.807 95.987 186.685 170.465 192.304 175.893C221.824 204.407 198.9 254.496 157.575 251.775C153.344 251.496 148.089 250.327 144.5 248.865C140.513 247.242 119.876 233.052 83 206.579C52.475 184.665 25.785 165.108 23.688 163.118C8.82598 149.012 5.72298 125.8 16.288 107.772C19.472 102.338 28.374 93.87 33.824 91.09C43.586 86.11 55.077 84.827 65.534 87.551ZM902.875 111.884C906.204 112.92 910.863 114.902 913.228 116.288C922.521 121.734 932.964 135.982 932.99 143.25L933 146H888C863.25 146 843 145.71 843 145.355C843 145 844.597 141.389 846.55 137.33C852.604 124.743 865.373 114.003 877.754 111.084C884.498 109.494 896.416 109.874 902.875 111.884ZM1494.88 111.884C1498.2 112.92 1502.9 114.925 1505.31 116.338C1511.96 120.231 1520.48 129.997 1522.92 136.503C1526.85 147.01 1531.41 146 1479.93 146H1434.86L1435.55 143.75C1439.91 129.318 1455.49 114.448 1469.75 111.084C1476.5 109.494 1488.42 109.874 1494.88 111.884Z" fill="#34A853"/>
<path id="Layer 3" fill-rule="evenodd" clip-rule="evenodd" d="M146.265 1.54199C143.385 2.31699 138.885 4.03999 136.265 5.37099C127.27 9.93699 19.796 87.771 14.168 93.794C8.37598 99.993 2.95698 110.298 0.980983 118.868C-0.881017 126.948 0.192983 141.978 3.21598 150.146C6.73898 159.662 13.591 168.721 22.195 175.234C42.565 190.657 131.228 253.703 136 256.158C152.945 264.876 174.369 263.78 190.763 253.355C218.464 235.74 224.088 196 202.391 171.196C199.717 168.141 188.147 159.045 173.942 148.834C160.774 139.368 150 131.285 150 130.873C150 130.46 160.238 122.819 172.75 113.892C185.262 104.965 197.859 95.225 200.743 92.247C207.999 84.754 213.681 72.971 215.151 62.368C218.97 34.815 201.717 8.37099 175.458 1.53099C168.188 -0.36301 153.315 -0.35701 146.265 1.54199ZM296.691 1.50099C287.456 4.03999 280.707 8.13399 272.92 15.92C261.406 27.435 257.024 38.069 257.024 54.5C257.024 69.791 261.257 80.937 271.013 91.338C274.446 94.998 286.136 104.201 299.799 114C312.452 123.075 322.606 130.822 322.364 131.216C322.122 131.61 311.704 139.248 299.212 148.19C286.72 157.132 274.206 166.811 271.402 169.7C261.585 179.814 257 191.939 257 207.784C257 238.316 280.791 261.97 311.5 261.97C319.893 261.97 329.312 259.891 335.769 256.612C342 253.449 451.303 174.95 456.605 169.831C461.881 164.738 467.496 155.252 470.12 147C472.508 139.489 472.955 125.509 471.062 117.501C469.269 109.918 464.134 100.308 458.695 94.357C455.549 90.915 433.852 74.692 397.657 48.722C366.771 26.56 340.285 7.66099 338.8 6.72299C337.315 5.78599 332.736 3.88999 328.624 2.50999C322.537 0.46599 319.322 0.0169896 311.324 0.0889896C305.921 0.13899 299.336 0.77399 296.691 1.50099ZM550 131.5V261H598.961C627.831 261 652.144 260.547 658.211 259.895C703.984 254.979 739.393 231.325 757.603 193.5C767.632 172.667 771.623 151.931 770.689 125.5C769.692 97.276 763.017 74.922 749.488 54.5C744.343 46.735 731.337 33.169 723.032 26.907C708.488 15.941 688.063 7.51499 667.506 4.00099C656.809 2.17199 651.245 1.99999 602.901 1.99999H550V131.5ZM1207 131.5V261H1232H1257V209.5V158H1309H1361V134.5V111H1309H1257V80V49H1314.5H1372V25.5V1.99999H1289.5H1207V131.5ZM325.017 12.006C328.291 13.109 332.253 14.796 333.82 15.756C341.453 20.427 445.86 95.982 449.151 99.216C462.565 112.399 466.083 132.367 458.041 149.68C447.512 172.349 419.82 182.132 397.875 170.936C392.877 168.386 284.81 90.948 280.194 86.608C263.239 70.669 262.536 41.801 278.668 23.946C289.597 11.849 309.404 6.74599 325.017 12.006ZM1794 50V76H1778H1762V96.5V117H1777.93H1793.85L1794.24 166.25C1794.68 220.729 1794.67 220.613 1801.47 234.548C1813.79 259.797 1847.31 270.338 1882.25 259.95L1889 257.942V234.471C1889 221.562 1888.76 211 1888.47 211C1888.18 211 1885.14 212.432 1881.72 214.182C1876.41 216.899 1874.18 217.422 1866.5 217.764C1858.47 218.121 1857.01 217.905 1853 215.762C1849.98 214.149 1847.68 211.903 1846 208.93L1843.5 204.5L1843.21 160.75L1842.92 117H1865.46H1888V96.5V76H1865.5H1843V50V24H1818.5H1794V50ZM656.436 50.517C689.273 56.243 710.477 75.471 718.171 106.5C721.372 119.409 721.371 142.597 718.169 155.5C710.676 185.695 691.049 204.589 660 211.497C654.526 212.715 645.411 213.312 626.25 213.709L600 214.252V131.626V49H623.869C640.714 49 650.298 49.446 656.436 50.517ZM873.5 71.037C835.605 76.956 804.506 107.111 795.854 146.328C793.377 157.552 793.131 178.663 795.345 190C801.155 219.748 819.014 243.53 845.279 256.493C862.741 265.111 880.929 268.229 901.776 266.178C921.449 264.242 935.93 258.919 949.715 248.556C959.662 241.077 976 221.811 976 217.559C976 216.892 967.386 212.144 956.857 207.009L937.715 197.671L935.696 200.586C931.836 206.157 921.362 215.516 915.923 218.255C896.052 228.26 870.378 224.466 855.456 209.319C849.857 203.636 844.821 194.994 843.032 188C842.399 185.525 841.652 182.713 841.373 181.75C840.893 180.095 844.624 180 909.871 180H978.877L979.581 175.307C980.692 167.899 979.274 146.319 977.097 137.5C968.848 104.082 946.236 80.632 914.893 72.992C905.173 70.623 882.89 69.571 873.5 71.037ZM1465.5 71.037C1415.59 78.833 1380.61 126.527 1385.99 179.455C1388.41 203.236 1396.08 220.988 1410.97 237.282C1421.15 248.413 1437.9 258.547 1453.48 262.996C1470.48 267.853 1495.33 267.851 1512.81 262.991C1527.5 258.907 1544.44 248.211 1554.88 236.435C1559.93 230.729 1568 219.036 1568 217.417C1568 216.81 1559.35 212.132 1548.77 207.02L1529.55 197.727L1527.55 200.614C1523.49 206.469 1513.24 215.581 1507.62 218.318C1484.38 229.656 1455.45 222.903 1442.19 203.046C1438.11 196.937 1434.81 189.281 1433.67 183.25L1433.05 180H1501.9H1570.75L1571.38 176.875C1572.48 171.34 1572.03 154.757 1570.53 145.5C1566.8 122.618 1556.14 102.812 1540.59 89.89C1531.74 82.538 1518.1 75.68 1507 72.999C1497.16 70.624 1474.89 69.571 1465.5 71.037ZM1654.5 70.707C1645.84 71.882 1633.55 75.537 1626 79.18C1619.36 82.385 1615.84 84.949 1609.92 90.892C1599.36 101.486 1595 111.628 1595 125.602C1595 142.658 1603.19 157.61 1618.51 168.546C1629.93 176.695 1636.26 178.927 1666.5 185.479C1684.93 189.471 1693.99 193.386 1697.8 199C1701 203.709 1700.6 212.671 1697.02 216.476C1690.72 223.187 1670.26 226.097 1657.22 222.137C1653.38 220.97 1648.05 218.518 1645.37 216.687C1641.17 213.817 1633.87 205.41 1630.45 199.508C1629.49 197.847 1627.72 198.442 1608.2 206.981C1596.54 212.084 1587 216.596 1587 217.007C1587 218.912 1590.61 226.1 1594.55 232.055C1605.38 248.405 1623.05 259.677 1645.5 264.565C1656.64 266.99 1682.5 267.014 1693.37 264.61C1721.89 258.303 1742.61 241.195 1747.44 219.959C1751.23 203.287 1748.39 188.274 1739.13 176.022C1733.83 169.007 1727.42 163.868 1718 159.089C1708.43 154.23 1701.6 152.039 1680 146.887C1661.13 142.386 1656.27 140.656 1649.59 136.06C1634.15 125.44 1645.12 109.704 1668 109.634C1681.05 109.594 1692.89 114.724 1698.9 123.017C1700.54 125.279 1702.04 127.616 1702.24 128.209C1702.57 129.208 1741.35 112.998 1743.37 111.013C1744.93 109.48 1737.82 98.672 1730.41 91.313C1716.18 77.185 1694.14 69.841 1667 70.181C1661.78 70.246 1656.15 70.483 1654.5 70.707ZM980.284 76.734C980.517 77.155 998.177 118.795 1019.53 169.267L1058.35 261.035L1082.41 260.767L1106.47 260.5L1145.67 169C1167.22 118.675 1184.89 77.155 1184.93 76.734C1184.97 76.313 1172.77 76.088 1157.83 76.234L1130.65 76.5L1107.08 136.25C1094.11 169.113 1083.07 195.857 1082.54 195.681C1082.01 195.505 1071.18 168.617 1058.47 135.931L1035.36 76.5L1007.61 76.234C992.35 76.088 980.052 76.313 980.284 76.734ZM65.534 87.551C68.808 88.404 73.324 90.128 75.567 91.382C83.807 95.987 186.685 170.465 192.304 175.893C221.824 204.407 198.9 254.496 157.575 251.775C153.344 251.496 148.089 250.327 144.5 248.865C140.513 247.242 119.876 233.052 83 206.579C52.475 184.665 25.785 165.108 23.688 163.118C8.82598 149.012 5.72298 125.8 16.288 107.772C19.472 102.338 28.374 93.87 33.824 91.09C43.586 86.11 55.077 84.827 65.534 87.551ZM902.875 111.884C906.204 112.92 910.863 114.902 913.228 116.288C922.521 121.734 932.964 135.982 932.99 143.25L933 146H888C863.25 146 843 145.71 843 145.355C843 145 844.597 141.389 846.55 137.33C852.604 124.743 865.373 114.003 877.754 111.084C884.498 109.494 896.416 109.874 902.875 111.884ZM1494.88 111.884C1498.2 112.92 1502.9 114.925 1505.31 116.338C1511.96 120.231 1520.48 129.997 1522.92 136.503C1526.85 147.01 1531.41 146 1479.93 146H1434.86L1435.55 143.75C1439.91 129.318 1455.49 114.448 1469.75 111.084C1476.5 109.494 1488.42 109.874 1494.88 111.884Z" fill="#296339"/>
<path id="Layer 4" fill-rule="evenodd" clip-rule="evenodd" d="M146.265 1.54199C143.385 2.31699 138.885 4.03999 136.265 5.37099C127.27 9.93699 19.796 87.771 14.168 93.794C8.37598 99.993 2.95698 110.298 0.980983 118.868C-0.881017 126.948 0.192983 141.978 3.21598 150.146C6.73898 159.662 13.591 168.721 22.195 175.234C42.565 190.657 131.228 253.703 136 256.158C152.945 264.876 174.369 263.78 190.763 253.355C218.464 235.74 224.088 196 202.391 171.196C199.717 168.141 188.147 159.045 173.942 148.834C160.774 139.368 150 131.285 150 130.873C150 130.46 160.238 122.819 172.75 113.892C185.262 104.965 197.859 95.225 200.743 92.247C207.999 84.754 213.681 72.971 215.151 62.368C218.97 34.815 201.717 8.37099 175.458 1.53099C168.188 -0.36301 153.315 -0.35701 146.265 1.54199ZM296.691 1.50099C287.456 4.03999 280.707 8.13399 272.92 15.92C261.406 27.435 257.024 38.069 257.024 54.5C257.024 69.791 261.257 80.937 271.013 91.338C274.446 94.998 286.136 104.201 299.799 114C312.452 123.075 322.606 130.822 322.364 131.216C322.122 131.61 311.704 139.248 299.212 148.19C286.72 157.132 274.206 166.811 271.402 169.7C261.585 179.814 257 191.939 257 207.784C257 238.316 280.791 261.97 311.5 261.97C319.893 261.97 329.312 259.891 335.769 256.612C342 253.449 451.303 174.95 456.605 169.831C461.881 164.738 467.496 155.252 470.12 147C472.508 139.489 472.955 125.509 471.062 117.501C469.269 109.918 464.134 100.308 458.695 94.357C455.549 90.915 433.852 74.692 397.657 48.722C366.771 26.56 340.285 7.66099 338.8 6.72299C337.315 5.78599 332.736 3.88999 328.624 2.50999C322.537 0.46599 319.322 0.0169896 311.324 0.0889896C305.921 0.13899 299.336 0.77399 296.691 1.50099ZM550 131.5V261H598.961C627.831 261 652.144 260.547 658.211 259.895C703.984 254.979 739.393 231.325 757.603 193.5C767.632 172.667 771.623 151.931 770.689 125.5C769.692 97.276 763.017 74.922 749.488 54.5C744.343 46.735 731.337 33.169 723.032 26.907C708.488 15.941 688.063 7.51499 667.506 4.00099C656.809 2.17199 651.245 1.99999 602.901 1.99999H550V131.5ZM1207 131.5V261H1232H1257V209.5V158H1309H1361V134.5V111H1309H1257V80V49H1314.5H1372V25.5V1.99999H1289.5H1207V131.5ZM326.233 11.875C333.1 14.278 328.315 11.014 393 57.41C423.766 79.477 447.631 97.303 450.647 100.469C468.719 119.44 466.432 149.278 445.614 166.132C431.82 177.299 411.85 179.114 396.444 170.599C388.453 166.183 285.38 91.58 279.696 86.098C262.038 69.07 261.72 41.574 278.972 23.608C291.685 10.369 309.377 5.97599 326.233 11.875ZM1794 50V76H1778H1762V96.5V117H1777.93H1793.85L1794.24 166.25C1794.68 220.729 1794.67 220.613 1801.47 234.548C1813.79 259.797 1847.31 270.338 1882.25 259.95L1889 257.942V234.471C1889 221.562 1888.76 211 1888.47 211C1888.18 211 1885.14 212.432 1881.72 214.182C1876.41 216.899 1874.18 217.422 1866.5 217.764C1858.47 218.121 1857.01 217.905 1853 215.762C1849.98 214.149 1847.68 211.903 1846 208.93L1843.5 204.5L1843.21 160.75L1842.92 117H1865.46H1888V96.5V76H1865.5H1843V50V24H1818.5H1794V50ZM656.436 50.517C689.273 56.243 710.477 75.471 718.171 106.5C721.372 119.409 721.371 142.597 718.169 155.5C710.676 185.695 691.049 204.589 660 211.497C654.526 212.715 645.411 213.312 626.25 213.709L600 214.252V131.626V49H623.869C640.714 49 650.298 49.446 656.436 50.517ZM873.5 71.037C835.605 76.956 804.506 107.111 795.854 146.328C793.377 157.552 793.131 178.663 795.345 190C801.155 219.748 819.014 243.53 845.279 256.493C862.741 265.111 880.929 268.229 901.776 266.178C921.449 264.242 935.93 258.919 949.715 248.556C959.662 241.077 976 221.811 976 217.559C976 216.892 967.386 212.144 956.857 207.009L937.715 197.671L935.696 200.586C931.836 206.157 921.362 215.516 915.923 218.255C896.052 228.26 870.378 224.466 855.456 209.319C849.857 203.636 844.821 194.994 843.032 188C842.399 185.525 841.652 182.713 841.373 181.75C840.893 180.095 844.624 180 909.871 180H978.877L979.581 175.307C980.692 167.899 979.274 146.319 977.097 137.5C968.848 104.082 946.236 80.632 914.893 72.992C905.173 70.623 882.89 69.571 873.5 71.037ZM1465.5 71.037C1415.59 78.833 1380.61 126.527 1385.99 179.455C1388.41 203.236 1396.08 220.988 1410.97 237.282C1421.15 248.413 1437.9 258.547 1453.48 262.996C1470.48 267.853 1495.33 267.851 1512.81 262.991C1527.5 258.907 1544.44 248.211 1554.88 236.435C1559.93 230.729 1568 219.036 1568 217.417C1568 216.81 1559.35 212.132 1548.77 207.02L1529.55 197.727L1527.55 200.614C1523.49 206.469 1513.24 215.581 1507.62 218.318C1484.38 229.656 1455.45 222.903 1442.19 203.046C1438.11 196.937 1434.81 189.281 1433.67 183.25L1433.05 180H1501.9H1570.75L1571.38 176.875C1572.48 171.34 1572.03 154.757 1570.53 145.5C1566.8 122.618 1556.14 102.812 1540.59 89.89C1531.74 82.538 1518.1 75.68 1507 72.999C1497.16 70.624 1474.89 69.571 1465.5 71.037ZM1654.5 70.707C1645.84 71.882 1633.55 75.537 1626 79.18C1619.36 82.385 1615.84 84.949 1609.92 90.892C1599.36 101.486 1595 111.628 1595 125.602C1595 142.658 1603.19 157.61 1618.51 168.546C1629.93 176.695 1636.26 178.927 1666.5 185.479C1684.93 189.471 1693.99 193.386 1697.8 199C1701 203.709 1700.6 212.671 1697.02 216.476C1690.72 223.187 1670.26 226.097 1657.22 222.137C1653.38 220.97 1648.05 218.518 1645.37 216.687C1641.17 213.817 1633.87 205.41 1630.45 199.508C1629.49 197.847 1627.72 198.442 1608.2 206.981C1596.54 212.084 1587 216.596 1587 217.007C1587 218.912 1590.61 226.1 1594.55 232.055C1605.38 248.405 1623.05 259.677 1645.5 264.565C1656.64 266.99 1682.5 267.014 1693.37 264.61C1721.89 258.303 1742.61 241.195 1747.44 219.959C1751.23 203.287 1748.39 188.274 1739.13 176.022C1733.83 169.007 1727.42 163.868 1718 159.089C1708.43 154.23 1701.6 152.039 1680 146.887C1661.13 142.386 1656.27 140.656 1649.59 136.06C1634.15 125.44 1645.12 109.704 1668 109.634C1681.05 109.594 1692.89 114.724 1698.9 123.017C1700.54 125.279 1702.04 127.616 1702.24 128.209C1702.57 129.208 1741.35 112.998 1743.37 111.013C1744.93 109.48 1737.82 98.672 1730.41 91.313C1716.18 77.185 1694.14 69.841 1667 70.181C1661.78 70.246 1656.15 70.483 1654.5 70.707ZM980.284 76.734C980.517 77.155 998.177 118.795 1019.53 169.267L1058.35 261.035L1082.41 260.767L1106.47 260.5L1145.67 169C1167.22 118.675 1184.89 77.155 1184.93 76.734C1184.97 76.313 1172.77 76.088 1157.83 76.234L1130.65 76.5L1107.08 136.25C1094.11 169.113 1083.07 195.857 1082.54 195.681C1082.01 195.505 1071.18 168.617 1058.47 135.931L1035.36 76.5L1007.61 76.234C992.35 76.088 980.052 76.313 980.284 76.734ZM71 88.86C77.812 91.539 188.737 170.997 194.359 177.225C207.104 191.344 209.502 212.283 200.309 229.174C196.534 236.109 187.289 244.501 179.288 248.254C173.487 250.975 171.119 251.493 163 251.819C152.046 252.26 143.991 250.14 136.083 244.733C128.951 239.857 28.904 167.96 25.231 165.071C20.375 161.252 14.444 152.256 12.001 145.002C3.77798 120.594 18.693 93.265 43.624 87.056C50.106 85.442 64.764 86.408 71 88.86ZM902.875 111.884C906.204 112.92 910.863 114.902 913.228 116.288C922.521 121.734 932.964 135.982 932.99 143.25L933 146H888C863.25 146 843 145.71 843 145.355C843 145 844.597 141.389 846.55 137.33C852.604 124.743 865.373 114.003 877.754 111.084C884.498 109.494 896.416 109.874 902.875 111.884ZM1494.88 111.884C1498.2 112.92 1502.9 114.925 1505.31 116.338C1511.96 120.231 1520.48 129.997 1522.92 136.503C1526.85 147.01 1531.41 146 1479.93 146H1434.86L1435.55 143.75C1439.91 129.318 1455.49 114.448 1469.75 111.084C1476.5 109.494 1488.42 109.874 1494.88 111.884Z" fill="#F9AB00"/>
<path id="Layer 5" fill-rule="evenodd" clip-rule="evenodd" d="M146.265 1.54199C143.385 2.31699 138.885 4.03999 136.265 5.37099C127.27 9.93699 19.796 87.771 14.168 93.794C8.37598 99.993 2.95698 110.298 0.980983 118.868C-0.881017 126.948 0.192983 141.978 3.21598 150.146C6.73898 159.662 13.591 168.721 22.195 175.234C42.565 190.657 131.228 253.703 136 256.158C152.945 264.876 174.369 263.78 190.763 253.355C218.464 235.74 224.088 196 202.391 171.196C199.717 168.141 188.147 159.045 173.942 148.834C160.774 139.368 150 131.285 150 130.873C150 130.46 160.238 122.819 172.75 113.892C185.262 104.965 197.859 95.225 200.743 92.247C207.999 84.754 213.681 72.971 215.151 62.368C218.97 34.815 201.717 8.37099 175.458 1.53099C168.188 -0.36301 153.315 -0.35701 146.265 1.54199ZM296.691 1.50099C287.456 4.03999 280.707 8.13399 272.92 15.92C261.406 27.435 257.024 38.069 257.024 54.5C257.024 69.791 261.257 80.937 271.013 91.338C274.446 94.998 286.136 104.201 299.799 114C312.452 123.075 322.606 130.822 322.364 131.216C322.122 131.61 311.704 139.248 299.212 148.19C286.72 157.132 274.206 166.811 271.402 169.7C261.585 179.814 257 191.939 257 207.784C257 238.316 280.791 261.97 311.5 261.97C319.893 261.97 329.312 259.891 335.769 256.612C342 253.449 451.303 174.95 456.605 169.831C461.881 164.738 467.496 155.252 470.12 147C472.508 139.489 472.955 125.509 471.062 117.501C469.269 109.918 464.134 100.308 458.695 94.357C455.549 90.915 433.852 74.692 397.657 48.722C366.771 26.56 340.285 7.66099 338.8 6.72299C337.315 5.78599 332.736 3.88999 328.624 2.50999C322.537 0.46599 319.322 0.0169896 311.324 0.0889896C305.921 0.13899 299.336 0.77399 296.691 1.50099ZM550 131.5V261H598.961C627.831 261 652.144 260.547 658.211 259.895C703.984 254.979 739.393 231.325 757.603 193.5C767.632 172.667 771.623 151.931 770.689 125.5C769.692 97.276 763.017 74.922 749.488 54.5C744.343 46.735 731.337 33.169 723.032 26.907C708.488 15.941 688.063 7.51499 667.506 4.00099C656.809 2.17199 651.245 1.99999 602.901 1.99999H550V131.5ZM1207 131.5V261H1232H1257V209.5V158H1309H1361V134.5V111H1309H1257V80V49H1314.5H1372V25.5V1.99999H1289.5H1207V131.5ZM326.233 11.875C333.1 14.278 328.315 11.014 393 57.41C423.766 79.477 447.631 97.303 450.647 100.469C468.719 119.44 466.432 149.278 445.614 166.132C431.82 177.299 411.85 179.114 396.444 170.599C388.453 166.183 285.38 91.58 279.696 86.098C262.038 69.07 261.72 41.574 278.972 23.608C291.685 10.369 309.377 5.97599 326.233 11.875ZM1794 50V76H1778H1762V96.5V117H1777.93H1793.85L1794.24 166.25C1794.68 220.729 1794.67 220.613 1801.47 234.548C1813.79 259.797 1847.31 270.338 1882.25 259.95L1889 257.942V234.471C1889 221.562 1888.76 211 1888.47 211C1888.18 211 1885.14 212.432 1881.72 214.182C1876.41 216.899 1874.18 217.422 1866.5 217.764C1858.47 218.121 1857.01 217.905 1853 215.762C1849.98 214.149 1847.68 211.903 1846 208.93L1843.5 204.5L1843.21 160.75L1842.92 117H1865.46H1888V96.5V76H1865.5H1843V50V24H1818.5H1794V50ZM656.436 50.517C689.273 56.243 710.477 75.471 718.171 106.5C721.372 119.409 721.371 142.597 718.169 155.5C710.676 185.695 691.049 204.589 660 211.497C654.526 212.715 645.411 213.312 626.25 213.709L600 214.252V131.626V49H623.869C640.714 49 650.298 49.446 656.436 50.517ZM873.5 71.037C835.605 76.956 804.506 107.111 795.854 146.328C793.377 157.552 793.131 178.663 795.345 190C801.155 219.748 819.014 243.53 845.279 256.493C862.741 265.111 880.929 268.229 901.776 266.178C921.449 264.242 935.93 258.919 949.715 248.556C959.662 241.077 976 221.811 976 217.559C976 216.892 967.386 212.144 956.857 207.009L937.715 197.671L935.696 200.586C931.836 206.157 921.362 215.516 915.923 218.255C896.052 228.26 870.378 224.466 855.456 209.319C849.857 203.636 844.821 194.994 843.032 188C842.399 185.525 841.652 182.713 841.373 181.75C840.893 180.095 844.624 180 909.871 180H978.877L979.581 175.307C980.692 167.899 979.274 146.319 977.097 137.5C968.848 104.082 946.236 80.632 914.893 72.992C905.173 70.623 882.89 69.571 873.5 71.037ZM1465.5 71.037C1415.59 78.833 1380.61 126.527 1385.99 179.455C1388.41 203.236 1396.08 220.988 1410.97 237.282C1421.15 248.413 1437.9 258.547 1453.48 262.996C1470.48 267.853 1495.33 267.851 1512.81 262.991C1527.5 258.907 1544.44 248.211 1554.88 236.435C1559.93 230.729 1568 219.036 1568 217.417C1568 216.81 1559.35 212.132 1548.77 207.02L1529.55 197.727L1527.55 200.614C1523.49 206.469 1513.24 215.581 1507.62 218.318C1484.38 229.656 1455.45 222.903 1442.19 203.046C1438.11 196.937 1434.81 189.281 1433.67 183.25L1433.05 180H1501.9H1570.75L1571.38 176.875C1572.48 171.34 1572.03 154.757 1570.53 145.5C1566.8 122.618 1556.14 102.812 1540.59 89.89C1531.74 82.538 1518.1 75.68 1507 72.999C1497.16 70.624 1474.89 69.571 1465.5 71.037ZM1654.5 70.707C1645.84 71.882 1633.55 75.537 1626 79.18C1619.36 82.385 1615.84 84.949 1609.92 90.892C1599.36 101.486 1595 111.628 1595 125.602C1595 142.658 1603.19 157.61 1618.51 168.546C1629.93 176.695 1636.26 178.927 1666.5 185.479C1684.93 189.471 1693.99 193.386 1697.8 199C1701 203.709 1700.6 212.671 1697.02 216.476C1690.72 223.187 1670.26 226.097 1657.22 222.137C1653.38 220.97 1648.05 218.518 1645.37 216.687C1641.17 213.817 1633.87 205.41 1630.45 199.508C1629.49 197.847 1627.72 198.442 1608.2 206.981C1596.54 212.084 1587 216.596 1587 217.007C1587 218.912 1590.61 226.1 1594.55 232.055C1605.38 248.405 1623.05 259.677 1645.5 264.565C1656.64 266.99 1682.5 267.014 1693.37 264.61C1721.89 258.303 1742.61 241.195 1747.44 219.959C1751.23 203.287 1748.39 188.274 1739.13 176.022C1733.83 169.007 1727.42 163.868 1718 159.089C1708.43 154.23 1701.6 152.039 1680 146.887C1661.13 142.386 1656.27 140.656 1649.59 136.06C1634.15 125.44 1645.12 109.704 1668 109.634C1681.05 109.594 1692.89 114.724 1698.9 123.017C1700.54 125.279 1702.04 127.616 1702.24 128.209C1702.57 129.208 1741.35 112.998 1743.37 111.013C1744.93 109.48 1737.82 98.672 1730.41 91.313C1716.18 77.185 1694.14 69.841 1667 70.181C1661.78 70.246 1656.15 70.483 1654.5 70.707ZM980.284 76.734C980.517 77.155 998.177 118.795 1019.53 169.267L1058.35 261.035L1082.41 260.767L1106.47 260.5L1145.67 169C1167.22 118.675 1184.89 77.155 1184.93 76.734C1184.97 76.313 1172.77 76.088 1157.83 76.234L1130.65 76.5L1107.08 136.25C1094.11 169.113 1083.07 195.857 1082.54 195.681C1082.01 195.505 1071.18 168.617 1058.47 135.931L1035.36 76.5L1007.61 76.234C992.35 76.088 980.052 76.313 980.284 76.734ZM71 88.86C77.812 91.539 188.737 170.997 194.359 177.225C207.104 191.344 209.502 212.283 200.309 229.174C196.534 236.109 187.289 244.501 179.288 248.254C173.487 250.975 171.119 251.493 163 251.819C152.046 252.26 143.991 250.14 136.083 244.733C128.951 239.857 28.904 167.96 25.231 165.071C20.375 161.252 14.444 152.256 12.001 145.002C3.77798 120.594 18.693 93.265 43.624 87.056C50.106 85.442 64.764 86.408 71 88.86ZM902.875 111.884C906.204 112.92 910.863 114.902 913.228 116.288C922.521 121.734 932.964 135.982 932.99 143.25L933 146H888C863.25 146 843 145.71 843 145.355C843 145 844.597 141.389 846.55 137.33C852.604 124.743 865.373 114.003 877.754 111.084C884.498 109.494 896.416 109.874 902.875 111.884ZM1494.88 111.884C1498.2 112.92 1502.9 114.925 1505.31 116.338C1511.96 120.231 1520.48 129.997 1522.92 136.503C1526.85 147.01 1531.41 146 1479.93 146H1434.86L1435.55 143.75C1439.91 129.318 1455.49 114.448 1469.75 111.084C1476.5 109.494 1488.42 109.874 1494.88 111.884ZM363.5 159.412C390.381 178.734 396.457 182.343 405 184.066C418.444 186.778 421.962 182.94 375.323 216.439C348.567 235.657 331.535 247.228 327.762 248.752C311.81 255.196 292.261 251.165 280.001 238.905C277.164 236.069 273.556 230.858 271.379 226.452C268.164 219.948 267.572 217.674 267.188 210.367C266.629 199.711 268.759 191.2 273.983 183.221C279.006 175.548 279.842 174.845 307.931 154.669L332.361 137.121L335.431 139.282C337.119 140.47 349.75 149.529 363.5 159.412Z" fill="#8C650F"/>
<path id="Layer 6" fill-rule="evenodd" clip-rule="evenodd" d="M146.265 1.54199C143.385 2.31699 138.885 4.03999 136.265 5.37099C127.27 9.93699 19.796 87.771 14.168 93.794C8.37598 99.993 2.95698 110.298 0.980983 118.868C-0.881017 126.948 0.192983 141.978 3.21598 150.146C6.73898 159.662 13.591 168.721 22.195 175.234C42.565 190.657 131.228 253.703 136 256.158C152.945 264.876 174.369 263.78 190.763 253.355C218.464 235.74 224.088 196 202.391 171.196C199.717 168.141 188.147 159.045 173.942 148.834C160.774 139.368 150 131.285 150 130.873C150 130.46 160.238 122.819 172.75 113.892C185.262 104.965 197.859 95.225 200.743 92.247C207.999 84.754 213.681 72.971 215.151 62.368C218.97 34.815 201.717 8.37099 175.458 1.53099C168.188 -0.36301 153.315 -0.35701 146.265 1.54199ZM296.691 1.50099C287.456 4.03999 280.707 8.13399 272.92 15.92C261.406 27.435 257.024 38.069 257.024 54.5C257.024 69.791 261.257 80.937 271.013 91.338C274.446 94.998 286.136 104.201 299.799 114C312.452 123.075 322.606 130.822 322.364 131.216C322.122 131.61 311.704 139.248 299.212 148.19C286.72 157.132 274.206 166.811 271.402 169.7C261.585 179.814 257 191.939 257 207.784C257 238.316 280.791 261.97 311.5 261.97C319.893 261.97 329.312 259.891 335.769 256.612C342 253.449 451.303 174.95 456.605 169.831C461.881 164.738 467.496 155.252 470.12 147C472.508 139.489 472.955 125.509 471.062 117.501C469.269 109.918 464.134 100.308 458.695 94.357C455.549 90.915 433.852 74.692 397.657 48.722C366.771 26.56 340.285 7.66099 338.8 6.72299C337.315 5.78599 332.736 3.88999 328.624 2.50999C322.537 0.46599 319.322 0.0169896 311.324 0.0889896C305.921 0.13899 299.336 0.77399 296.691 1.50099ZM550 131.5V261H598.961C627.831 261 652.144 260.547 658.211 259.895C703.984 254.979 739.393 231.325 757.603 193.5C767.632 172.667 771.623 151.931 770.689 125.5C769.692 97.276 763.017 74.922 749.488 54.5C744.343 46.735 731.337 33.169 723.032 26.907C708.488 15.941 688.063 7.51499 667.506 4.00099C656.809 2.17199 651.245 1.99999 602.901 1.99999H550V131.5ZM1207 131.5V261H1232H1257V209.5V158H1309H1361V134.5V111H1309H1257V80V49H1314.5H1372V25.5V1.99999H1289.5H1207V131.5ZM326.233 11.875C333.1 14.278 328.315 11.014 393 57.41C423.766 79.477 447.631 97.303 450.647 100.469C468.719 119.44 466.432 149.278 445.614 166.132C431.82 177.299 411.85 179.114 396.444 170.599C388.453 166.183 285.38 91.58 279.696 86.098C262.038 69.07 261.72 41.574 278.972 23.608C291.685 10.369 309.377 5.97599 326.233 11.875ZM1794 50V76H1778H1762V96.5V117H1777.93H1793.85L1794.24 166.25C1794.68 220.729 1794.67 220.613 1801.47 234.548C1813.79 259.797 1847.31 270.338 1882.25 259.95L1889 257.942V234.471C1889 221.562 1888.76 211 1888.47 211C1888.18 211 1885.14 212.432 1881.72 214.182C1876.41 216.899 1874.18 217.422 1866.5 217.764C1858.47 218.121 1857.01 217.905 1853 215.762C1849.98 214.149 1847.68 211.903 1846 208.93L1843.5 204.5L1843.21 160.75L1842.92 117H1865.46H1888V96.5V76H1865.5H1843V50V24H1818.5H1794V50ZM656.436 50.517C689.273 56.243 710.477 75.471 718.171 106.5C721.372 119.409 721.371 142.597 718.169 155.5C710.676 185.695 691.049 204.589 660 211.497C654.526 212.715 645.411 213.312 626.25 213.709L600 214.252V131.626V49H623.869C640.714 49 650.298 49.446 656.436 50.517ZM873.5 71.037C835.605 76.956 804.506 107.111 795.854 146.328C793.377 157.552 793.131 178.663 795.345 190C801.155 219.748 819.014 243.53 845.279 256.493C862.741 265.111 880.929 268.229 901.776 266.178C921.449 264.242 935.93 258.919 949.715 248.556C959.662 241.077 976 221.811 976 217.559C976 216.892 967.386 212.144 956.857 207.009L937.715 197.671L935.696 200.586C931.836 206.157 921.362 215.516 915.923 218.255C896.052 228.26 870.378 224.466 855.456 209.319C849.857 203.636 844.821 194.994 843.032 188C842.399 185.525 841.652 182.713 841.373 181.75C840.893 180.095 844.624 180 909.871 180H978.877L979.581 175.307C980.692 167.899 979.274 146.319 977.097 137.5C968.848 104.082 946.236 80.632 914.893 72.992C905.173 70.623 882.89 69.571 873.5 71.037ZM1465.5 71.037C1415.59 78.833 1380.61 126.527 1385.99 179.455C1388.41 203.236 1396.08 220.988 1410.97 237.282C1421.15 248.413 1437.9 258.547 1453.48 262.996C1470.48 267.853 1495.33 267.851 1512.81 262.991C1527.5 258.907 1544.44 248.211 1554.88 236.435C1559.93 230.729 1568 219.036 1568 217.417C1568 216.81 1559.35 212.132 1548.77 207.02L1529.55 197.727L1527.55 200.614C1523.49 206.469 1513.24 215.581 1507.62 218.318C1484.38 229.656 1455.45 222.903 1442.19 203.046C1438.11 196.937 1434.81 189.281 1433.67 183.25L1433.05 180H1501.9H1570.75L1571.38 176.875C1572.48 171.34 1572.03 154.757 1570.53 145.5C1566.8 122.618 1556.14 102.812 1540.59 89.89C1531.74 82.538 1518.1 75.68 1507 72.999C1497.16 70.624 1474.89 69.571 1465.5 71.037ZM1654.5 70.707C1645.84 71.882 1633.55 75.537 1626 79.18C1619.36 82.385 1615.84 84.949 1609.92 90.892C1599.36 101.486 1595 111.628 1595 125.602C1595 142.658 1603.19 157.61 1618.51 168.546C1629.93 176.695 1636.26 178.927 1666.5 185.479C1684.93 189.471 1693.99 193.386 1697.8 199C1701 203.709 1700.6 212.671 1697.02 216.476C1690.72 223.187 1670.26 226.097 1657.22 222.137C1653.38 220.97 1648.05 218.518 1645.37 216.687C1641.17 213.817 1633.87 205.41 1630.45 199.508C1629.49 197.847 1627.72 198.442 1608.2 206.981C1596.54 212.084 1587 216.596 1587 217.007C1587 218.912 1590.61 226.1 1594.55 232.055C1605.38 248.405 1623.05 259.677 1645.5 264.565C1656.64 266.99 1682.5 267.014 1693.37 264.61C1721.89 258.303 1742.61 241.195 1747.44 219.959C1751.23 203.287 1748.39 188.274 1739.13 176.022C1733.83 169.007 1727.42 163.868 1718 159.089C1708.43 154.23 1701.6 152.039 1680 146.887C1661.13 142.386 1656.27 140.656 1649.59 136.06C1634.15 125.44 1645.12 109.704 1668 109.634C1681.05 109.594 1692.89 114.724 1698.9 123.017C1700.54 125.279 1702.04 127.616 1702.24 128.209C1702.57 129.208 1741.35 112.998 1743.37 111.013C1744.93 109.48 1737.82 98.672 1730.41 91.313C1716.18 77.185 1694.14 69.841 1667 70.181C1661.78 70.246 1656.15 70.483 1654.5 70.707ZM980.284 76.734C980.517 77.155 998.177 118.795 1019.53 169.267L1058.35 261.035L1082.41 260.767L1106.47 260.5L1145.67 169C1167.22 118.675 1184.89 77.155 1184.93 76.734C1184.97 76.313 1172.77 76.088 1157.83 76.234L1130.65 76.5L1107.08 136.25C1094.11 169.113 1083.07 195.857 1082.54 195.681C1082.01 195.505 1071.18 168.617 1058.47 135.931L1035.36 76.5L1007.61 76.234C992.35 76.088 980.052 76.313 980.284 76.734ZM71 88.86C77.812 91.539 188.737 170.997 194.359 177.225C207.104 191.344 209.502 212.283 200.309 229.174C196.534 236.109 187.289 244.501 179.288 248.254C173.487 250.975 171.119 251.493 163 251.819C152.046 252.26 143.991 250.14 136.083 244.733C128.951 239.857 28.904 167.96 25.231 165.071C20.375 161.252 14.444 152.256 12.001 145.002C3.77798 120.594 18.693 93.265 43.624 87.056C50.106 85.442 64.764 86.408 71 88.86ZM902.875 111.884C906.204 112.92 910.863 114.902 913.228 116.288C922.521 121.734 932.964 135.982 932.99 143.25L933 146H888C863.25 146 843 145.71 843 145.355C843 145 844.597 141.389 846.55 137.33C852.604 124.743 865.373 114.003 877.754 111.084C884.498 109.494 896.416 109.874 902.875 111.884ZM1494.88 111.884C1498.2 112.92 1502.9 114.925 1505.31 116.338C1511.96 120.231 1520.48 129.997 1522.92 136.503C1526.85 147.01 1531.41 146 1479.93 146H1434.86L1435.55 143.75C1439.91 129.318 1455.49 114.448 1469.75 111.084C1476.5 109.494 1488.42 109.874 1494.88 111.884ZM361.713 157.657C377.546 169.018 392.328 179.127 394.563 180.121C400.246 182.649 409.714 185 414.21 185C416.295 185 417.975 185.338 417.944 185.75C417.825 187.365 333.852 246.623 328.32 248.997C323.24 251.176 321.038 251.494 311 251.497C300.033 251.5 299.189 251.348 292.802 248.224C278.978 241.462 269.439 228.928 266.856 214.134C264.559 200.97 269.607 185.477 279.258 176.073C283.985 171.467 330.492 137.204 332.213 137.06C332.606 137.027 345.881 146.296 361.713 157.657Z" fill="#EA4335"/>
<path id="Layer 7" fill-rule="evenodd" clip-rule="evenodd" d="M146.265 1.54199C143.385 2.31699 138.885 4.03999 136.265 5.37099C127.27 9.93699 19.796 87.771 14.168 93.794C8.37598 99.993 2.95698 110.298 0.980983 118.868C-0.881017 126.948 0.192983 141.978 3.21598 150.146C6.73898 159.662 13.591 168.721 22.195 175.234C42.565 190.657 131.228 253.703 136 256.158C152.945 264.876 174.369 263.78 190.763 253.355C218.464 235.74 224.088 196 202.391 171.196C199.717 168.141 188.147 159.045 173.942 148.834C160.774 139.368 150 131.285 150 130.873C150 130.46 160.238 122.819 172.75 113.892C185.262 104.965 197.859 95.225 200.743 92.247C207.999 84.754 213.681 72.971 215.151 62.368C218.97 34.815 201.717 8.37099 175.458 1.53099C168.188 -0.36301 153.315 -0.35701 146.265 1.54199ZM296.691 1.50099C287.456 4.03999 280.707 8.13399 272.92 15.92C261.406 27.435 257.024 38.069 257.024 54.5C257.024 69.791 261.257 80.937 271.013 91.338C274.446 94.998 286.136 104.201 299.799 114C312.452 123.075 322.606 130.822 322.364 131.216C322.122 131.61 311.704 139.248 299.212 148.19C286.72 157.132 274.206 166.811 271.402 169.7C261.585 179.814 257 191.939 257 207.784C257 238.316 280.791 261.97 311.5 261.97C319.893 261.97 329.312 259.891 335.769 256.612C342 253.449 451.303 174.95 456.605 169.831C461.881 164.738 467.496 155.252 470.12 147C472.508 139.489 472.955 125.509 471.062 117.501C469.269 109.918 464.134 100.308 458.695 94.357C455.549 90.915 433.852 74.692 397.657 48.722C366.771 26.56 340.285 7.66099 338.8 6.72299C337.315 5.78599 332.736 3.88999 328.624 2.50999C322.537 0.46599 319.322 0.0169896 311.324 0.0889896C305.921 0.13899 299.336 0.77399 296.691 1.50099ZM550 131.5V261H598.961C627.831 261 652.144 260.547 658.211 259.895C703.984 254.979 739.393 231.325 757.603 193.5C767.632 172.667 771.623 151.931 770.689 125.5C769.692 97.276 763.017 74.922 749.488 54.5C744.343 46.735 731.337 33.169 723.032 26.907C708.488 15.941 688.063 7.51499 667.506 4.00099C656.809 2.17199 651.245 1.99999 602.901 1.99999H550V131.5ZM1207 131.5V261H1232H1257V209.5V158H1309H1361V134.5V111H1309H1257V80V49H1314.5H1372V25.5V1.99999H1289.5H1207V131.5ZM326.233 11.875C333.1 14.278 328.315 11.014 393 57.41C423.766 79.477 447.631 97.303 450.647 100.469C468.719 119.44 466.432 149.278 445.614 166.132C431.82 177.299 411.85 179.114 396.444 170.599C388.453 166.183 285.38 91.58 279.696 86.098C262.038 69.07 261.72 41.574 278.972 23.608C291.685 10.369 309.377 5.97599 326.233 11.875ZM173.909 11.895C200.329 20.117 212.832 49.493 200.555 74.5C198.664 78.35 195.179 83.366 192.809 85.646C188.037 90.237 141.453 124 139.891 124C139.349 124 126.357 114.99 111.019 103.978C95.682 92.967 80.29 82.629 76.816 81.007C73.342 79.384 67.03 77.473 62.788 76.759L55.076 75.461L96.288 45.877C118.955 29.606 138.625 15.697 140 14.969C149.513 9.92899 163.515 8.65899 173.909 11.895ZM1794 50V76H1778H1762V96.5V117H1777.93H1793.85L1794.24 166.25C1794.68 220.729 1794.67 220.613 1801.47 234.548C1813.79 259.797 1847.31 270.338 1882.25 259.95L1889 257.942V234.471C1889 221.562 1888.76 211 1888.47 211C1888.18 211 1885.14 212.432 1881.72 214.182C1876.41 216.899 1874.18 217.422 1866.5 217.764C1858.47 218.121 1857.01 217.905 1853 215.762C1849.98 214.149 1847.68 211.903 1846 208.93L1843.5 204.5L1843.21 160.75L1842.92 117H1865.46H1888V96.5V76H1865.5H1843V50V24H1818.5H1794V50ZM656.436 50.517C689.273 56.243 710.477 75.471 718.171 106.5C721.372 119.409 721.371 142.597 718.169 155.5C710.676 185.695 691.049 204.589 660 211.497C654.526 212.715 645.411 213.312 626.25 213.709L600 214.252V131.626V49H623.869C640.714 49 650.298 49.446 656.436 50.517ZM873.5 71.037C835.605 76.956 804.506 107.111 795.854 146.328C793.377 157.552 793.131 178.663 795.345 190C801.155 219.748 819.014 243.53 845.279 256.493C862.741 265.111 880.929 268.229 901.776 266.178C921.449 264.242 935.93 258.919 949.715 248.556C959.662 241.077 976 221.811 976 217.559C976 216.892 967.386 212.144 956.857 207.009L937.715 197.671L935.696 200.586C931.836 206.157 921.362 215.516 915.923 218.255C896.052 228.26 870.378 224.466 855.456 209.319C849.857 203.636 844.821 194.994 843.032 188C842.399 185.525 841.652 182.713 841.373 181.75C840.893 180.095 844.624 180 909.871 180H978.877L979.581 175.307C980.692 167.899 979.274 146.319 977.097 137.5C968.848 104.082 946.236 80.632 914.893 72.992C905.173 70.623 882.89 69.571 873.5 71.037ZM1465.5 71.037C1415.59 78.833 1380.61 126.527 1385.99 179.455C1388.41 203.236 1396.08 220.988 1410.97 237.282C1421.15 248.413 1437.9 258.547 1453.48 262.996C1470.48 267.853 1495.33 267.851 1512.81 262.991C1527.5 258.907 1544.44 248.211 1554.88 236.435C1559.93 230.729 1568 219.036 1568 217.417C1568 216.81 1559.35 212.132 1548.77 207.02L1529.55 197.727L1527.55 200.614C1523.49 206.469 1513.24 215.581 1507.62 218.318C1484.38 229.656 1455.45 222.903 1442.19 203.046C1438.11 196.937 1434.81 189.281 1433.67 183.25L1433.05 180H1501.9H1570.75L1571.38 176.875C1572.48 171.34 1572.03 154.757 1570.53 145.5C1566.8 122.618 1556.14 102.812 1540.59 89.89C1531.74 82.538 1518.1 75.68 1507 72.999C1497.16 70.624 1474.89 69.571 1465.5 71.037ZM1654.5 70.707C1645.84 71.882 1633.55 75.537 1626 79.18C1619.36 82.385 1615.84 84.949 1609.92 90.892C1599.36 101.486 1595 111.628 1595 125.602C1595 142.658 1603.19 157.61 1618.51 168.546C1629.93 176.695 1636.26 178.927 1666.5 185.479C1684.93 189.471 1693.99 193.386 1697.8 199C1701 203.709 1700.6 212.671 1697.02 216.476C1690.72 223.187 1670.26 226.097 1657.22 222.137C1653.38 220.97 1648.05 218.518 1645.37 216.687C1641.17 213.817 1633.87 205.41 1630.45 199.508C1629.49 197.847 1627.72 198.442 1608.2 206.981C1596.54 212.084 1587 216.596 1587 217.007C1587 218.912 1590.61 226.1 1594.55 232.055C1605.38 248.405 1623.05 259.677 1645.5 264.565C1656.64 266.99 1682.5 267.014 1693.37 264.61C1721.89 258.303 1742.61 241.195 1747.44 219.959C1751.23 203.287 1748.39 188.274 1739.13 176.022C1733.83 169.007 1727.42 163.868 1718 159.089C1708.43 154.23 1701.6 152.039 1680 146.887C1661.13 142.386 1656.27 140.656 1649.59 136.06C1634.15 125.44 1645.12 109.704 1668 109.634C1681.05 109.594 1692.89 114.724 1698.9 123.017C1700.54 125.279 1702.04 127.616 1702.24 128.209C1702.57 129.208 1741.35 112.998 1743.37 111.013C1744.93 109.48 1737.82 98.672 1730.41 91.313C1716.18 77.185 1694.14 69.841 1667 70.181C1661.78 70.246 1656.15 70.483 1654.5 70.707ZM980.284 76.734C980.517 77.155 998.177 118.795 1019.53 169.267L1058.35 261.035L1082.41 260.767L1106.47 260.5L1145.67 169C1167.22 118.675 1184.89 77.155 1184.93 76.734C1184.97 76.313 1172.77 76.088 1157.83 76.234L1130.65 76.5L1107.08 136.25C1094.11 169.113 1083.07 195.857 1082.54 195.681C1082.01 195.505 1071.18 168.617 1058.47 135.931L1035.36 76.5L1007.61 76.234C992.35 76.088 980.052 76.313 980.284 76.734ZM71 88.86C77.812 91.539 188.737 170.997 194.359 177.225C207.104 191.344 209.502 212.283 200.309 229.174C196.534 236.109 187.289 244.501 179.288 248.254C173.487 250.975 171.119 251.493 163 251.819C152.046 252.26 143.991 250.14 136.083 244.733C128.951 239.857 28.904 167.96 25.231 165.071C20.375 161.252 14.444 152.256 12.001 145.002C3.77798 120.594 18.693 93.265 43.624 87.056C50.106 85.442 64.764 86.408 71 88.86ZM902.875 111.884C906.204 112.92 910.863 114.902 913.228 116.288C922.521 121.734 932.964 135.982 932.99 143.25L933 146H888C863.25 146 843 145.71 843 145.355C843 145 844.597 141.389 846.55 137.33C852.604 124.743 865.373 114.003 877.754 111.084C884.498 109.494 896.416 109.874 902.875 111.884ZM1494.88 111.884C1498.2 112.92 1502.9 114.925 1505.31 116.338C1511.96 120.231 1520.48 129.997 1522.92 136.503C1526.85 147.01 1531.41 146 1479.93 146H1434.86L1435.55 143.75C1439.91 129.318 1455.49 114.448 1469.75 111.084C1476.5 109.494 1488.42 109.874 1494.88 111.884ZM361.713 157.657C377.546 169.018 392.328 179.127 394.563 180.121C400.246 182.649 409.714 185 414.21 185C416.295 185 417.975 185.338 417.944 185.75C417.825 187.365 333.852 246.623 328.32 248.997C323.24 251.176 321.038 251.494 311 251.497C300.033 251.5 299.189 251.348 292.802 248.224C278.978 241.462 269.439 228.928 266.856 214.134C264.559 200.97 269.607 185.477 279.258 176.073C283.985 171.467 330.492 137.204 332.213 137.06C332.606 137.027 345.881 146.296 361.713 157.657Z" fill="#84312A"/>
<path id="Layer 8" fill-rule="evenodd" clip-rule="evenodd" d="M146.265 1.54199C143.385 2.31699 138.885 4.03999 136.265 5.37099C127.27 9.93699 19.796 87.771 14.168 93.794C8.37598 99.993 2.95698 110.298 0.980983 118.868C-0.881017 126.948 0.192983 141.978 3.21598 150.146C6.73898 159.662 13.591 168.721 22.195 175.234C42.565 190.657 131.228 253.703 136 256.158C152.945 264.876 174.369 263.78 190.763 253.355C218.464 235.74 224.088 196 202.391 171.196C199.717 168.141 188.147 159.045 173.942 148.834C160.774 139.368 150 131.285 150 130.873C150 130.46 160.238 122.819 172.75 113.892C185.262 104.965 197.859 95.225 200.743 92.247C207.999 84.754 213.681 72.971 215.151 62.368C218.97 34.815 201.717 8.37099 175.458 1.53099C168.188 -0.36301 153.315 -0.35701 146.265 1.54199ZM296.691 1.50099C287.456 4.03999 280.707 8.13399 272.92 15.92C261.406 27.435 257.024 38.069 257.024 54.5C257.024 69.791 261.257 80.937 271.013 91.338C274.446 94.998 286.136 104.201 299.799 114C312.452 123.075 322.606 130.822 322.364 131.216C322.122 131.61 311.704 139.248 299.212 148.19C286.72 157.132 274.206 166.811 271.402 169.7C261.585 179.814 257 191.939 257 207.784C257 238.316 280.791 261.97 311.5 261.97C319.893 261.97 329.312 259.891 335.769 256.612C342 253.449 451.303 174.95 456.605 169.831C461.881 164.738 467.496 155.252 470.12 147C472.508 139.489 472.955 125.509 471.062 117.501C469.269 109.918 464.134 100.308 458.695 94.357C455.549 90.915 433.852 74.692 397.657 48.722C366.771 26.56 340.285 7.66099 338.8 6.72299C337.315 5.78599 332.736 3.88999 328.624 2.50999C322.537 0.46599 319.322 0.0169896 311.324 0.0889896C305.921 0.13899 299.336 0.77399 296.691 1.50099ZM550 131.5V261H598.961C627.831 261 652.144 260.547 658.211 259.895C703.984 254.979 739.393 231.325 757.603 193.5C767.632 172.667 771.623 151.931 770.689 125.5C769.692 97.276 763.017 74.922 749.488 54.5C744.343 46.735 731.337 33.169 723.032 26.907C708.488 15.941 688.063 7.51499 667.506 4.00099C656.809 2.17199 651.245 1.99999 602.901 1.99999H550V131.5ZM1207 131.5V261H1232H1257V209.5V158H1309H1361V134.5V111H1309H1257V80V49H1314.5H1372V25.5V1.99999H1289.5H1207V131.5ZM174.622 11.532C188.196 15.373 200.696 28.684 204.644 43.5C207.178 53.011 205.923 65.342 201.539 74C196.736 83.488 192.521 87.334 166.104 106.344L139.917 125.189L111.956 105.11C96.578 94.067 81.859 83.95 79.248 82.627C72.537 79.229 64.445 77 58.818 77C56.168 77 54.019 76.662 54.041 76.25C54.096 75.272 133.512 18.353 139.911 14.706C149.561 9.20699 162.293 8.04299 174.622 11.532ZM326.233 11.875C333.1 14.278 328.315 11.014 393 57.41C423.766 79.477 447.631 97.303 450.647 100.469C468.719 119.44 466.432 149.278 445.614 166.132C431.82 177.299 411.85 179.114 396.444 170.599C388.453 166.183 285.38 91.58 279.696 86.098C262.038 69.07 261.72 41.574 278.972 23.608C291.685 10.369 309.377 5.97599 326.233 11.875ZM1794 50V76H1778H1762V96.5V117H1777.93H1793.85L1794.24 166.25C1794.68 220.729 1794.67 220.613 1801.47 234.548C1813.79 259.797 1847.31 270.338 1882.25 259.95L1889 257.942V234.471C1889 221.562 1888.76 211 1888.47 211C1888.18 211 1885.14 212.432 1881.72 214.182C1876.41 216.899 1874.18 217.422 1866.5 217.764C1858.47 218.121 1857.01 217.905 1853 215.762C1849.98 214.149 1847.68 211.903 1846 208.93L1843.5 204.5L1843.21 160.75L1842.92 117H1865.46H1888V96.5V76H1865.5H1843V50V24H1818.5H1794V50ZM656.436 50.517C689.273 56.243 710.477 75.471 718.171 106.5C721.372 119.409 721.371 142.597 718.169 155.5C710.676 185.695 691.049 204.589 660 211.497C654.526 212.715 645.411 213.312 626.25 213.709L600 214.252V131.626V49H623.869C640.714 49 650.298 49.446 656.436 50.517ZM873.5 71.037C835.605 76.956 804.506 107.111 795.854 146.328C793.377 157.552 793.131 178.663 795.345 190C801.155 219.748 819.014 243.53 845.279 256.493C862.741 265.111 880.929 268.229 901.776 266.178C921.449 264.242 935.93 258.919 949.715 248.556C959.662 241.077 976 221.811 976 217.559C976 216.892 967.386 212.144 956.857 207.009L937.715 197.671L935.696 200.586C931.836 206.157 921.362 215.516 915.923 218.255C896.052 228.26 870.378 224.466 855.456 209.319C849.857 203.636 844.821 194.994 843.032 188C842.399 185.525 841.652 182.713 841.373 181.75C840.893 180.095 844.624 180 909.871 180H978.877L979.581 175.307C980.692 167.899 979.274 146.319 977.097 137.5C968.848 104.082 946.236 80.632 914.893 72.992C905.173 70.623 882.89 69.571 873.5 71.037ZM1465.5 71.037C1415.59 78.833 1380.61 126.527 1385.99 179.455C1388.41 203.236 1396.08 220.988 1410.97 237.282C1421.15 248.413 1437.9 258.547 1453.48 262.996C1470.48 267.853 1495.33 267.851 1512.81 262.991C1527.5 258.907 1544.44 248.211 1554.88 236.435C1559.93 230.729 1568 219.036 1568 217.417C1568 216.81 1559.35 212.132 1548.77 207.02L1529.55 197.727L1527.55 200.614C1523.49 206.469 1513.24 215.581 1507.62 218.318C1484.38 229.656 1455.45 222.903 1442.19 203.046C1438.11 196.937 1434.81 189.281 1433.67 183.25L1433.05 180H1501.9H1570.75L1571.38 176.875C1572.48 171.34 1572.03 154.757 1570.53 145.5C1566.8 122.618 1556.14 102.812 1540.59 89.89C1531.74 82.538 1518.1 75.68 1507 72.999C1497.16 70.624 1474.89 69.571 1465.5 71.037ZM1654.5 70.707C1645.84 71.882 1633.55 75.537 1626 79.18C1619.36 82.385 1615.84 84.949 1609.92 90.892C1599.36 101.486 1595 111.628 1595 125.602C1595 142.658 1603.19 157.61 1618.51 168.546C1629.93 176.695 1636.26 178.927 1666.5 185.479C1684.93 189.471 1693.99 193.386 1697.8 199C1701 203.709 1700.6 212.671 1697.02 216.476C1690.72 223.187 1670.26 226.097 1657.22 222.137C1653.38 220.97 1648.05 218.518 1645.37 216.687C1641.17 213.817 1633.87 205.41 1630.45 199.508C1629.49 197.847 1627.72 198.442 1608.2 206.981C1596.54 212.084 1587 216.596 1587 217.007C1587 218.912 1590.61 226.1 1594.55 232.055C1605.38 248.405 1623.05 259.677 1645.5 264.565C1656.64 266.99 1682.5 267.014 1693.37 264.61C1721.89 258.303 1742.61 241.195 1747.44 219.959C1751.23 203.287 1748.39 188.274 1739.13 176.022C1733.83 169.007 1727.42 163.868 1718 159.089C1708.43 154.23 1701.6 152.039 1680 146.887C1661.13 142.386 1656.27 140.656 1649.59 136.06C1634.15 125.44 1645.12 109.704 1668 109.634C1681.05 109.594 1692.89 114.724 1698.9 123.017C1700.54 125.279 1702.04 127.616 1702.24 128.209C1702.57 129.208 1741.35 112.998 1743.37 111.013C1744.93 109.48 1737.82 98.672 1730.41 91.313C1716.18 77.185 1694.14 69.841 1667 70.181C1661.78 70.246 1656.15 70.483 1654.5 70.707ZM980.284 76.734C980.517 77.155 998.177 118.795 1019.53 169.267L1058.35 261.035L1082.41 260.767L1106.47 260.5L1145.67 169C1167.22 118.675 1184.89 77.155 1184.93 76.734C1184.97 76.313 1172.77 76.088 1157.83 76.234L1130.65 76.5L1107.08 136.25C1094.11 169.113 1083.07 195.857 1082.54 195.681C1082.01 195.505 1071.18 168.617 1058.47 135.931L1035.36 76.5L1007.61 76.234C992.35 76.088 980.052 76.313 980.284 76.734ZM71 88.86C77.812 91.539 188.737 170.997 194.359 177.225C207.104 191.344 209.502 212.283 200.309 229.174C196.534 236.109 187.289 244.501 179.288 248.254C173.487 250.975 171.119 251.493 163 251.819C152.046 252.26 143.991 250.14 136.083 244.733C128.951 239.857 28.904 167.96 25.231 165.071C20.375 161.252 14.444 152.256 12.001 145.002C3.77798 120.594 18.693 93.265 43.624 87.056C50.106 85.442 64.764 86.408 71 88.86ZM902.875 111.884C906.204 112.92 910.863 114.902 913.228 116.288C922.521 121.734 932.964 135.982 932.99 143.25L933 146H888C863.25 146 843 145.71 843 145.355C843 145 844.597 141.389 846.55 137.33C852.604 124.743 865.373 114.003 877.754 111.084C884.498 109.494 896.416 109.874 902.875 111.884ZM1494.88 111.884C1498.2 112.92 1502.9 114.925 1505.31 116.338C1511.96 120.231 1520.48 129.997 1522.92 136.503C1526.85 147.01 1531.41 146 1479.93 146H1434.86L1435.55 143.75C1439.91 129.318 1455.49 114.448 1469.75 111.084C1476.5 109.494 1488.42 109.874 1494.88 111.884ZM360.823 156.872C394.705 181.198 398.353 183.172 412.333 184.736L419.167 185.5L377.491 215.5C354.569 232 333.33 246.705 330.294 248.179C322.484 251.968 312.908 253.42 304.882 252.032C276.458 247.116 259.148 218.06 268.983 191.774C273.154 180.628 277.854 175.795 300.078 159.808C311.31 151.728 322.975 143.311 326 141.103C329.025 138.895 331.87 137.069 332.323 137.044C332.775 137.02 345.6 145.942 360.823 156.872Z" fill="#1E1E1E"/>
</g>
</svg>
